Aleo-Bold Italic.ufo
<glyph name="exclam" format="1">
  <advance width="258"/>
  <unicode hex="0021"/>
  <note>
    exclam
  </note>
  <outline>
    <contour>
      <point x="238" y="723" type="line"/>
      <point x="121" y="723" type="line"/>
      <point x="86" y="437" type="line" smooth="yes"/>
      <point x="82" y="407"/>
      <point x="80" y="377"/>
      <point x="79" y="348" type="curve" smooth="yes"/>
      <point x="78" y="319"/>
      <point x="79" y="288"/>
      <point x="80" y="255" type="curve"/>
      <point x="164" y="255" type="line"/>
      <point x="173" y="288"/>
      <point x="180" y="319"/>
      <point x="187" y="348" type="curve" smooth="yes"/>
      <point x="194" y="377"/>
      <point x="198" y="407"/>
      <point x="202" y="437" type="curve" smooth="yes"/>
    </contour>
    <contour>
      <point x="21" y="57"/>
      <point x="21" y="47"/>
      <point x="24" y="38" type="curve" smooth="yes"/>
      <point x="27" y="29"/>
      <point x="31" y="22"/>
      <point x="37" y="15" type="curve" smooth="yes"/>
      <point x="43" y="8"/>
      <point x="50" y="3"/>
      <point x="59" y="-1" type="curve" smooth="yes"/>
      <point x="68" y="-5"/>
      <point x="77" y="-7"/>
      <point x="88" y="-7" type="curve" smooth="yes"/>
      <point x="98" y="-7"/>
      <point x="109" y="-5"/>
      <point x="119" y="-1" type="curve" smooth="yes"/>
      <point x="129" y="3"/>
      <point x="138" y="8"/>
      <point x="145" y="15" type="curve" smooth="yes"/>
      <point x="152" y="22"/>
      <point x="158" y="29"/>
      <point x="163" y="38" type="curve" smooth="yes"/>
      <point x="168" y="47"/>
      <point x="172" y="57"/>
      <point x="173" y="68" type="curve" smooth="yes"/>
      <point x="174" y="78"/>
      <point x="174" y="89"/>
      <point x="171" y="98" type="curve" smooth="yes"/>
      <point x="168" y="107"/>
      <point x="164" y="115"/>
      <point x="158" y="122" type="curve" smooth="yes"/>
      <point x="152" y="129"/>
      <point x="145" y="134"/>
      <point x="136" y="138" type="curve" smooth="yes"/>
      <point x="127" y="142"/>
      <point x="117" y="144"/>
      <point x="107" y="144" type="curve" smooth="yes"/>
      <point x="96" y="144"/>
      <point x="86" y="142"/>
      <point x="76" y="138" type="curve" smooth="yes"/>
      <point x="66" y="134"/>
      <point x="58" y="129"/>
      <point x="50" y="122" type="curve" smooth="yes"/>
      <point x="42" y="115"/>
      <point x="36" y="107"/>
      <point x="31" y="98" type="curve" smooth="yes"/>
      <point x="26" y="89"/>
      <point x="23" y="78"/>
      <point x="22" y="68" type="curve" smooth="yes"/>
    </contour>
  </outline>
</glyph>
<glyph name="quotedbl" format="1">
  <advance width="361"/>
  <unicode hex="0022"/>
  <note>
    quotedbl
  </note>
  <outline>
    <contour>
      <point x="153" y="723" type="line"/>
      <point x="46" y="723" type="line"/>
      <point x="28" y="579" type="line"/>
      <point x="29" y="501" type="line" smooth="yes"/>
      <point x="29" y="486"/>
      <point x="33" y="475"/>
      <point x="39" y="467" type="curve" smooth="yes"/>
      <point x="45" y="459"/>
      <point x="54" y="456"/>
      <point x="66" y="456" type="curve" smooth="yes"/>
      <point x="80" y="456"/>
      <point x="91" y="459"/>
      <point x="98" y="467" type="curve" smooth="yes"/>
      <point x="105" y="475"/>
      <point x="110" y="486"/>
      <point x="114" y="501" type="curve" smooth="yes"/>
      <point x="136" y="579" type="line"/>
    </contour>
    <contour>
      <point x="337" y="723" type="line"/>
      <point x="230" y="723" type="line"/>
      <point x="212" y="579" type="line"/>
      <point x="213" y="501" type="line" smooth="yes"/>
      <point x="213" y="486"/>
      <point x="217" y="475"/>
      <point x="223" y="467" type="curve" smooth="yes"/>
      <point x="229" y="459"/>
      <point x="238" y="456"/>
      <point x="250" y="456" type="curve" smooth="yes"/>
      <point x="264" y="456"/>
      <point x="275" y="459"/>
      <point x="282" y="467" type="curve" smooth="yes"/>
      <point x="289" y="475"/>
      <point x="294" y="486"/>
      <point x="298" y="501" type="curve" smooth="yes"/>
      <point x="320" y="579" type="line"/>
    </contour>
  </outline>
</glyph>
<glyph name="percent" format="1">
  <advance width="795"/>
  <unicode hex="0025"/>
  <note>
    percent
  </note>
  <outline>
    <contour>
      <point x="387" y="576"/>
      <point x="387" y="601"/>
      <point x="381" y="624" type="curve" smooth="yes"/>
      <point x="375" y="647"/>
      <point x="366" y="666"/>
      <point x="353" y="682" type="curve" smooth="yes"/>
      <point x="340" y="698"/>
      <point x="323" y="710"/>
      <point x="304" y="718" type="curve" smooth="yes"/>
      <point x="285" y="726"/>
      <point x="263" y="730"/>
      <point x="239" y="730" type="curve" smooth="yes"/>
      <point x="215" y="730"/>
      <point x="192" y="726"/>
      <point x="171" y="718" type="curve" smooth="yes"/>
      <point x="150" y="710"/>
      <point x="130" y="698"/>
      <point x="113" y="682" type="curve" smooth="yes"/>
      <point x="96" y="666"/>
      <point x="83" y="647"/>
      <point x="72" y="624" type="curve" smooth="yes"/>
      <point x="61" y="601"/>
      <point x="53" y="576"/>
      <point x="50" y="548" type="curve" smooth="yes"/>
      <point x="47" y="521"/>
      <point x="47" y="496"/>
      <point x="53" y="474" type="curve" smooth="yes"/>
      <point x="59" y="452"/>
      <point x="68" y="434"/>
      <point x="81" y="418" type="curve" smooth="yes"/>
      <point x="94" y="402"/>
      <point x="110" y="390"/>
      <point x="129" y="382" type="curve" smooth="yes"/>
      <point x="148" y="374"/>
      <point x="170" y="370"/>
      <point x="194" y="370" type="curve" smooth="yes"/>
      <point x="216" y="370"/>
      <point x="238" y="374"/>
      <point x="259" y="382" type="curve" smooth="yes"/>
      <point x="280" y="390"/>
      <point x="300" y="402"/>
      <point x="317" y="418" type="curve" smooth="yes"/>
      <point x="334" y="434"/>
      <point x="349" y="452"/>
      <point x="361" y="474" type="curve" smooth="yes"/>
      <point x="373" y="496"/>
      <point x="381" y="521"/>
      <point x="384" y="548" type="curve" smooth="yes"/>
    </contour>
    <contour>
      <point x="286" y="529"/>
      <point x="282" y="514"/>
      <point x="277" y="501" type="curve" smooth="yes"/>
      <point x="272" y="489"/>
      <point x="265" y="479"/>
      <point x="258" y="471" type="curve" smooth="yes"/>
      <point x="251" y="463"/>
      <point x="242" y="457"/>
      <point x="233" y="454" type="curve" smooth="yes"/>
      <point x="224" y="451"/>
      <point x="214" y="450"/>
      <point x="204" y="450" type="curve" smooth="yes"/>
      <point x="194" y="450"/>
      <point x="185" y="451"/>
      <point x="177" y="454" type="curve" smooth="yes"/>
      <point x="169" y="457"/>
      <point x="161" y="463"/>
      <point x="156" y="471" type="curve" smooth="yes"/>
      <point x="151" y="479"/>
      <point x="147" y="489"/>
      <point x="145" y="501" type="curve" smooth="yes"/>
      <point x="143" y="513"/>
      <point x="144" y="529"/>
      <point x="146" y="548" type="curve" smooth="yes"/>
      <point x="148" y="567"/>
      <point x="152" y="583"/>
      <point x="157" y="596" type="curve" smooth="yes"/>
      <point x="162" y="609"/>
      <point x="169" y="620"/>
      <point x="176" y="628" type="curve" smooth="yes"/>
      <point x="183" y="636"/>
      <point x="191" y="641"/>
      <point x="200" y="645" type="curve" smooth="yes"/>
      <point x="209" y="649"/>
      <point x="219" y="650"/>
      <point x="229" y="650" type="curve" smooth="yes"/>
      <point x="239" y="650"/>
      <point x="248" y="649"/>
      <point x="256" y="645" type="curve" smooth="yes"/>
      <point x="264" y="641"/>
      <point x="271" y="636"/>
      <point x="277" y="628" type="curve" smooth="yes"/>
      <point x="283" y="620"/>
      <point x="287" y="609"/>
      <point x="289" y="596" type="curve" smooth="yes"/>
      <point x="291" y="583"/>
      <point x="290" y="567"/>
      <point x="288" y="548" type="curve" smooth="yes"/>
    </contour>
    <contour>
      <point x="20" y="0" type="line"/>
      <point x="112" y="0" type="line" smooth="yes"/>
      <point x="121" y="0"/>
      <point x="128" y="1"/>
      <point x="135" y="5" type="curve" smooth="yes"/>
      <point x="142" y="9"/>
      <point x="147" y="13"/>
      <point x="152" y="18" type="curve"/>
      <point x="775" y="723" type="line"/>
      <point x="686" y="723" type="line" smooth="yes"/>
      <point x="675" y="723"/>
      <point x="666" y="721"/>
      <point x="660" y="717" type="curve" smooth="yes"/>
      <point x="654" y="713"/>
      <point x="648" y="709"/>
      <point x="643" y="704" type="curve"/>
    </contour>
    <contour>
      <point x="748" y="198"/>
      <point x="748" y="223"/>
      <point x="742" y="246" type="curve" smooth="yes"/>
      <point x="736" y="269"/>
      <point x="727" y="288"/>
      <point x="714" y="304" type="curve" smooth="yes"/>
      <point x="701" y="320"/>
      <point x="684" y="332"/>
      <point x="665" y="340" type="curve" smooth="yes"/>
      <point x="646" y="348"/>
      <point x="624" y="352"/>
      <point x="600" y="352" type="curve" smooth="yes"/>
      <point x="576" y="352"/>
      <point x="553" y="348"/>
      <point x="532" y="340" type="curve" smooth="yes"/>
      <point x="511" y="332"/>
      <point x="492" y="320"/>
      <point x="475" y="304" type="curve" smooth="yes"/>
      <point x="458" y="288"/>
      <point x="444" y="269"/>
      <point x="433" y="246" type="curve" smooth="yes"/>
      <point x="422" y="223"/>
      <point x="414" y="198"/>
      <point x="411" y="170" type="curve" smooth="yes"/>
      <point x="408" y="143"/>
      <point x="409" y="118"/>
      <point x="415" y="96" type="curve" smooth="yes"/>
      <point x="421" y="74"/>
      <point x="430" y="56"/>
      <point x="443" y="40" type="curve" smooth="yes"/>
      <point x="456" y="24"/>
      <point x="472" y="12"/>
      <point x="491" y="4" type="curve" smooth="yes"/>
      <point x="510" y="-4"/>
      <point x="532" y="-9"/>
      <point x="556" y="-9" type="curve" smooth="yes"/>
      <point x="578" y="-9"/>
      <point x="600" y="-4"/>
      <point x="621" y="4" type="curve" smooth="yes"/>
      <point x="642" y="12"/>
      <point x="662" y="24"/>
      <point x="679" y="40" type="curve" smooth="yes"/>
      <point x="696" y="56"/>
      <point x="711" y="74"/>
      <point x="723" y="96" type="curve" smooth="yes"/>
      <point x="735" y="118"/>
      <point x="742" y="143"/>
      <point x="745" y="170" type="curve" smooth="yes"/>
    </contour>
    <contour>
      <point x="648" y="151"/>
      <point x="644" y="136"/>
      <point x="639" y="123" type="curve" smooth="yes"/>
      <point x="634" y="110"/>
      <point x="627" y="101"/>
      <point x="620" y="93" type="curve" smooth="yes"/>
      <point x="613" y="85"/>
      <point x="604" y="79"/>
      <point x="595" y="76" type="curve" smooth="yes"/>
      <point x="586" y="73"/>
      <point x="576" y="71"/>
      <point x="566" y="71" type="curve" smooth="yes"/>
      <point x="556" y="71"/>
      <point x="546" y="73"/>
      <point x="538" y="76" type="curve" smooth="yes"/>
      <point x="530" y="79"/>
      <point x="523" y="85"/>
      <point x="518" y="93" type="curve" smooth="yes"/>
      <point x="513" y="101"/>
      <point x="509" y="110"/>
      <point x="507" y="123" type="curve" smooth="yes"/>
      <point x="505" y="136"/>
      <point x="505" y="151"/>
      <point x="507" y="170" type="curve" smooth="yes"/>
      <point x="509" y="189"/>
      <point x="514" y="206"/>
      <point x="519" y="219" type="curve" smooth="yes"/>
      <point x="524" y="232"/>
      <point x="530" y="242"/>
      <point x="537" y="250" type="curve" smooth="yes"/>
      <point x="544" y="258"/>
      <point x="553" y="263"/>
      <point x="562" y="267" type="curve" smooth="yes"/>
      <point x="571" y="271"/>
      <point x="580" y="273"/>
      <point x="590" y="273" type="curve" smooth="yes"/>
      <point x="600" y="273"/>
      <point x="610" y="271"/>
      <point x="618" y="267" type="curve" smooth="yes"/>
      <point x="626" y="263"/>
      <point x="633" y="258"/>
      <point x="639" y="250" type="curve" smooth="yes"/>
      <point x="645" y="242"/>
      <point x="649" y="232"/>
      <point x="651" y="219" type="curve" smooth="yes"/>
      <point x="653" y="206"/>
      <point x="652" y="189"/>
      <point x="650" y="170" type="curve" smooth="yes"/>
    </contour>
  </outline>
</glyph>
<glyph name="parenleft" format="1">
  <advance width="305"/>
  <unicode hex="0028"/>
  <note>
    parenleft
  </note>
  <outline>
    <contour>
      <point x="142" y="383"/>
      <point x="159" y="450"/>
      <point x="184" y="516" type="curve" smooth="yes"/>
      <point x="209" y="582"/>
      <point x="240" y="646"/>
      <point x="278" y="704" type="curve"/>
      <point x="283" y="713"/>
      <point x="286" y="720"/>
      <point x="287" y="726" type="curve" smooth="yes"/>
      <point x="288" y="732"/>
      <point x="287" y="738"/>
      <point x="284" y="742" type="curve" smooth="yes"/>
      <point x="281" y="746"/>
      <point x="277" y="749"/>
      <point x="273" y="752" type="curve"/>
      <point x="222" y="785" type="line"/>
      <point x="193" y="747"/>
      <point x="167" y="709"/>
      <point x="145" y="671" type="curve" smooth="yes"/>
      <point x="123" y="633"/>
      <point x="104" y="594"/>
      <point x="88" y="555" type="curve" smooth="yes"/>
      <point x="72" y="516"/>
      <point x="60" y="476"/>
      <point x="50" y="436" type="curve" smooth="yes"/>
      <point x="40" y="396"/>
      <point x="32" y="356"/>
      <point x="27" y="314" type="curve" smooth="yes"/>
      <point x="22" y="272"/>
      <point x="20" y="231"/>
      <point x="20" y="191" type="curve" smooth="yes"/>
      <point x="20" y="151"/>
      <point x="23" y="111"/>
      <point x="29" y="72" type="curve" smooth="yes"/>
      <point x="35" y="33"/>
      <point x="44" y="-6"/>
      <point x="57" y="-44" type="curve" smooth="yes"/>
      <point x="70" y="-82"/>
      <point x="86" y="-120"/>
      <point x="106" y="-158" type="curve"/>
      <point x="166" y="-124" type="line" smooth="yes"/>
      <point x="171" y="-121"/>
      <point x="175" y="-118"/>
      <point x="179" y="-114" type="curve" smooth="yes"/>
      <point x="183" y="-110"/>
      <point x="185" y="-105"/>
      <point x="186" y="-98" type="curve"/>
      <point x="186" y="-88" type="line" smooth="yes"/>
      <point x="186" y="-84"/>
      <point x="184" y="-80"/>
      <point x="182" y="-76" type="curve"/>
      <point x="158" y="-18"/>
      <point x="143" y="45"/>
      <point x="134" y="111" type="curve" smooth="yes"/>
      <point x="125" y="177"/>
      <point x="126" y="245"/>
      <point x="134" y="314" type="curve" smooth="yes"/>
    </contour>
  </outline>
</glyph>
<glyph name="asterisk" format="1">
  <advance width="383"/>
  <unicode hex="002A"/>
  <note>
    asterisk
  </note>
  <outline>
    <contour>
      <point x="142" y="418" type="line"/>
      <point x="201" y="418" type="line"/>
      <point x="212" y="510" type="line" smooth="yes"/>
      <point x="214" y="524"/>
      <point x="213" y="537"/>
      <point x="210" y="548" type="curve"/>
      <point x="213" y="543"/>
      <point x="217" y="539"/>
      <point x="222" y="535" type="curve" smooth="yes"/>
      <point x="227" y="531"/>
      <point x="231" y="528"/>
      <point x="237" y="524" type="curve" smooth="yes"/>
      <point x="311" y="478" type="line"/>
      <point x="346" y="528" type="line"/>
      <point x="272" y="574" type="line" smooth="yes"/>
      <point x="260" y="581"/>
      <point x="249" y="586"/>
      <point x="238" y="588" type="curve"/>
      <point x="244" y="589"/>
      <point x="251" y="591"/>
      <point x="257" y="593" type="curve" smooth="yes"/>
      <point x="263" y="595"/>
      <point x="270" y="598"/>
      <point x="276" y="602" type="curve"/>
      <point x="361" y="648" type="line"/>
      <point x="337" y="698" type="line"/>
      <point x="253" y="652" type="line"/>
      <point x="247" y="648"/>
      <point x="240" y="645"/>
      <point x="235" y="641" type="curve" smooth="yes"/>
      <point x="230" y="637"/>
      <point x="224" y="633"/>
      <point x="220" y="628" type="curve"/>
      <point x="223" y="634"/>
      <point x="225" y="640"/>
      <point x="227" y="646" type="curve" smooth="yes"/>
      <point x="229" y="652"/>
      <point x="230" y="659"/>
      <point x="231" y="666" type="curve" smooth="yes"/>
      <point x="242" y="758" type="line"/>
      <point x="183" y="758" type="line"/>
      <point x="172" y="666" type="line" smooth="yes"/>
      <point x="171" y="659"/>
      <point x="171" y="652"/>
      <point x="171" y="646" type="curve" smooth="yes"/>
      <point x="171" y="640"/>
      <point x="171" y="634"/>
      <point x="173" y="628" type="curve"/>
      <point x="170" y="633"/>
      <point x="167" y="637"/>
      <point x="162" y="641" type="curve" smooth="yes"/>
      <point x="157" y="645"/>
      <point x="152" y="648"/>
      <point x="147" y="652" type="curve"/>
      <point x="73" y="699" type="line"/>
      <point x="38" y="649" type="line"/>
      <point x="112" y="602" type="line" smooth="yes"/>
      <point x="118" y="598"/>
      <point x="122" y="596"/>
      <point x="128" y="593" type="curve" smooth="yes"/>
      <point x="134" y="590"/>
      <point x="140" y="589"/>
      <point x="146" y="588" type="curve"/>
      <point x="140" y="587"/>
      <point x="133" y="585"/>
      <point x="127" y="583" type="curve" smooth="yes"/>
      <point x="121" y="581"/>
      <point x="114" y="578"/>
      <point x="108" y="574" type="curve"/>
      <point x="23" y="528" type="line"/>
      <point x="46" y="478" type="line"/>
      <point x="131" y="524" type="line"/>
      <point x="137" y="528"/>
      <point x="143" y="531"/>
      <point x="148" y="535" type="curve" smooth="yes"/>
      <point x="153" y="539"/>
      <point x="159" y="542"/>
      <point x="163" y="547" type="curve"/>
      <point x="160" y="541"/>
      <point x="158" y="535"/>
      <point x="156" y="529" type="curve" smooth="yes"/>
      <point x="154" y="523"/>
      <point x="154" y="517"/>
      <point x="153" y="510" type="curve" smooth="yes"/>
    </contour>
  </outline>
</glyph>
<glyph name="plus" format="1">
  <advance width="544"/>
  <unicode hex="002B"/>
  <note>
    plus
  </note>
  <outline>
    <contour>
      <point x="353" y="586" type="line"/>
      <point x="253" y="586" type="line"/>
      <point x="228" y="382" type="line"/>
      <point x="34" y="382" type="line"/>
      <point x="23" y="290" type="line"/>
      <point x="216" y="290" type="line"/>
      <point x="191" y="84" type="line"/>
      <point x="291" y="84" type="line"/>
      <point x="316" y="290" type="line"/>
      <point x="511" y="290" type="line"/>
      <point x="522" y="382" type="line"/>
      <point x="328" y="382" type="line"/>
    </contour>
  </outline>
</glyph>
<glyph name="comma" format="1">
  <advance width="218"/>
  <unicode hex="002C"/>
  <note>
    comma
  </note>
  <outline>
    <contour>
      <point x="42" y="65"/>
      <point x="42" y="55"/>
      <point x="44" y="46" type="curve" smooth="yes"/>
      <point x="46" y="37"/>
      <point x="51" y="30"/>
      <point x="56" y="23" type="curve" smooth="yes"/>
      <point x="61" y="16"/>
      <point x="68" y="11"/>
      <point x="76" y="7" type="curve" smooth="yes"/>
      <point x="84" y="3"/>
      <point x="94" y="2"/>
      <point x="104" y="2" type="curve"/>
      <point x="101" y="-8"/>
      <point x="97" y="-18"/>
      <point x="91" y="-27" type="curve" smooth="yes"/>
      <point x="85" y="-36"/>
      <point x="79" y="-43"/>
      <point x="73" y="-51" type="curve" smooth="yes"/>
      <point x="67" y="-59"/>
      <point x="61" y="-65"/>
      <point x="55" y="-71" type="curve" smooth="yes"/>
      <point x="49" y="-77"/>
      <point x="43" y="-82"/>
      <point x="39" y="-86" type="curve" smooth="yes"/>
      <point x="36" y="-89"/>
      <point x="34" y="-92"/>
      <point x="32" y="-95" type="curve" smooth="yes"/>
      <point x="30" y="-98"/>
      <point x="28" y="-101"/>
      <point x="28" y="-104" type="curve"/>
      <point x="27" y="-111"/>
      <point x="29" y="-117"/>
      <point x="34" y="-122" type="curve" smooth="yes"/>
      <point x="54" y="-142" type="line"/>
      <point x="73" y="-128"/>
      <point x="90" y="-113"/>
      <point x="106" y="-96" type="curve" smooth="yes"/>
      <point x="122" y="-79"/>
      <point x="135" y="-62"/>
      <point x="147" y="-44" type="curve" smooth="yes"/>
      <point x="159" y="-26"/>
      <point x="168" y="-10"/>
      <point x="175" y="8" type="curve" smooth="yes"/>
      <point x="182" y="26"/>
      <point x="186" y="43"/>
      <point x="188" y="59" type="curve" smooth="yes"/>
      <point x="189" y="70"/>
      <point x="190" y="81"/>
      <point x="188" y="91" type="curve" smooth="yes"/>
      <point x="186" y="101"/>
      <point x="182" y="110"/>
      <point x="177" y="118" type="curve" smooth="yes"/>
      <point x="172" y="126"/>
      <point x="165" y="133"/>
      <point x="156" y="137" type="curve" smooth="yes"/>
      <point x="147" y="141"/>
      <point x="137" y="143"/>
      <point x="124" y="143" type="curve" smooth="yes"/>
      <point x="113" y="143"/>
      <point x="102" y="142"/>
      <point x="93" y="138" type="curve" smooth="yes"/>
      <point x="84" y="134"/>
      <point x="76" y="130"/>
      <point x="69" y="124" type="curve" smooth="yes"/>
      <point x="62" y="118"/>
      <point x="56" y="110"/>
      <point x="51" y="102" type="curve" smooth="yes"/>
      <point x="46" y="94"/>
      <point x="44" y="85"/>
      <point x="43" y="76" type="curve" smooth="yes"/>
    </contour>
  </outline>
</glyph>
<glyph name="hyphen" format="1">
  <advance width="331"/>
  <unicode hex="002D"/>
  <note>
    hyphen
  </note>
  <outline>
    <contour>
      <point x="42" y="354" type="line"/>
      <point x="30" y="250" type="line"/>
      <point x="288" y="250" type="line"/>
      <point x="301" y="354" type="line"/>
    </contour>
  </outline>
</glyph>
<glyph name="period" format="1">
  <advance width="210"/>
  <unicode hex="002E"/>
  <note>
    period
  </note>
  <outline>
    <contour>
      <point x="28" y="57"/>
      <point x="28" y="47"/>
      <point x="31" y="38" type="curve" smooth="yes"/>
      <point x="34" y="29"/>
      <point x="38" y="22"/>
      <point x="44" y="15" type="curve" smooth="yes"/>
      <point x="50" y="8"/>
      <point x="57" y="3"/>
      <point x="66" y="-1" type="curve" smooth="yes"/>
      <point x="75" y="-5"/>
      <point x="84" y="-7"/>
      <point x="95" y="-7" type="curve" smooth="yes"/>
      <point x="105" y="-7"/>
      <point x="116" y="-5"/>
      <point x="126" y="-1" type="curve" smooth="yes"/>
      <point x="136" y="3"/>
      <point x="145" y="8"/>
      <point x="152" y="15" type="curve" smooth="yes"/>
      <point x="159" y="22"/>
      <point x="165" y="29"/>
      <point x="170" y="38" type="curve" smooth="yes"/>
      <point x="175" y="47"/>
      <point x="179" y="57"/>
      <point x="180" y="68" type="curve" smooth="yes"/>
      <point x="181" y="78"/>
      <point x="181" y="89"/>
      <point x="178" y="98" type="curve" smooth="yes"/>
      <point x="175" y="107"/>
      <point x="171" y="115"/>
      <point x="165" y="122" type="curve" smooth="yes"/>
      <point x="159" y="129"/>
      <point x="152" y="134"/>
      <point x="143" y="138" type="curve" smooth="yes"/>
      <point x="134" y="142"/>
      <point x="124" y="144"/>
      <point x="114" y="144" type="curve" smooth="yes"/>
      <point x="103" y="144"/>
      <point x="93" y="142"/>
      <point x="83" y="138" type="curve" smooth="yes"/>
      <point x="73" y="134"/>
      <point x="65" y="129"/>
      <point x="57" y="122" type="curve" smooth="yes"/>
      <point x="49" y="115"/>
      <point x="43" y="107"/>
      <point x="38" y="98" type="curve" smooth="yes"/>
      <point x="33" y="89"/>
      <point x="30" y="78"/>
      <point x="29" y="68" type="curve" smooth="yes"/>
    </contour>
  </outline>
</glyph>
<glyph name="one" format="1">
  <advance width="449"/>
  <unicode hex="0031"/>
  <note>
    one
  </note>
  <outline>
    <contour>
      <point x="404" y="84"/>
      <point x="368" y="88"/>
      <point x="302" y="93" type="curve"/>
      <point x="379" y="724" type="line"/>
      <point x="278" y="724" type="line"/>
      <point x="34" y="537" type="line"/>
      <point x="67" y="483" type="line"/>
      <point x="69" y="479"/>
      <point x="73" y="476"/>
      <point x="78" y="473" type="curve" smooth="yes"/>
      <point x="83" y="470"/>
      <point x="89" y="469"/>
      <point x="96" y="469" type="curve" smooth="yes"/>
      <point x="100" y="469"/>
      <point x="104" y="470"/>
      <point x="109" y="471" type="curve" smooth="yes"/>
      <point x="114" y="472"/>
      <point x="118" y="475"/>
      <point x="123" y="479" type="curve" smooth="yes"/>
      <point x="238" y="566" type="line"/>
      <point x="235" y="548"/>
      <point x="232" y="530"/>
      <point x="230" y="514" type="curve" smooth="yes"/>
      <point x="178" y="94" type="line"/>
      <point x="100" y="88"/>
      <point x="58" y="84"/>
      <point x="51" y="83" type="curve"/>
      <point x="37" y="80"/>
      <point x="30" y="72"/>
      <point x="28" y="58" type="curve" smooth="yes"/>
      <point x="20" y="0" type="line"/>
      <point x="217" y="0" type="line"/>
      <point x="224" y="0" type="line"/>
      <point x="420" y="0" type="line"/>
      <point x="428" y="58" type="line" smooth="yes"/>
      <point x="430" y="72"/>
      <point x="423" y="80"/>
      <point x="410" y="83" type="curve"/>
    </contour>
  </outline>
</glyph>
<glyph name="three" format="1">
  <advance width="573"/>
  <unicode hex="0033"/>
  <note>
    three
  </note>
  <outline>
    <contour>
      <point x="323" y="731"/>
      <point x="292" y="727"/>
      <point x="263" y="718" type="curve" smooth="yes"/>
      <point x="234" y="709"/>
      <point x="208" y="696"/>
      <point x="184" y="678" type="curve" smooth="yes"/>
      <point x="160" y="660"/>
      <point x="141" y="639"/>
      <point x="123" y="613" type="curve" smooth="yes"/>
      <point x="105" y="587"/>
      <point x="92" y="557"/>
      <point x="83" y="522" type="curve"/>
      <point x="146" y="510" type="line" smooth="yes"/>
      <point x="152" y="509"/>
      <point x="158" y="508"/>
      <point x="163" y="508" type="curve" smooth="yes"/>
      <point x="174" y="508"/>
      <point x="183" y="511"/>
      <point x="191" y="517" type="curve" smooth="yes"/>
      <point x="199" y="523"/>
      <point x="205" y="531"/>
      <point x="211" y="544" type="curve" smooth="yes"/>
      <point x="222" y="568"/>
      <point x="238" y="588"/>
      <point x="259" y="604" type="curve" smooth="yes"/>
      <point x="280" y="620"/>
      <point x="306" y="627"/>
      <point x="335" y="627" type="curve" smooth="yes"/>
      <point x="367" y="627"/>
      <point x="391" y="619"/>
      <point x="408" y="601" type="curve" smooth="yes"/>
      <point x="425" y="583"/>
      <point x="431" y="557"/>
      <point x="427" y="523" type="curve" smooth="yes"/>
      <point x="425" y="507"/>
      <point x="420" y="492"/>
      <point x="414" y="479" type="curve" smooth="yes"/>
      <point x="408" y="466"/>
      <point x="398" y="455"/>
      <point x="385" y="445" type="curve"/>
      <point x="372" y="436"/>
      <point x="356" y="427"/>
      <point x="335" y="422" type="curve" smooth="yes"/>
      <point x="314" y="417"/>
      <point x="288" y="414"/>
      <point x="258" y="414" type="curve"/>
      <point x="247" y="326" type="line"/>
      <point x="284" y="326"/>
      <point x="313" y="324"/>
      <point x="334" y="318" type="curve" smooth="yes"/>
      <point x="355" y="312"/>
      <point x="372" y="304"/>
      <point x="382" y="294" type="curve" smooth="yes"/>
      <point x="392" y="284"/>
      <point x="398" y="272"/>
      <point x="400" y="258" type="curve" smooth="yes"/>
      <point x="402" y="244"/>
      <point x="402" y="227"/>
      <point x="400" y="210" type="curve" smooth="yes"/>
      <point x="398" y="196"/>
      <point x="394" y="184"/>
      <point x="387" y="170" type="curve" smooth="yes"/>
      <point x="380" y="156"/>
      <point x="371" y="144"/>
      <point x="359" y="133" type="curve" smooth="yes"/>
      <point x="347" y="122"/>
      <point x="334" y="113"/>
      <point x="317" y="106" type="curve" smooth="yes"/>
      <point x="300" y="99"/>
      <point x="281" y="96"/>
      <point x="260" y="96" type="curve" smooth="yes"/>
      <point x="241" y="96"/>
      <point x="226" y="98"/>
      <point x="213" y="104" type="curve" smooth="yes"/>
      <point x="200" y="110"/>
      <point x="189" y="117"/>
      <point x="180" y="126" type="curve" smooth="yes"/>
      <point x="171" y="135"/>
      <point x="164" y="145"/>
      <point x="158" y="156" type="curve" smooth="yes"/>
      <point x="152" y="167"/>
      <point x="148" y="178"/>
      <point x="143" y="190" type="curve" smooth="yes"/>
      <point x="140" y="197"/>
      <point x="135" y="202"/>
      <point x="129" y="206" type="curve" smooth="yes"/>
      <point x="123" y="210"/>
      <point x="115" y="212"/>
      <point x="106" y="212" type="curve" smooth="yes"/>
      <point x="96" y="212"/>
      <point x="87" y="210"/>
      <point x="77" y="206" type="curve" smooth="yes"/>
      <point x="20" y="184" type="line"/>
      <point x="26" y="153"/>
      <point x="35" y="126"/>
      <point x="46" y="102" type="curve" smooth="yes"/>
      <point x="57" y="78"/>
      <point x="72" y="58"/>
      <point x="90" y="42" type="curve" smooth="yes"/>
      <point x="108" y="26"/>
      <point x="130" y="12"/>
      <point x="156" y="4" type="curve" smooth="yes"/>
      <point x="182" y="-4"/>
      <point x="213" y="-8"/>
      <point x="249" y="-8" type="curve" smooth="yes"/>
      <point x="282" y="-8"/>
      <point x="315" y="-4"/>
      <point x="346" y="6" type="curve" smooth="yes"/>
      <point x="377" y="16"/>
      <point x="405" y="30"/>
      <point x="430" y="49" type="curve" smooth="yes"/>
      <point x="455" y="68"/>
      <point x="475" y="91"/>
      <point x="492" y="119" type="curve" smooth="yes"/>
      <point x="509" y="147"/>
      <point x="520" y="178"/>
      <point x="524" y="214" type="curve" smooth="yes"/>
      <point x="529" y="256"/>
      <point x="523" y="292"/>
      <point x="505" y="320" type="curve" smooth="yes"/>
      <point x="487" y="348"/>
      <point x="457" y="368"/>
      <point x="415" y="382" type="curve"/>
      <point x="434" y="388"/>
      <point x="451" y="396"/>
      <point x="466" y="405" type="curve" smooth="yes"/>
      <point x="481" y="414"/>
      <point x="495" y="425"/>
      <point x="506" y="438" type="curve" smooth="yes"/>
      <point x="517" y="451"/>
      <point x="528" y="466"/>
      <point x="535" y="484" type="curve" smooth="yes"/>
      <point x="542" y="502"/>
      <point x="547" y="521"/>
      <point x="550" y="544" type="curve" smooth="yes"/>
      <point x="553" y="570"/>
      <point x="551" y="595"/>
      <point x="544" y="618" type="curve" smooth="yes"/>
      <point x="537" y="641"/>
      <point x="524" y="660"/>
      <point x="507" y="677" type="curve" smooth="yes"/>
      <point x="490" y="694"/>
      <point x="469" y="707"/>
      <point x="443" y="717" type="curve" smooth="yes"/>
      <point x="417" y="727"/>
      <point x="388" y="731"/>
      <point x="355" y="731" type="curve" smooth="yes"/>
    </contour>
  </outline>
</glyph>
<glyph name="seven" format="1">
  <advance width="574"/>
  <unicode hex="0037"/>
  <note>
    seven
  </note>
  <outline>
    <contour>
      <point x="53" y="723" type="line"/>
      <point x="43" y="639" type="line"/>
      <point x="43" y="638" type="line"/>
      <point x="43" y="637" type="line"/>
      <point x="30" y="530" type="line"/>
      <point x="83" y="530" type="line" smooth="yes"/>
      <point x="96" y="530"/>
      <point x="104" y="536"/>
      <point x="108" y="548" type="curve" smooth="yes"/>
      <point x="111" y="558"/>
      <point x="116" y="579"/>
      <point x="123" y="611" type="curve"/>
      <point x="414" y="611" type="line"/>
      <point x="398" y="595"/>
      <point x="382" y="575"/>
      <point x="368" y="552" type="curve" smooth="yes"/>
      <point x="20" y="0" type="line"/>
      <point x="110" y="0" type="line" smooth="yes"/>
      <point x="128" y="0"/>
      <point x="142" y="4"/>
      <point x="153" y="12" type="curve" smooth="yes"/>
      <point x="164" y="20"/>
      <point x="174" y="30"/>
      <point x="181" y="42" type="curve" smooth="yes"/>
      <point x="523" y="606" type="line" smooth="yes"/>
      <point x="527" y="613"/>
      <point x="532" y="621"/>
      <point x="537" y="631" type="curve" smooth="yes"/>
      <point x="542" y="641"/>
      <point x="545" y="654"/>
      <point x="547" y="670" type="curve" smooth="yes"/>
      <point x="553" y="723" type="line"/>
    </contour>
  </outline>
</glyph>
<glyph name="less" format="1">
  <advance width="475"/>
  <unicode hex="003C"/>
  <note>
    less
  </note>
  <outline>
    <contour>
      <point x="30" y="362" type="line"/>
      <point x="24" y="312" type="line"/>
      <point x="395" y="105" type="line"/>
      <point x="405" y="193" type="line" smooth="yes"/>
      <point x="406" y="200"/>
      <point x="406" y="205"/>
      <point x="403" y="211" type="curve" smooth="yes"/>
      <point x="400" y="217"/>
      <point x="395" y="222"/>
      <point x="388" y="226" type="curve" smooth="yes"/>
      <point x="218" y="319" type="line" smooth="yes"/>
      <point x="211" y="323"/>
      <point x="203" y="326"/>
      <point x="195" y="329" type="curve" smooth="yes"/>
      <point x="187" y="332"/>
      <point x="178" y="335"/>
      <point x="169" y="337" type="curve"/>
      <point x="179" y="339"/>
      <point x="188" y="342"/>
      <point x="197" y="345" type="curve" smooth="yes"/>
      <point x="206" y="348"/>
      <point x="214" y="351"/>
      <point x="222" y="355" type="curve" smooth="yes"/>
      <point x="415" y="448" type="line" smooth="yes"/>
      <point x="423" y="452"/>
      <point x="429" y="456"/>
      <point x="433" y="462" type="curve"/>
      <point x="437" y="467"/>
      <point x="440" y="474"/>
      <point x="441" y="481" type="curve" smooth="yes"/>
      <point x="451" y="569" type="line"/>
    </contour>
  </outline>
</glyph>
<glyph name="equal" format="1">
  <advance width="528"/>
  <unicode hex="003D"/>
  <note>
    equal
  </note>
  <outline>
    <contour>
      <point x="37" y="294" type="line"/>
      <point x="26" y="202" type="line"/>
      <point x="469" y="202" type="line"/>
      <point x="480" y="294" type="line"/>
    </contour>
    <contour>
      <point x="59" y="470" type="line"/>
      <point x="48" y="378" type="line"/>
      <point x="491" y="378" type="line"/>
      <point x="502" y="470" type="line"/>
    </contour>
  </outline>
</glyph>
<glyph name="at" format="1">
  <advance width="815"/>
  <unicode hex="0040"/>
  <note>
    at
  </note>
  <outline>
    <contour>
      <point x="580" y="92"/>
      <point x="609" y="99"/>
      <point x="636" y="112" type="curve" smooth="yes"/>
      <point x="663" y="125"/>
      <point x="687" y="143"/>
      <point x="709" y="166" type="curve" smooth="yes"/>
      <point x="731" y="189"/>
      <point x="749" y="216"/>
      <point x="763" y="247" type="curve" smooth="yes"/>
      <point x="777" y="278"/>
      <point x="787" y="312"/>
      <point x="791" y="348" type="curve" smooth="yes"/>
      <point x="798" y="401"/>
      <point x="794" y="449"/>
      <point x="779" y="491" type="curve" smooth="yes"/>
      <point x="764" y="533"/>
      <point x="742" y="569"/>
      <point x="712" y="599" type="curve" smooth="yes"/>
      <point x="682" y="629"/>
      <point x="646" y="651"/>
      <point x="604" y="667" type="curve" smooth="yes"/>
      <point x="562" y="683"/>
      <point x="518" y="691"/>
      <point x="471" y="691" type="curve" smooth="yes"/>
      <point x="434" y="691"/>
      <point x="397" y="686"/>
      <point x="362" y="676" type="curve" smooth="yes"/>
      <point x="327" y="666"/>
      <point x="294" y="653"/>
      <point x="262" y="635" type="curve" smooth="yes"/>
      <point x="230" y="617"/>
      <point x="201" y="597"/>
      <point x="174" y="572" type="curve" smooth="yes"/>
      <point x="147" y="547"/>
      <point x="123" y="520"/>
      <point x="102" y="490" type="curve" smooth="yes"/>
      <point x="81" y="460"/>
      <point x="65" y="430"/>
      <point x="52" y="396" type="curve" smooth="yes"/>
      <point x="39" y="362"/>
      <point x="29" y="328"/>
      <point x="25" y="292" type="curve" smooth="yes"/>
      <point x="17" y="228"/>
      <point x="21" y="171"/>
      <point x="36" y="120" type="curve" smooth="yes"/>
      <point x="51" y="69"/>
      <point x="75" y="26"/>
      <point x="108" y="-10" type="curve" smooth="yes"/>
      <point x="141" y="-46"/>
      <point x="182" y="-73"/>
      <point x="231" y="-92" type="curve" smooth="yes"/>
      <point x="280" y="-111"/>
      <point x="335" y="-120"/>
      <point x="395" y="-120" type="curve" smooth="yes"/>
      <point x="454" y="-120"/>
      <point x="508" y="-113"/>
      <point x="556" y="-99" type="curve" smooth="yes"/>
      <point x="604" y="-85"/>
      <point x="647" y="-67"/>
      <point x="684" y="-44" type="curve"/>
      <point x="673" y="1" type="line" smooth="yes"/>
      <point x="670" y="12"/>
      <point x="664" y="17"/>
      <point x="654" y="17" type="curve" smooth="yes"/>
      <point x="649" y="17"/>
      <point x="644" y="16"/>
      <point x="637" y="12" type="curve" smooth="yes"/>
      <point x="624" y="5"/>
      <point x="609" y="-2"/>
      <point x="593" y="-8" type="curve" smooth="yes"/>
      <point x="577" y="-14"/>
      <point x="559" y="-20"/>
      <point x="540" y="-25" type="curve" smooth="yes"/>
      <point x="521" y="-30"/>
      <point x="500" y="-33"/>
      <point x="477" y="-36" type="curve" smooth="yes"/>
      <point x="454" y="-39"/>
      <point x="431" y="-40"/>
      <point x="405" y="-40" type="curve" smooth="yes"/>
      <point x="358" y="-40"/>
      <point x="315" y="-34"/>
      <point x="277" y="-20" type="curve" smooth="yes"/>
      <point x="239" y="-6"/>
      <point x="206" y="15"/>
      <point x="180" y="43" type="curve" smooth="yes"/>
      <point x="154" y="71"/>
      <point x="135" y="105"/>
      <point x="123" y="147" type="curve" smooth="yes"/>
      <point x="111" y="189"/>
      <point x="108" y="237"/>
      <point x="115" y="292" type="curve" smooth="yes"/>
      <point x="121" y="337"/>
      <point x="134" y="379"/>
      <point x="154" y="418" type="curve" smooth="yes"/>
      <point x="174" y="457"/>
      <point x="200" y="490"/>
      <point x="231" y="519" type="curve" smooth="yes"/>
      <point x="262" y="548"/>
      <point x="297" y="571"/>
      <point x="337" y="587" type="curve" smooth="yes"/>
      <point x="377" y="603"/>
      <point x="417" y="612"/>
      <point x="461" y="612" type="curve" smooth="yes"/>
      <point x="501" y="612"/>
      <point x="538" y="606"/>
      <point x="570" y="595" type="curve" smooth="yes"/>
      <point x="602" y="584"/>
      <point x="629" y="567"/>
      <point x="650" y="545" type="curve" smooth="yes"/>
      <point x="671" y="523"/>
      <point x="688" y="495"/>
      <point x="697" y="462" type="curve" smooth="yes"/>
      <point x="706" y="429"/>
      <point x="708" y="391"/>
      <point x="703" y="348" type="curve" smooth="yes"/>
      <point x="700" y="322"/>
      <point x="694" y="298"/>
      <point x="686" y="276" type="curve" smooth="yes"/>
      <point x="678" y="254"/>
      <point x="668" y="234"/>
      <point x="657" y="218" type="curve" smooth="yes"/>
      <point x="646" y="202"/>
      <point x="633" y="190"/>
      <point x="619" y="181" type="curve" smooth="yes"/>
      <point x="605" y="172"/>
      <point x="592" y="168"/>
      <point x="578" y="168" type="curve" smooth="yes"/>
      <point x="571" y="168"/>
      <point x="565" y="168"/>
      <point x="559" y="170" type="curve" smooth="yes"/>
      <point x="553" y="172"/>
      <point x="548" y="174"/>
      <point x="544" y="178" type="curve" smooth="yes"/>
      <point x="540" y="182"/>
      <point x="538" y="187"/>
      <point x="536" y="194" type="curve" smooth="yes"/>
      <point x="534" y="201"/>
      <point x="535" y="210"/>
      <point x="536" y="220" type="curve"/>
      <point x="538" y="234"/>
      <point x="542" y="252"/>
      <point x="550" y="273" type="curve" smooth="yes"/>
      <point x="621" y="458" type="line"/>
      <point x="605" y="465"/>
      <point x="588" y="472"/>
      <point x="570" y="476" type="curve" smooth="yes"/>
      <point x="552" y="480"/>
      <point x="531" y="482"/>
      <point x="505" y="482" type="curve" smooth="yes"/>
      <point x="475" y="482"/>
      <point x="448" y="478"/>
      <point x="423" y="471" type="curve" smooth="yes"/>
      <point x="398" y="464"/>
      <point x="374" y="455"/>
      <point x="353" y="443" type="curve" smooth="yes"/>
      <point x="332" y="431"/>
      <point x="313" y="418"/>
      <point x="297" y="402" type="curve" smooth="yes"/>
      <point x="281" y="386"/>
      <point x="266" y="369"/>
      <point x="254" y="351" type="curve" smooth="yes"/>
      <point x="242" y="333"/>
      <point x="233" y="314"/>
      <point x="226" y="294" type="curve" smooth="yes"/>
      <point x="219" y="274"/>
      <point x="213" y="256"/>
      <point x="211" y="237" type="curve"/>
      <point x="208" y="216"/>
      <point x="209" y="197"/>
      <point x="212" y="179" type="curve" smooth="yes"/>
      <point x="215" y="161"/>
      <point x="221" y="147"/>
      <point x="230" y="134" type="curve" smooth="yes"/>
      <point x="239" y="121"/>
      <point x="250" y="111"/>
      <point x="265" y="104" type="curve" smooth="yes"/>
      <point x="280" y="97"/>
      <point x="298" y="93"/>
      <point x="319" y="93" type="curve" smooth="yes"/>
      <point x="344" y="93"/>
      <point x="369" y="98"/>
      <point x="392" y="108" type="curve" smooth="yes"/>
      <point x="415" y="118"/>
      <point x="437" y="136"/>
      <point x="460" y="160" type="curve"/>
      <point x="464" y="136"/>
      <point x="474" y="119"/>
      <point x="491" y="108" type="curve" smooth="yes"/>
      <point x="508" y="97"/>
      <point x="527" y="92"/>
      <point x="550" y="92" type="curve" smooth="yes"/>
    </contour>
    <contour>
      <point x="335" y="172"/>
      <point x="323" y="178"/>
      <point x="315" y="190" type="curve" smooth="yes"/>
      <point x="307" y="202"/>
      <point x="304" y="219"/>
      <point x="307" y="240" type="curve" smooth="yes"/>
      <point x="310" y="261"/>
      <point x="316" y="281"/>
      <point x="326" y="301" type="curve" smooth="yes"/>
      <point x="336" y="321"/>
      <point x="349" y="339"/>
      <point x="364" y="354" type="curve" smooth="yes"/>
      <point x="379" y="369"/>
      <point x="396" y="382"/>
      <point x="415" y="391" type="curve" smooth="yes"/>
      <point x="434" y="400"/>
      <point x="454" y="404"/>
      <point x="475" y="404" type="curve" smooth="yes"/>
      <point x="486" y="404"/>
      <point x="497" y="403"/>
      <point x="507" y="401" type="curve"/>
      <point x="454" y="260" type="line" smooth="yes"/>
      <point x="448" y="243"/>
      <point x="440" y="229"/>
      <point x="432" y="218" type="curve" smooth="yes"/>
      <point x="424" y="207"/>
      <point x="416" y="197"/>
      <point x="407" y="190" type="curve" smooth="yes"/>
      <point x="398" y="183"/>
      <point x="389" y="179"/>
      <point x="380" y="176" type="curve" smooth="yes"/>
      <point x="371" y="173"/>
      <point x="362" y="172"/>
      <point x="353" y="172" type="curve" smooth="yes"/>
    </contour>
  </outline>
</glyph>
<glyph name="B" format="1">
  <advance width="695"/>
  <unicode hex="0042"/>
  <note>
    B
  </note>
  <outline>
    <contour>
      <point x="551" y="382"/>
      <point x="571" y="391"/>
      <point x="589" y="402" type="curve" smooth="yes"/>
      <point x="607" y="413"/>
      <point x="621" y="424"/>
      <point x="633" y="438" type="curve"/>
      <point x="645" y="451"/>
      <point x="655" y="466"/>
      <point x="662" y="482" type="curve" smooth="yes"/>
      <point x="669" y="498"/>
      <point x="673" y="514"/>
      <point x="675" y="531" type="curve" smooth="yes"/>
      <point x="679" y="561"/>
      <point x="677" y="586"/>
      <point x="670" y="610" type="curve" smooth="yes"/>
      <point x="663" y="634"/>
      <point x="649" y="654"/>
      <point x="630" y="671" type="curve" smooth="yes"/>
      <point x="611" y="688"/>
      <point x="585" y="700"/>
      <point x="553" y="709" type="curve" smooth="yes"/>
      <point x="521" y="718"/>
      <point x="480" y="723"/>
      <point x="433" y="723" type="curve" smooth="yes"/>
      <point x="184" y="723" type="line"/>
      <point x="108" y="723" type="line"/>
      <point x="101" y="664" type="line" smooth="yes"/>
      <point x="99" y="647"/>
      <point x="106" y="637"/>
      <point x="122" y="633" type="curve"/>
      <point x="123" y="633"/>
      <point x="125" y="633"/>
      <point x="128" y="632" type="curve"/>
      <point x="131" y="632"/>
      <point x="135" y="630"/>
      <point x="142" y="629" type="curve" smooth="yes"/>
      <point x="149" y="628"/>
      <point x="159" y="626"/>
      <point x="171" y="624" type="curve"/>
      <point x="107" y="99" type="line"/>
      <point x="94" y="97"/>
      <point x="84" y="95"/>
      <point x="77" y="94" type="curve" smooth="yes"/>
      <point x="70" y="93"/>
      <point x="64" y="91"/>
      <point x="61" y="91" type="curve" smooth="yes"/>
      <point x="58" y="91"/>
      <point x="57" y="90"/>
      <point x="55" y="90" type="curve"/>
      <point x="38" y="86"/>
      <point x="28" y="76"/>
      <point x="26" y="59" type="curve" smooth="yes"/>
      <point x="19" y="0" type="line"/>
      <point x="95" y="0" type="line"/>
      <point x="368" y="0" type="line" smooth="yes"/>
      <point x="410" y="0"/>
      <point x="448" y="5"/>
      <point x="482" y="16" type="curve" smooth="yes"/>
      <point x="516" y="27"/>
      <point x="545" y="41"/>
      <point x="570" y="60" type="curve" smooth="yes"/>
      <point x="595" y="79"/>
      <point x="614" y="102"/>
      <point x="629" y="128" type="curve" smooth="yes"/>
      <point x="644" y="154"/>
      <point x="653" y="182"/>
      <point x="657" y="213" type="curve" smooth="yes"/>
      <point x="667" y="298"/>
      <point x="625" y="352"/>
      <point x="528" y="374" type="curve"/>
    </contour>
    <contour>
      <point x="305" y="619" type="line"/>
      <point x="420" y="619" type="line" smooth="yes"/>
      <point x="465" y="619"/>
      <point x="498" y="611"/>
      <point x="517" y="595" type="curve" smooth="yes"/>
      <point x="536" y="579"/>
      <point x="544" y="552"/>
      <point x="539" y="514" type="curve" smooth="yes"/>
      <point x="535" y="478"/>
      <point x="520" y="452"/>
      <point x="494" y="435" type="curve" smooth="yes"/>
      <point x="468" y="418"/>
      <point x="433" y="410"/>
      <point x="387" y="410" type="curve" smooth="yes"/>
      <point x="280" y="410" type="line"/>
    </contour>
    <contour>
      <point x="506" y="160"/>
      <point x="497" y="148"/>
      <point x="486" y="138" type="curve" smooth="yes"/>
      <point x="475" y="128"/>
      <point x="460" y="120"/>
      <point x="442" y="114" type="curve" smooth="yes"/>
      <point x="424" y="108"/>
      <point x="404" y="105"/>
      <point x="379" y="105" type="curve" smooth="yes"/>
      <point x="242" y="105" type="line"/>
      <point x="268" y="317" type="line"/>
      <point x="404" y="317" type="line" smooth="yes"/>
      <point x="428" y="317"/>
      <point x="448" y="315"/>
      <point x="464" y="310" type="curve" smooth="yes"/>
      <point x="480" y="305"/>
      <point x="492" y="299"/>
      <point x="502" y="290" type="curve" smooth="yes"/>
      <point x="512" y="281"/>
      <point x="519" y="270"/>
      <point x="522" y="258" type="curve" smooth="yes"/>
      <point x="525" y="245"/>
      <point x="526" y="232"/>
      <point x="524" y="216" type="curve" smooth="yes"/>
      <point x="522" y="201"/>
      <point x="518" y="186"/>
      <point x="512" y="173" type="curve" smooth="yes"/>
    </contour>
    <contour>
      <point x="348" y="723" type="move" name="top"/>
    </contour>
    <contour>
      <point x="348" y="0" type="move" name="bottom"/>
    </contour>
  </outline>
</glyph>
<glyph name="C" format="1">
  <advance width="679"/>
  <unicode hex="0043"/>
  <note>
    C
  </note>
  <outline>
    <contour>
      <point x="638" y="495" type="line"/>
      <point x="660" y="679" type="line"/>
      <point x="573" y="714"/>
      <point x="500" y="731"/>
      <point x="440" y="731" type="curve" smooth="yes"/>
      <point x="385" y="731"/>
      <point x="334" y="722"/>
      <point x="286" y="704" type="curve" smooth="yes"/>
      <point x="238" y="686"/>
      <point x="196" y="660"/>
      <point x="159" y="627" type="curve" smooth="yes"/>
      <point x="122" y="594"/>
      <point x="93" y="556"/>
      <point x="69" y="511" type="curve" smooth="yes"/>
      <point x="45" y="466"/>
      <point x="31" y="415"/>
      <point x="24" y="361" type="curve" smooth="yes"/>
      <point x="17" y="307"/>
      <point x="19" y="258"/>
      <point x="30" y="213" type="curve" smooth="yes"/>
      <point x="41" y="168"/>
      <point x="59" y="129"/>
      <point x="85" y="96" type="curve" smooth="yes"/>
      <point x="111" y="63"/>
      <point x="145" y="38"/>
      <point x="186" y="20" type="curve" smooth="yes"/>
      <point x="227" y="2"/>
      <point x="273" y="-8"/>
      <point x="327" y="-8" type="curve" smooth="yes"/>
      <point x="387" y="-8"/>
      <point x="440" y="2"/>
      <point x="485" y="21" type="curve" smooth="yes"/>
      <point x="530" y="40"/>
      <point x="569" y="68"/>
      <point x="603" y="104" type="curve"/>
      <point x="557" y="162" type="line" smooth="yes"/>
      <point x="552" y="168"/>
      <point x="546" y="170"/>
      <point x="539" y="170" type="curve" smooth="yes"/>
      <point x="535" y="170"/>
      <point x="531" y="170"/>
      <point x="527" y="168" type="curve" smooth="yes"/>
      <point x="523" y="166"/>
      <point x="520" y="164"/>
      <point x="516" y="161" type="curve"/>
      <point x="504" y="151"/>
      <point x="491" y="142"/>
      <point x="479" y="135" type="curve" smooth="yes"/>
      <point x="467" y="128"/>
      <point x="455" y="122"/>
      <point x="442" y="118" type="curve" smooth="yes"/>
      <point x="429" y="114"/>
      <point x="415" y="111"/>
      <point x="400" y="109" type="curve" smooth="yes"/>
      <point x="385" y="107"/>
      <point x="367" y="106"/>
      <point x="349" y="106" type="curve" smooth="yes"/>
      <point x="318" y="106"/>
      <point x="291" y="111"/>
      <point x="266" y="123" type="curve" smooth="yes"/>
      <point x="241" y="135"/>
      <point x="219" y="151"/>
      <point x="202" y="173" type="curve" smooth="yes"/>
      <point x="185" y="195"/>
      <point x="173" y="221"/>
      <point x="165" y="253" type="curve" smooth="yes"/>
      <point x="157" y="285"/>
      <point x="156" y="320"/>
      <point x="161" y="361" type="curve" smooth="yes"/>
      <point x="166" y="400"/>
      <point x="177" y="436"/>
      <point x="192" y="468" type="curve" smooth="yes"/>
      <point x="207" y="500"/>
      <point x="226" y="526"/>
      <point x="249" y="548" type="curve" smooth="yes"/>
      <point x="272" y="570"/>
      <point x="299" y="587"/>
      <point x="329" y="599" type="curve" smooth="yes"/>
      <point x="359" y="611"/>
      <point x="391" y="616"/>
      <point x="425" y="616" type="curve" smooth="yes"/>
      <point x="463" y="616"/>
      <point x="507" y="609"/>
      <point x="560" y="593" type="curve"/>
      <point x="559" y="549"/>
      <point x="559" y="522"/>
      <point x="559" y="513" type="curve"/>
      <point x="560" y="501"/>
      <point x="567" y="495"/>
      <point x="580" y="495" type="curve" smooth="yes"/>
    </contour>
    <contour>
      <point x="340" y="723" type="move" name="top"/>
    </contour>
    <contour>
      <point x="340" y="0" type="move" name="bottom"/>
    </contour>
  </outline>
</glyph>
<glyph name="D" format="1">
  <advance width="794"/>
  <unicode hex="0044"/>
  <note>
    D
  </note>
  <outline>
    <contour>
      <point x="750" y="552"/>
      <point x="729" y="590"/>
      <point x="701" y="622" type="curve" smooth="yes"/>
      <point x="673" y="654"/>
      <point x="638" y="678"/>
      <point x="595" y="696" type="curve" smooth="yes"/>
      <point x="552" y="714"/>
      <point x="504" y="723"/>
      <point x="449" y="723" type="curve" smooth="yes"/>
      <point x="184" y="723" type="line"/>
      <point x="108" y="723" type="line"/>
      <point x="101" y="664" type="line" smooth="yes"/>
      <point x="99" y="647"/>
      <point x="106" y="637"/>
      <point x="122" y="633" type="curve"/>
      <point x="123" y="633"/>
      <point x="125" y="632"/>
      <point x="128" y="632" type="curve" smooth="yes"/>
      <point x="131" y="632"/>
      <point x="135" y="630"/>
      <point x="142" y="629" type="curve" smooth="yes"/>
      <point x="149" y="628"/>
      <point x="159" y="626"/>
      <point x="171" y="624" type="curve"/>
      <point x="107" y="99" type="line"/>
      <point x="94" y="97"/>
      <point x="84" y="95"/>
      <point x="77" y="94" type="curve" smooth="yes"/>
      <point x="70" y="93"/>
      <point x="64" y="91"/>
      <point x="61" y="91" type="curve" smooth="yes"/>
      <point x="58" y="91"/>
      <point x="57" y="90"/>
      <point x="55" y="90" type="curve"/>
      <point x="38" y="86"/>
      <point x="28" y="76"/>
      <point x="26" y="59" type="curve" smooth="yes"/>
      <point x="19" y="0" type="line"/>
      <point x="95" y="0" type="line"/>
      <point x="360" y="0" type="line" smooth="yes"/>
      <point x="415" y="0"/>
      <point x="466" y="9"/>
      <point x="513" y="27" type="curve" smooth="yes"/>
      <point x="560" y="45"/>
      <point x="601" y="69"/>
      <point x="637" y="101" type="curve" smooth="yes"/>
      <point x="673" y="133"/>
      <point x="703" y="172"/>
      <point x="726" y="216" type="curve" smooth="yes"/>
      <point x="749" y="260"/>
      <point x="763" y="309"/>
      <point x="770" y="362" type="curve" smooth="yes"/>
      <point x="777" y="415"/>
      <point x="774" y="464"/>
      <point x="762" y="508" type="curve" smooth="yes"/>
    </contour>
    <contour>
      <point x="589" y="223"/>
      <point x="570" y="197"/>
      <point x="548" y="175" type="curve" smooth="yes"/>
      <point x="526" y="153"/>
      <point x="500" y="137"/>
      <point x="470" y="125" type="curve" smooth="yes"/>
      <point x="440" y="113"/>
      <point x="408" y="107"/>
      <point x="373" y="107" type="curve" smooth="yes"/>
      <point x="243" y="107" type="line"/>
      <point x="306" y="616" type="line"/>
      <point x="436" y="616" type="line" smooth="yes"/>
      <point x="471" y="616"/>
      <point x="502" y="610"/>
      <point x="529" y="598" type="curve" smooth="yes"/>
      <point x="556" y="586"/>
      <point x="577" y="570"/>
      <point x="594" y="548" type="curve" smooth="yes"/>
      <point x="611" y="526"/>
      <point x="623" y="499"/>
      <point x="630" y="468" type="curve" smooth="yes"/>
      <point x="637" y="436"/>
      <point x="638" y="402"/>
      <point x="633" y="362" type="curve" smooth="yes"/>
      <point x="628" y="322"/>
      <point x="619" y="287"/>
      <point x="604" y="255" type="curve" smooth="yes"/>
    </contour>
    <contour>
      <point x="397" y="362" type="move" name="center"/>
    </contour>
    <contour>
      <point x="397" y="0" type="move" name="bottom"/>
    </contour>
    <contour>
      <point x="397" y="723" type="move" name="top"/>
    </contour>
  </outline>
</glyph>
<glyph name="G" format="1">
  <advance width="713"/>
  <unicode hex="0047"/>
  <note>
    G
  </note>
  <outline>
    <contour>
      <point x="423" y="362" type="line"/>
      <point x="413" y="286" type="line" smooth="yes"/>
      <point x="412" y="279"/>
      <point x="414" y="274"/>
      <point x="418" y="269" type="curve" smooth="yes"/>
      <point x="422" y="264"/>
      <point x="429" y="261"/>
      <point x="438" y="261" type="curve" smooth="yes"/>
      <point x="529" y="261" type="line"/>
      <point x="512" y="130" type="line"/>
      <point x="490" y="120"/>
      <point x="468" y="112"/>
      <point x="445" y="107" type="curve" smooth="yes"/>
      <point x="422" y="102"/>
      <point x="395" y="99"/>
      <point x="365" y="99" type="curve" smooth="yes"/>
      <point x="331" y="99"/>
      <point x="300" y="105"/>
      <point x="272" y="117" type="curve" smooth="yes"/>
      <point x="244" y="129"/>
      <point x="222" y="146"/>
      <point x="204" y="168" type="curve" smooth="yes"/>
      <point x="186" y="190"/>
      <point x="173" y="217"/>
      <point x="165" y="250" type="curve" smooth="yes"/>
      <point x="157" y="282"/>
      <point x="156" y="320"/>
      <point x="161" y="362" type="curve" smooth="yes"/>
      <point x="166" y="401"/>
      <point x="175" y="436"/>
      <point x="190" y="467" type="curve" smooth="yes"/>
      <point x="205" y="498"/>
      <point x="224" y="525"/>
      <point x="247" y="547" type="curve" smooth="yes"/>
      <point x="270" y="569"/>
      <point x="297" y="587"/>
      <point x="327" y="599" type="curve" smooth="yes"/>
      <point x="357" y="611"/>
      <point x="390" y="616"/>
      <point x="426" y="616" type="curve" smooth="yes"/>
      <point x="490" y="616"/>
      <point x="546" y="608"/>
      <point x="594" y="591" type="curve"/>
      <point x="593" y="548"/>
      <point x="593" y="522"/>
      <point x="593" y="513" type="curve"/>
      <point x="594" y="501"/>
      <point x="601" y="495"/>
      <point x="614" y="495" type="curve" smooth="yes"/>
      <point x="655" y="495" type="line"/>
      <point x="667" y="495" type="line"/>
      <point x="672" y="495" type="line"/>
      <point x="694" y="679" type="line"/>
      <point x="605" y="713"/>
      <point x="523" y="731"/>
      <point x="445" y="731" type="curve" smooth="yes"/>
      <point x="444" y="731" type="line"/>
      <point x="438" y="731" type="line" smooth="yes"/>
      <point x="383" y="730"/>
      <point x="331" y="721"/>
      <point x="285" y="704" type="curve" smooth="yes"/>
      <point x="236" y="686"/>
      <point x="195" y="661"/>
      <point x="158" y="628" type="curve" smooth="yes"/>
      <point x="121" y="595"/>
      <point x="91" y="556"/>
      <point x="68" y="511" type="curve" smooth="yes"/>
      <point x="45" y="466"/>
      <point x="30" y="416"/>
      <point x="23" y="362" type="curve" smooth="yes"/>
      <point x="16" y="308"/>
      <point x="19" y="258"/>
      <point x="32" y="213" type="curve" smooth="yes"/>
      <point x="45" y="168"/>
      <point x="66" y="129"/>
      <point x="94" y="96" type="curve" smooth="yes"/>
      <point x="122" y="63"/>
      <point x="157" y="38"/>
      <point x="199" y="20" type="curve" smooth="yes"/>
      <point x="241" y="2"/>
      <point x="289" y="-8"/>
      <point x="342" y="-8" type="curve" smooth="yes"/>
      <point x="372" y="-8"/>
      <point x="399" y="-6"/>
      <point x="425" y="-3" type="curve" smooth="yes"/>
      <point x="451" y="0"/>
      <point x="476" y="5"/>
      <point x="499" y="11" type="curve" smooth="yes"/>
      <point x="522" y="17"/>
      <point x="545" y="25"/>
      <point x="566" y="35" type="curve" smooth="yes"/>
      <point x="587" y="45"/>
      <point x="607" y="57"/>
      <point x="627" y="70" type="curve"/>
      <point x="663" y="362" type="line"/>
    </contour>
    <contour>
      <point x="357" y="723" type="move" name="top"/>
    </contour>
    <contour>
      <point x="357" y="0" type="move" name="bottom"/>
    </contour>
  </outline>
</glyph>
<glyph name="J" format="1">
  <advance width="546"/>
  <unicode hex="004A"/>
  <note>
    J
  </note>
  <outline>
    <contour>
      <point x="452" y="723" type="line"/>
      <point x="318" y="723" type="line"/>
      <point x="232" y="723" type="line"/>
      <point x="225" y="664" type="line" smooth="yes"/>
      <point x="223" y="647"/>
      <point x="230" y="637"/>
      <point x="246" y="633" type="curve"/>
      <point x="247" y="633"/>
      <point x="251" y="632"/>
      <point x="255" y="632" type="curve" smooth="yes"/>
      <point x="259" y="632"/>
      <point x="265" y="630"/>
      <point x="274" y="629" type="curve" smooth="yes"/>
      <point x="283" y="628"/>
      <point x="293" y="626"/>
      <point x="305" y="624" type="curve"/>
      <point x="260" y="254" type="line" smooth="yes"/>
      <point x="257" y="227"/>
      <point x="251" y="203"/>
      <point x="244" y="184" type="curve" smooth="yes"/>
      <point x="237" y="165"/>
      <point x="227" y="150"/>
      <point x="216" y="138" type="curve" smooth="yes"/>
      <point x="205" y="126"/>
      <point x="191" y="116"/>
      <point x="176" y="111" type="curve"/>
      <point x="161" y="105"/>
      <point x="143" y="103"/>
      <point x="124" y="103" type="curve" smooth="yes"/>
      <point x="110" y="103"/>
      <point x="99" y="105"/>
      <point x="90" y="107" type="curve" smooth="yes"/>
      <point x="81" y="109"/>
      <point x="74" y="110"/>
      <point x="68" y="110" type="curve" smooth="yes"/>
      <point x="59" y="110"/>
      <point x="51" y="107"/>
      <point x="46" y="103" type="curve"/>
      <point x="41" y="98"/>
      <point x="38" y="93"/>
      <point x="36" y="86" type="curve"/>
      <point x="19" y="6" type="line"/>
      <point x="37" y="1"/>
      <point x="55" y="-3"/>
      <point x="72" y="-5" type="curve" smooth="yes"/>
      <point x="89" y="-7"/>
      <point x="107" y="-8"/>
      <point x="125" y="-8" type="curve" smooth="yes"/>
      <point x="164" y="-8"/>
      <point x="200" y="-1"/>
      <point x="231" y="11" type="curve" smooth="yes"/>
      <point x="262" y="23"/>
      <point x="288" y="41"/>
      <point x="311" y="64" type="curve" smooth="yes"/>
      <point x="334" y="87"/>
      <point x="352" y="114"/>
      <point x="366" y="147" type="curve" smooth="yes"/>
      <point x="380" y="180"/>
      <point x="390" y="216"/>
      <point x="395" y="257" type="curve" smooth="yes"/>
      <point x="440" y="624" type="line"/>
      <point x="453" y="626"/>
      <point x="463" y="628"/>
      <point x="470" y="629" type="curve" smooth="yes"/>
      <point x="477" y="630"/>
      <point x="482" y="632"/>
      <point x="485" y="632" type="curve" smooth="yes"/>
      <point x="488" y="632"/>
      <point x="491" y="633"/>
      <point x="492" y="633" type="curve"/>
      <point x="509" y="637"/>
      <point x="519" y="647"/>
      <point x="521" y="664" type="curve" smooth="yes"/>
      <point x="528" y="723" type="line"/>
    </contour>
    <contour>
      <point x="273" y="723" type="move" name="top"/>
    </contour>
    <contour>
      <point x="273" y="0" type="move" name="bottom"/>
    </contour>
  </outline>
</glyph>
<glyph name="L" format="1">
  <advance width="584"/>
  <unicode hex="004C"/>
  <note>
    L
  </note>
  <outline>
    <contour>
      <point x="511" y="173" type="line" smooth="yes"/>
      <point x="498" y="173"/>
      <point x="489" y="166"/>
      <point x="485" y="154" type="curve"/>
      <point x="484" y="150"/>
      <point x="481" y="136"/>
      <point x="476" y="111" type="curve"/>
      <point x="243" y="111" type="line"/>
      <point x="306" y="624" type="line"/>
      <point x="319" y="626"/>
      <point x="329" y="628"/>
      <point x="336" y="629" type="curve" smooth="yes"/>
      <point x="343" y="630"/>
      <point x="348" y="631"/>
      <point x="351" y="632" type="curve" smooth="yes"/>
      <point x="354" y="633"/>
      <point x="357" y="633"/>
      <point x="358" y="633" type="curve"/>
      <point x="375" y="637"/>
      <point x="384" y="647"/>
      <point x="386" y="664" type="curve" smooth="yes"/>
      <point x="394" y="723" type="line"/>
      <point x="318" y="723" type="line"/>
      <point x="184" y="723" type="line"/>
      <point x="108" y="723" type="line"/>
      <point x="101" y="664" type="line" smooth="yes"/>
      <point x="99" y="647"/>
      <point x="106" y="637"/>
      <point x="122" y="633" type="curve"/>
      <point x="123" y="633"/>
      <point x="125" y="633"/>
      <point x="128" y="632" type="curve"/>
      <point x="131" y="632"/>
      <point x="135" y="630"/>
      <point x="142" y="629" type="curve" smooth="yes"/>
      <point x="149" y="628"/>
      <point x="159" y="626"/>
      <point x="171" y="624" type="curve"/>
      <point x="107" y="99" type="line"/>
      <point x="94" y="97"/>
      <point x="84" y="95"/>
      <point x="77" y="94" type="curve" smooth="yes"/>
      <point x="70" y="93"/>
      <point x="64" y="91"/>
      <point x="61" y="91" type="curve"/>
      <point x="58" y="90"/>
      <point x="56" y="90"/>
      <point x="55" y="90" type="curve"/>
      <point x="38" y="86"/>
      <point x="28" y="76"/>
      <point x="26" y="59" type="curve" smooth="yes"/>
      <point x="19" y="0" type="line"/>
      <point x="95" y="0" type="line"/>
      <point x="516" y="0" type="line"/>
      <point x="519" y="0" type="line"/>
      <point x="543" y="0" type="line"/>
      <point x="549" y="53" type="line"/>
      <point x="552" y="72" type="line"/>
      <point x="564" y="173" type="line"/>
    </contour>
    <contour>
      <point x="292" y="0" type="move" name="bottom"/>
    </contour>
    <contour>
      <point x="292" y="723" type="move" name="top"/>
    </contour>
    <contour>
      <point x="564" y="723" type="move" name="topright"/>
    </contour>
    <contour>
      <point x="292" y="362" type="move" name="center"/>
    </contour>
  </outline>
</glyph>
<glyph name="M" format="1">
  <advance width="1062"/>
  <unicode hex="004D"/>
  <note>
    M
  </note>
  <outline>
    <contour>
      <point x="1024" y="637"/>
      <point x="1034" y="647"/>
      <point x="1036" y="664" type="curve" smooth="yes"/>
      <point x="1043" y="723" type="line"/>
      <point x="968" y="723" type="line"/>
      <point x="866" y="723" type="line" smooth="yes"/>
      <point x="860" y="723"/>
      <point x="854" y="722"/>
      <point x="850" y="722" type="curve" smooth="yes"/>
      <point x="846" y="722"/>
      <point x="842" y="721"/>
      <point x="838" y="720" type="curve" smooth="yes"/>
      <point x="834" y="719"/>
      <point x="831" y="716"/>
      <point x="828" y="713" type="curve" smooth="yes"/>
      <point x="825" y="710"/>
      <point x="821" y="706"/>
      <point x="818" y="701" type="curve"/>
      <point x="555" y="301" type="line" smooth="yes"/>
      <point x="548" y="290"/>
      <point x="541" y="280"/>
      <point x="535" y="268" type="curve"/>
      <point x="528" y="256"/>
      <point x="522" y="244"/>
      <point x="516" y="232" type="curve"/>
      <point x="513" y="244"/>
      <point x="509" y="256"/>
      <point x="506" y="267" type="curve" smooth="yes"/>
      <point x="503" y="278"/>
      <point x="499" y="289"/>
      <point x="495" y="300" type="curve"/>
      <point x="328" y="701" type="line" smooth="yes"/>
      <point x="326" y="706"/>
      <point x="324" y="710"/>
      <point x="321" y="713" type="curve" smooth="yes"/>
      <point x="318" y="716"/>
      <point x="315" y="719"/>
      <point x="312" y="720" type="curve" smooth="yes"/>
      <point x="309" y="721"/>
      <point x="304" y="722"/>
      <point x="300" y="722" type="curve" smooth="yes"/>
      <point x="296" y="722"/>
      <point x="291" y="723"/>
      <point x="285" y="723" type="curve" smooth="yes"/>
      <point x="184" y="723" type="line"/>
      <point x="108" y="723" type="line"/>
      <point x="101" y="664" type="line" smooth="yes"/>
      <point x="99" y="647"/>
      <point x="106" y="637"/>
      <point x="122" y="633" type="curve"/>
      <point x="123" y="633"/>
      <point x="125" y="633"/>
      <point x="128" y="632" type="curve"/>
      <point x="131" y="632"/>
      <point x="135" y="630"/>
      <point x="142" y="629" type="curve" smooth="yes"/>
      <point x="149" y="628"/>
      <point x="159" y="626"/>
      <point x="171" y="624" type="curve"/>
      <point x="107" y="99" type="line"/>
      <point x="94" y="97"/>
      <point x="84" y="95"/>
      <point x="77" y="94" type="curve" smooth="yes"/>
      <point x="70" y="93"/>
      <point x="64" y="92"/>
      <point x="61" y="91" type="curve"/>
      <point x="58" y="91"/>
      <point x="56" y="90"/>
      <point x="55" y="90" type="curve"/>
      <point x="38" y="86"/>
      <point x="28" y="76"/>
      <point x="26" y="59" type="curve" smooth="yes"/>
      <point x="19" y="0" type="line"/>
      <point x="95" y="0" type="line"/>
      <point x="213" y="0" type="line"/>
      <point x="303" y="0" type="line"/>
      <point x="311" y="59" type="line" smooth="yes"/>
      <point x="313" y="76"/>
      <point x="305" y="86"/>
      <point x="289" y="90" type="curve"/>
      <point x="287" y="90"/>
      <point x="266" y="93"/>
      <point x="225" y="99" type="curve"/>
      <point x="271" y="467" type="line" smooth="yes"/>
      <point x="272" y="476"/>
      <point x="272" y="486"/>
      <point x="273" y="496" type="curve" smooth="yes"/>
      <point x="274" y="507"/>
      <point x="275" y="517"/>
      <point x="275" y="528" type="curve"/>
      <point x="446" y="117" type="line" smooth="yes"/>
      <point x="450" y="108"/>
      <point x="455" y="100"/>
      <point x="462" y="95" type="curve" smooth="yes"/>
      <point x="469" y="90"/>
      <point x="478" y="87"/>
      <point x="489" y="87" type="curve" smooth="yes"/>
      <point x="508" y="87" type="line" smooth="yes"/>
      <point x="519" y="87"/>
      <point x="528" y="90"/>
      <point x="537" y="95" type="curve" smooth="yes"/>
      <point x="546" y="100"/>
      <point x="553" y="108"/>
      <point x="559" y="117" type="curve" smooth="yes"/>
      <point x="828" y="527" type="line"/>
      <point x="826" y="516"/>
      <point x="824" y="505"/>
      <point x="822" y="495" type="curve" smooth="yes"/>
      <point x="820" y="485"/>
      <point x="819" y="476"/>
      <point x="818" y="467" type="curve" smooth="yes"/>
      <point x="772" y="99" type="line"/>
      <point x="730" y="93"/>
      <point x="708" y="90"/>
      <point x="706" y="90" type="curve"/>
      <point x="689" y="86"/>
      <point x="679" y="76"/>
      <point x="677" y="59" type="curve" smooth="yes"/>
      <point x="670" y="0" type="line"/>
      <point x="760" y="0" type="line"/>
      <point x="879" y="0" type="line"/>
      <point x="954" y="0" type="line"/>
      <point x="962" y="59" type="line" smooth="yes"/>
      <point x="964" y="76"/>
      <point x="957" y="86"/>
      <point x="941" y="90" type="curve"/>
      <point x="940" y="90"/>
      <point x="937" y="91"/>
      <point x="934" y="91" type="curve" smooth="yes"/>
      <point x="931" y="91"/>
      <point x="927" y="93"/>
      <point x="920" y="94" type="curve" smooth="yes"/>
      <point x="913" y="95"/>
      <point x="903" y="97"/>
      <point x="891" y="99" type="curve"/>
      <point x="955" y="624" type="line"/>
      <point x="968" y="626"/>
      <point x="979" y="628"/>
      <point x="986" y="629" type="curve" smooth="yes"/>
      <point x="993" y="630"/>
      <point x="998" y="632"/>
      <point x="1001" y="632" type="curve" smooth="yes"/>
      <point x="1004" y="632"/>
      <point x="1006" y="633"/>
      <point x="1007" y="633" type="curve"/>
    </contour>
    <contour>
      <point x="531" y="723" type="move" name="top"/>
    </contour>
    <contour>
      <point x="531" y="0" type="move" name="bottom"/>
    </contour>
  </outline>
</glyph>
<glyph name="N" format="1">
  <advance width="888"/>
  <unicode hex="004E"/>
  <note>
    N
  </note>
  <outline>
    <contour>
      <point x="794" y="723" type="line"/>
      <point x="675" y="723" type="line"/>
      <point x="585" y="723" type="line"/>
      <point x="578" y="664" type="line" smooth="yes"/>
      <point x="576" y="647"/>
      <point x="583" y="637"/>
      <point x="599" y="633" type="curve"/>
      <point x="601" y="633"/>
      <point x="622" y="630"/>
      <point x="663" y="624" type="curve"/>
      <point x="621" y="284" type="line" smooth="yes"/>
      <point x="620" y="274"/>
      <point x="619" y="263"/>
      <point x="618" y="252" type="curve" smooth="yes"/>
      <point x="617" y="241"/>
      <point x="617" y="230"/>
      <point x="617" y="218" type="curve"/>
      <point x="296" y="701" type="line"/>
      <point x="293" y="706"/>
      <point x="291" y="710"/>
      <point x="288" y="713" type="curve" smooth="yes"/>
      <point x="285" y="716"/>
      <point x="282" y="718"/>
      <point x="279" y="719" type="curve"/>
      <point x="276" y="721"/>
      <point x="273" y="722"/>
      <point x="269" y="722" type="curve" smooth="yes"/>
      <point x="265" y="722"/>
      <point x="260" y="723"/>
      <point x="254" y="723" type="curve" smooth="yes"/>
      <point x="184" y="723" type="line"/>
      <point x="108" y="723" type="line"/>
      <point x="101" y="664" type="line" smooth="yes"/>
      <point x="99" y="647"/>
      <point x="106" y="637"/>
      <point x="122" y="633" type="curve"/>
      <point x="123" y="633"/>
      <point x="125" y="632"/>
      <point x="128" y="632" type="curve" smooth="yes"/>
      <point x="131" y="632"/>
      <point x="135" y="630"/>
      <point x="142" y="629" type="curve" smooth="yes"/>
      <point x="149" y="628"/>
      <point x="159" y="626"/>
      <point x="171" y="624" type="curve"/>
      <point x="107" y="99" type="line"/>
      <point x="94" y="97"/>
      <point x="84" y="95"/>
      <point x="77" y="94" type="curve" smooth="yes"/>
      <point x="70" y="93"/>
      <point x="64" y="92"/>
      <point x="61" y="91" type="curve" smooth="yes"/>
      <point x="58" y="90"/>
      <point x="56" y="90"/>
      <point x="55" y="90" type="curve"/>
      <point x="38" y="86"/>
      <point x="28" y="76"/>
      <point x="26" y="59" type="curve" smooth="yes"/>
      <point x="19" y="0" type="line"/>
      <point x="95" y="0" type="line"/>
      <point x="213" y="0" type="line"/>
      <point x="303" y="0" type="line"/>
      <point x="311" y="59" type="line" smooth="yes"/>
      <point x="313" y="76"/>
      <point x="305" y="86"/>
      <point x="289" y="90" type="curve"/>
      <point x="287" y="90"/>
      <point x="266" y="93"/>
      <point x="225" y="99" type="curve"/>
      <point x="268" y="444" type="line" smooth="yes"/>
      <point x="269" y="453"/>
      <point x="270" y="463"/>
      <point x="271" y="473" type="curve" smooth="yes"/>
      <point x="272" y="483"/>
      <point x="272" y="493"/>
      <point x="272" y="504" type="curve"/>
      <point x="591" y="23" type="line" smooth="yes"/>
      <point x="597" y="14"/>
      <point x="602" y="8"/>
      <point x="609" y="5" type="curve" smooth="yes"/>
      <point x="616" y="2"/>
      <point x="624" y="0"/>
      <point x="635" y="0" type="curve" smooth="yes"/>
      <point x="705" y="0" type="line"/>
      <point x="781" y="624" type="line"/>
      <point x="794" y="626"/>
      <point x="805" y="628"/>
      <point x="812" y="629" type="curve" smooth="yes"/>
      <point x="819" y="630"/>
      <point x="824" y="632"/>
      <point x="827" y="632" type="curve" smooth="yes"/>
      <point x="830" y="632"/>
      <point x="831" y="633"/>
      <point x="833" y="633" type="curve"/>
      <point x="850" y="637"/>
      <point x="860" y="647"/>
      <point x="862" y="664" type="curve" smooth="yes"/>
      <point x="869" y="723" type="line"/>
    </contour>
    <contour>
      <point x="444" y="723" type="move" name="top"/>
    </contour>
    <contour>
      <point x="444" y="0" type="move" name="bottom"/>
    </contour>
  </outline>
</glyph>
<glyph name="O" format="1">
  <advance width="780"/>
  <unicode hex="004F"/>
  <note>
    O
  </note>
  <outline>
    <contour>
      <point x="763" y="415"/>
      <point x="760" y="464"/>
      <point x="748" y="509" type="curve" smooth="yes"/>
      <point x="736" y="554"/>
      <point x="716" y="593"/>
      <point x="688" y="626" type="curve" smooth="yes"/>
      <point x="660" y="659"/>
      <point x="625" y="684"/>
      <point x="582" y="703" type="curve" smooth="yes"/>
      <point x="539" y="722"/>
      <point x="491" y="731"/>
      <point x="436" y="731" type="curve" smooth="yes"/>
      <point x="381" y="731"/>
      <point x="330" y="721"/>
      <point x="283" y="703" type="curve" smooth="yes"/>
      <point x="236" y="685"/>
      <point x="193" y="659"/>
      <point x="157" y="626" type="curve" smooth="yes"/>
      <point x="121" y="593"/>
      <point x="91" y="554"/>
      <point x="68" y="509" type="curve" smooth="yes"/>
      <point x="45" y="464"/>
      <point x="30" y="415"/>
      <point x="23" y="362" type="curve" smooth="yes"/>
      <point x="16" y="309"/>
      <point x="20" y="259"/>
      <point x="32" y="214" type="curve" smooth="yes"/>
      <point x="44" y="169"/>
      <point x="64" y="130"/>
      <point x="92" y="97" type="curve" smooth="yes"/>
      <point x="120" y="64"/>
      <point x="156" y="38"/>
      <point x="199" y="20" type="curve" smooth="yes"/>
      <point x="242" y="2"/>
      <point x="290" y="-8"/>
      <point x="345" y="-8" type="curve" smooth="yes"/>
      <point x="400" y="-8"/>
      <point x="451" y="2"/>
      <point x="498" y="20" type="curve" smooth="yes"/>
      <point x="545" y="38"/>
      <point x="587" y="64"/>
      <point x="623" y="97" type="curve" smooth="yes"/>
      <point x="659" y="130"/>
      <point x="689" y="169"/>
      <point x="712" y="214" type="curve" smooth="yes"/>
      <point x="735" y="259"/>
      <point x="749" y="309"/>
      <point x="756" y="362" type="curve" smooth="yes"/>
    </contour>
    <contour>
      <point x="613" y="322"/>
      <point x="604" y="287"/>
      <point x="590" y="255" type="curve" smooth="yes"/>
      <point x="576" y="223"/>
      <point x="556" y="197"/>
      <point x="534" y="175" type="curve" smooth="yes"/>
      <point x="512" y="153"/>
      <point x="487" y="136"/>
      <point x="457" y="124" type="curve" smooth="yes"/>
      <point x="427" y="112"/>
      <point x="394" y="107"/>
      <point x="359" y="107" type="curve" smooth="yes"/>
      <point x="324" y="107"/>
      <point x="293" y="112"/>
      <point x="266" y="124" type="curve" smooth="yes"/>
      <point x="239" y="136"/>
      <point x="217" y="153"/>
      <point x="200" y="175" type="curve" smooth="yes"/>
      <point x="183" y="197"/>
      <point x="171" y="223"/>
      <point x="164" y="255" type="curve" smooth="yes"/>
      <point x="157" y="287"/>
      <point x="156" y="322"/>
      <point x="161" y="362" type="curve" smooth="yes"/>
      <point x="166" y="402"/>
      <point x="175" y="436"/>
      <point x="190" y="468" type="curve" smooth="yes"/>
      <point x="205" y="500"/>
      <point x="223" y="527"/>
      <point x="246" y="549" type="curve" smooth="yes"/>
      <point x="269" y="571"/>
      <point x="294" y="587"/>
      <point x="324" y="599" type="curve" smooth="yes"/>
      <point x="354" y="611"/>
      <point x="387" y="617"/>
      <point x="422" y="617" type="curve" smooth="yes"/>
      <point x="457" y="617"/>
      <point x="488" y="611"/>
      <point x="515" y="599" type="curve" smooth="yes"/>
      <point x="542" y="587"/>
      <point x="563" y="571"/>
      <point x="580" y="549" type="curve" smooth="yes"/>
      <point x="597" y="527"/>
      <point x="609" y="500"/>
      <point x="616" y="468" type="curve" smooth="yes"/>
      <point x="623" y="436"/>
      <point x="623" y="402"/>
      <point x="618" y="362" type="curve" smooth="yes"/>
    </contour>
    <contour>
      <point x="390" y="0" type="move" name="bottom"/>
    </contour>
    <contour>
      <point x="702" y="10" type="move" name="ogonek"/>
    </contour>
    <contour>
      <point x="390" y="723" type="move" name="top"/>
    </contour>
    <contour>
      <point x="760" y="723" type="move" name="topright"/>
    </contour>
    <contour>
      <point x="20" y="723" type="move" name="topleft"/>
    </contour>
    <contour>
      <point x="390" y="362" type="move" name="center"/>
    </contour>
  </outline>
</glyph>
<glyph name="P" format="1">
  <advance width="681"/>
  <unicode hex="0050"/>
  <note>
    P
  </note>
  <outline>
    <contour>
      <point x="646" y="613"/>
      <point x="633" y="638"/>
      <point x="612" y="658" type="curve" smooth="yes"/>
      <point x="591" y="678"/>
      <point x="565" y="695"/>
      <point x="531" y="706" type="curve" smooth="yes"/>
      <point x="497" y="717"/>
      <point x="455" y="723"/>
      <point x="407" y="723" type="curve" smooth="yes"/>
      <point x="184" y="723" type="line"/>
      <point x="108" y="723" type="line"/>
      <point x="101" y="664" type="line" smooth="yes"/>
      <point x="99" y="647"/>
      <point x="106" y="637"/>
      <point x="122" y="633" type="curve"/>
      <point x="123" y="633"/>
      <point x="125" y="633"/>
      <point x="128" y="632" type="curve"/>
      <point x="131" y="632"/>
      <point x="135" y="630"/>
      <point x="142" y="629" type="curve" smooth="yes"/>
      <point x="149" y="628"/>
      <point x="159" y="626"/>
      <point x="171" y="624" type="curve"/>
      <point x="107" y="99" type="line"/>
      <point x="94" y="97"/>
      <point x="84" y="95"/>
      <point x="77" y="94" type="curve" smooth="yes"/>
      <point x="70" y="93"/>
      <point x="64" y="92"/>
      <point x="61" y="91" type="curve"/>
      <point x="58" y="91"/>
      <point x="56" y="90"/>
      <point x="55" y="90" type="curve"/>
      <point x="38" y="86"/>
      <point x="28" y="76"/>
      <point x="26" y="59" type="curve" smooth="yes"/>
      <point x="19" y="0" type="line"/>
      <point x="95" y="0" type="line"/>
      <point x="229" y="0" type="line"/>
      <point x="305" y="0" type="line"/>
      <point x="312" y="59" type="line" smooth="yes"/>
      <point x="314" y="76"/>
      <point x="307" y="86"/>
      <point x="291" y="90" type="curve"/>
      <point x="290" y="90"/>
      <point x="288" y="91"/>
      <point x="285" y="91" type="curve" smooth="yes"/>
      <point x="282" y="91"/>
      <point x="277" y="93"/>
      <point x="270" y="94" type="curve" smooth="yes"/>
      <point x="263" y="95"/>
      <point x="253" y="97"/>
      <point x="241" y="99" type="curve"/>
      <point x="260" y="255" type="line"/>
      <point x="350" y="255" type="line" smooth="yes"/>
      <point x="397" y="255"/>
      <point x="439" y="260"/>
      <point x="475" y="272" type="curve" smooth="yes"/>
      <point x="511" y="284"/>
      <point x="542" y="300"/>
      <point x="568" y="321" type="curve" smooth="yes"/>
      <point x="594" y="342"/>
      <point x="615" y="367"/>
      <point x="630" y="396" type="curve" smooth="yes"/>
      <point x="645" y="425"/>
      <point x="655" y="457"/>
      <point x="659" y="492" type="curve" smooth="yes"/>
      <point x="663" y="526"/>
      <point x="662" y="557"/>
      <point x="654" y="585" type="curve" smooth="yes"/>
    </contour>
    <contour>
      <point x="501" y="420"/>
      <point x="490" y="406"/>
      <point x="477" y="395" type="curve"/>
      <point x="464" y="383"/>
      <point x="447" y="375"/>
      <point x="428" y="369" type="curve" smooth="yes"/>
      <point x="409" y="363"/>
      <point x="388" y="360"/>
      <point x="363" y="360" type="curve" smooth="yes"/>
      <point x="273" y="360" type="line"/>
      <point x="305" y="619" type="line"/>
      <point x="394" y="619" type="line" smooth="yes"/>
      <point x="419" y="619"/>
      <point x="440" y="616"/>
      <point x="458" y="610" type="curve" smooth="yes"/>
      <point x="476" y="604"/>
      <point x="489" y="596"/>
      <point x="500" y="585" type="curve" smooth="yes"/>
      <point x="511" y="574"/>
      <point x="518" y="561"/>
      <point x="522" y="545" type="curve" smooth="yes"/>
      <point x="526" y="529"/>
      <point x="527" y="512"/>
      <point x="525" y="493" type="curve" smooth="yes"/>
      <point x="523" y="473"/>
      <point x="517" y="453"/>
      <point x="509" y="437" type="curve" smooth="yes"/>
    </contour>
    <contour>
      <point x="341" y="723" type="move" name="top"/>
    </contour>
    <contour>
      <point x="341" y="0" type="move" name="bottom"/>
    </contour>
  </outline>
</glyph>
<glyph name="Q" format="1">
  <advance width="780"/>
  <unicode hex="0051"/>
  <note>
    Q
  </note>
  <outline>
    <contour>
      <point x="763" y="415"/>
      <point x="760" y="464"/>
      <point x="748" y="509" type="curve" smooth="yes"/>
      <point x="736" y="554"/>
      <point x="716" y="593"/>
      <point x="688" y="626" type="curve" smooth="yes"/>
      <point x="660" y="659"/>
      <point x="625" y="684"/>
      <point x="582" y="703" type="curve" smooth="yes"/>
      <point x="539" y="722"/>
      <point x="491" y="731"/>
      <point x="436" y="731" type="curve" smooth="yes"/>
      <point x="381" y="731"/>
      <point x="330" y="721"/>
      <point x="283" y="703" type="curve" smooth="yes"/>
      <point x="236" y="685"/>
      <point x="193" y="659"/>
      <point x="157" y="626" type="curve" smooth="yes"/>
      <point x="121" y="593"/>
      <point x="91" y="554"/>
      <point x="68" y="509" type="curve" smooth="yes"/>
      <point x="45" y="464"/>
      <point x="30" y="415"/>
      <point x="23" y="362" type="curve" smooth="yes"/>
      <point x="16" y="309"/>
      <point x="20" y="259"/>
      <point x="32" y="214" type="curve" smooth="yes"/>
      <point x="44" y="169"/>
      <point x="64" y="130"/>
      <point x="92" y="97" type="curve" smooth="yes"/>
      <point x="120" y="64"/>
      <point x="156" y="38"/>
      <point x="199" y="20" type="curve" smooth="yes"/>
      <point x="242" y="2"/>
      <point x="290" y="-8"/>
      <point x="345" y="-8" type="curve" smooth="yes"/>
      <point x="364" y="-8"/>
      <point x="383" y="-6"/>
      <point x="401" y="-4" type="curve" smooth="yes"/>
      <point x="419" y="-2"/>
      <point x="437" y="1"/>
      <point x="455" y="6" type="curve"/>
      <point x="546" y="-111" type="line" smooth="yes"/>
      <point x="555" y="-123"/>
      <point x="567" y="-131"/>
      <point x="579" y="-135" type="curve" smooth="yes"/>
      <point x="591" y="-139"/>
      <point x="605" y="-142"/>
      <point x="621" y="-142" type="curve" smooth="yes"/>
      <point x="732" y="-142" type="line"/>
      <point x="573" y="58" type="line"/>
      <point x="598" y="74"/>
      <point x="621" y="93"/>
      <point x="642" y="115" type="curve" smooth="yes"/>
      <point x="663" y="137"/>
      <point x="680" y="160"/>
      <point x="696" y="186" type="curve" smooth="yes"/>
      <point x="712" y="212"/>
      <point x="725" y="239"/>
      <point x="735" y="269" type="curve" smooth="yes"/>
      <point x="745" y="299"/>
      <point x="752" y="330"/>
      <point x="756" y="362" type="curve" smooth="yes"/>
    </contour>
    <contour>
      <point x="613" y="322"/>
      <point x="604" y="287"/>
      <point x="590" y="255" type="curve" smooth="yes"/>
      <point x="576" y="223"/>
      <point x="556" y="197"/>
      <point x="534" y="175" type="curve" smooth="yes"/>
      <point x="512" y="153"/>
      <point x="487" y="136"/>
      <point x="457" y="124" type="curve" smooth="yes"/>
      <point x="427" y="112"/>
      <point x="394" y="107"/>
      <point x="359" y="107" type="curve" smooth="yes"/>
      <point x="324" y="107"/>
      <point x="293" y="112"/>
      <point x="266" y="124" type="curve" smooth="yes"/>
      <point x="239" y="136"/>
      <point x="217" y="153"/>
      <point x="200" y="175" type="curve" smooth="yes"/>
      <point x="183" y="197"/>
      <point x="171" y="223"/>
      <point x="164" y="255" type="curve" smooth="yes"/>
      <point x="157" y="287"/>
      <point x="156" y="322"/>
      <point x="161" y="362" type="curve" smooth="yes"/>
      <point x="166" y="402"/>
      <point x="175" y="436"/>
      <point x="190" y="468" type="curve" smooth="yes"/>
      <point x="205" y="500"/>
      <point x="223" y="527"/>
      <point x="246" y="549" type="curve" smooth="yes"/>
      <point x="269" y="571"/>
      <point x="294" y="587"/>
      <point x="324" y="599" type="curve" smooth="yes"/>
      <point x="354" y="611"/>
      <point x="387" y="617"/>
      <point x="422" y="617" type="curve" smooth="yes"/>
      <point x="457" y="617"/>
      <point x="488" y="611"/>
      <point x="515" y="599" type="curve" smooth="yes"/>
      <point x="542" y="587"/>
      <point x="563" y="571"/>
      <point x="580" y="549" type="curve" smooth="yes"/>
      <point x="597" y="527"/>
      <point x="609" y="500"/>
      <point x="616" y="468" type="curve" smooth="yes"/>
      <point x="623" y="436"/>
      <point x="623" y="402"/>
      <point x="618" y="362" type="curve" smooth="yes"/>
    </contour>
    <contour>
      <point x="390" y="723" type="move" name="top"/>
    </contour>
    <contour>
      <point x="390" y="0" type="move" name="bottom"/>
    </contour>
  </outline>
</glyph>
<glyph name="R" format="1">
  <advance width="694"/>
  <unicode hex="0052"/>
  <note>
    R
  </note>
  <outline>
    <contour>
      <point x="651" y="90"/>
      <point x="649" y="91"/>
      <point x="645" y="91" type="curve" smooth="yes"/>
      <point x="641" y="91"/>
      <point x="635" y="93"/>
      <point x="627" y="94" type="curve" smooth="yes"/>
      <point x="619" y="95"/>
      <point x="609" y="97"/>
      <point x="597" y="99" type="curve"/>
      <point x="504" y="267" type="line" smooth="yes"/>
      <point x="494" y="285"/>
      <point x="481" y="299"/>
      <point x="465" y="309" type="curve"/>
      <point x="491" y="317"/>
      <point x="516" y="328"/>
      <point x="537" y="341" type="curve" smooth="yes"/>
      <point x="558" y="354"/>
      <point x="576" y="369"/>
      <point x="592" y="387" type="curve" smooth="yes"/>
      <point x="608" y="405"/>
      <point x="621" y="424"/>
      <point x="631" y="446" type="curve" smooth="yes"/>
      <point x="641" y="468"/>
      <point x="647" y="491"/>
      <point x="650" y="515" type="curve" smooth="yes"/>
      <point x="654" y="546"/>
      <point x="651" y="574"/>
      <point x="644" y="599" type="curve" smooth="yes"/>
      <point x="637" y="624"/>
      <point x="623" y="647"/>
      <point x="603" y="665" type="curve" smooth="yes"/>
      <point x="583" y="683"/>
      <point x="556" y="698"/>
      <point x="522" y="708" type="curve" smooth="yes"/>
      <point x="488" y="718"/>
      <point x="446" y="723"/>
      <point x="397" y="723" type="curve" smooth="yes"/>
      <point x="184" y="723" type="line"/>
      <point x="108" y="723" type="line"/>
      <point x="101" y="664" type="line" smooth="yes"/>
      <point x="99" y="647"/>
      <point x="106" y="637"/>
      <point x="122" y="633" type="curve"/>
      <point x="123" y="633"/>
      <point x="125" y="632"/>
      <point x="128" y="632" type="curve" smooth="yes"/>
      <point x="131" y="632"/>
      <point x="135" y="630"/>
      <point x="142" y="629" type="curve" smooth="yes"/>
      <point x="149" y="628"/>
      <point x="159" y="626"/>
      <point x="171" y="624" type="curve"/>
      <point x="107" y="99" type="line"/>
      <point x="94" y="97"/>
      <point x="84" y="95"/>
      <point x="77" y="94" type="curve" smooth="yes"/>
      <point x="70" y="93"/>
      <point x="64" y="92"/>
      <point x="61" y="91" type="curve" smooth="yes"/>
      <point x="58" y="90"/>
      <point x="56" y="90"/>
      <point x="55" y="90" type="curve"/>
      <point x="38" y="86"/>
      <point x="28" y="76"/>
      <point x="26" y="59" type="curve" smooth="yes"/>
      <point x="19" y="0" type="line"/>
      <point x="95" y="0" type="line"/>
      <point x="229" y="0" type="line"/>
      <point x="305" y="0" type="line"/>
      <point x="312" y="59" type="line" smooth="yes"/>
      <point x="314" y="76"/>
      <point x="307" y="86"/>
      <point x="291" y="90" type="curve"/>
      <point x="290" y="90"/>
      <point x="288" y="91"/>
      <point x="285" y="91" type="curve" smooth="yes"/>
      <point x="282" y="91"/>
      <point x="277" y="93"/>
      <point x="270" y="94" type="curve" smooth="yes"/>
      <point x="263" y="95"/>
      <point x="253" y="97"/>
      <point x="241" y="99" type="curve"/>
      <point x="264" y="283" type="line"/>
      <point x="314" y="283" type="line" smooth="yes"/>
      <point x="327" y="283"/>
      <point x="338" y="281"/>
      <point x="344" y="277" type="curve" smooth="yes"/>
      <point x="350" y="273"/>
      <point x="355" y="268"/>
      <point x="360" y="259" type="curve" smooth="yes"/>
      <point x="484" y="27" type="line" smooth="yes"/>
      <point x="489" y="18"/>
      <point x="494" y="12"/>
      <point x="502" y="7" type="curve" smooth="yes"/>
      <point x="510" y="2"/>
      <point x="519" y="0"/>
      <point x="531" y="0" type="curve" smooth="yes"/>
      <point x="590" y="0" type="line"/>
      <point x="652" y="0" type="line"/>
      <point x="666" y="0" type="line"/>
      <point x="673" y="59" type="line" smooth="yes"/>
      <point x="675" y="76"/>
      <point x="668" y="86"/>
      <point x="652" y="90" type="curve"/>
    </contour>
    <contour>
      <point x="400" y="383"/>
      <point x="378" y="379"/>
      <point x="353" y="379" type="curve" smooth="yes"/>
      <point x="276" y="379" type="line"/>
      <point x="305" y="619" type="line"/>
      <point x="384" y="619" type="line" smooth="yes"/>
      <point x="434" y="619"/>
      <point x="469" y="610"/>
      <point x="491" y="590" type="curve" smooth="yes"/>
      <point x="513" y="570"/>
      <point x="521" y="542"/>
      <point x="517" y="505" type="curve" smooth="yes"/>
      <point x="515" y="487"/>
      <point x="510" y="470"/>
      <point x="502" y="455" type="curve" smooth="yes"/>
      <point x="494" y="440"/>
      <point x="484" y="426"/>
      <point x="470" y="415" type="curve" smooth="yes"/>
      <point x="456" y="404"/>
      <point x="440" y="395"/>
      <point x="420" y="389" type="curve" smooth="yes"/>
    </contour>
    <contour>
      <point x="347" y="723" type="move" name="top"/>
    </contour>
    <contour>
      <point x="347" y="0" type="move" name="bottom"/>
    </contour>
  </outline>
</glyph>
<glyph name="T" format="1">
  <advance width="659"/>
  <unicode hex="0054"/>
  <note>
    T
  </note>
  <outline>
    <contour>
      <point x="624" y="723" type="line"/>
      <point x="624" y="723" type="line"/>
      <point x="55" y="723" type="line"/>
      <point x="54" y="723" type="line"/>
      <point x="39" y="723" type="line"/>
      <point x="18" y="552" type="line"/>
      <point x="22" y="552" type="line"/>
      <point x="34" y="552" type="line"/>
      <point x="76" y="552" type="line" smooth="yes"/>
      <point x="89" y="552"/>
      <point x="97" y="559"/>
      <point x="101" y="571" type="curve" smooth="yes"/>
      <point x="103" y="577"/>
      <point x="106" y="591"/>
      <point x="111" y="613" type="curve"/>
      <point x="259" y="613" type="line"/>
      <point x="196" y="99" type="line"/>
      <point x="183" y="97"/>
      <point x="173" y="95"/>
      <point x="166" y="94" type="curve" smooth="yes"/>
      <point x="159" y="93"/>
      <point x="153" y="91"/>
      <point x="150" y="91" type="curve" smooth="yes"/>
      <point x="147" y="91"/>
      <point x="145" y="90"/>
      <point x="144" y="90" type="curve"/>
      <point x="127" y="86"/>
      <point x="117" y="76"/>
      <point x="115" y="59" type="curve" smooth="yes"/>
      <point x="108" y="0" type="line"/>
      <point x="184" y="0" type="line"/>
      <point x="318" y="0" type="line"/>
      <point x="394" y="0" type="line"/>
      <point x="401" y="59" type="line" smooth="yes"/>
      <point x="403" y="76"/>
      <point x="396" y="86"/>
      <point x="380" y="90" type="curve"/>
      <point x="379" y="90"/>
      <point x="377" y="91"/>
      <point x="374" y="91" type="curve" smooth="yes"/>
      <point x="371" y="91"/>
      <point x="366" y="93"/>
      <point x="359" y="94" type="curve" smooth="yes"/>
      <point x="352" y="95"/>
      <point x="342" y="97"/>
      <point x="330" y="99" type="curve"/>
      <point x="393" y="613" type="line"/>
      <point x="541" y="613" type="line"/>
      <point x="541" y="571" type="line"/>
      <point x="542" y="559"/>
      <point x="549" y="552"/>
      <point x="562" y="552" type="curve" smooth="yes"/>
      <point x="603" y="552" type="line"/>
      <point x="615" y="552" type="line"/>
      <point x="619" y="552" type="line"/>
      <point x="640" y="723" type="line"/>
    </contour>
    <contour>
      <point x="330" y="362" type="move" name="center"/>
    </contour>
    <contour>
      <point x="330" y="0" type="move" name="bottom"/>
    </contour>
    <contour>
      <point x="330" y="723" type="move" name="top"/>
    </contour>
  </outline>
</glyph>
<glyph name="V" format="1">
  <advance width="821"/>
  <unicode hex="0056"/>
  <note>
    V
  </note>
  <outline>
    <contour>
      <point x="768" y="723" type="line"/>
      <point x="727" y="723" type="line"/>
      <point x="660" y="723" type="line"/>
      <point x="532" y="723" type="line"/>
      <point x="525" y="664" type="line" smooth="yes"/>
      <point x="523" y="647"/>
      <point x="530" y="637"/>
      <point x="546" y="633" type="curve"/>
      <point x="547" y="633"/>
      <point x="549" y="633"/>
      <point x="551" y="632" type="curve" smooth="yes"/>
      <point x="553" y="631"/>
      <point x="556" y="630"/>
      <point x="561" y="629" type="curve" smooth="yes"/>
      <point x="566" y="628"/>
      <point x="571" y="626"/>
      <point x="577" y="625" type="curve"/>
      <point x="388" y="252" type="line" smooth="yes"/>
      <point x="373" y="223"/>
      <point x="359" y="188"/>
      <point x="347" y="150" type="curve"/>
      <point x="345" y="169"/>
      <point x="342" y="187"/>
      <point x="339" y="204" type="curve" smooth="yes"/>
      <point x="336" y="221"/>
      <point x="332" y="238"/>
      <point x="328" y="252" type="curve" smooth="yes"/>
      <point x="230" y="625" type="line"/>
      <point x="236" y="626"/>
      <point x="241" y="628"/>
      <point x="246" y="629" type="curve" smooth="yes"/>
      <point x="251" y="630"/>
      <point x="255" y="631"/>
      <point x="257" y="632" type="curve" smooth="yes"/>
      <point x="259" y="633"/>
      <point x="261" y="633"/>
      <point x="262" y="633" type="curve"/>
      <point x="279" y="637"/>
      <point x="289" y="647"/>
      <point x="291" y="664" type="curve" smooth="yes"/>
      <point x="298" y="723" type="line"/>
      <point x="171" y="723" type="line"/>
      <point x="104" y="723" type="line"/>
      <point x="63" y="723" type="line"/>
      <point x="28" y="723" type="line"/>
      <point x="21" y="664" type="line" smooth="yes"/>
      <point x="19" y="647"/>
      <point x="26" y="637"/>
      <point x="42" y="633" type="curve"/>
      <point x="43" y="633"/>
      <point x="45" y="633"/>
      <point x="48" y="632" type="curve"/>
      <point x="51" y="632"/>
      <point x="55" y="630"/>
      <point x="62" y="629" type="curve" smooth="yes"/>
      <point x="69" y="628"/>
      <point x="78" y="626"/>
      <point x="90" y="624" type="curve"/>
      <point x="266" y="0" type="line"/>
      <point x="387" y="0" type="line"/>
      <point x="716" y="624" type="line"/>
      <point x="728" y="626"/>
      <point x="738" y="628"/>
      <point x="745" y="629" type="curve" smooth="yes"/>
      <point x="752" y="630"/>
      <point x="757" y="632"/>
      <point x="760" y="632" type="curve" smooth="yes"/>
      <point x="763" y="632"/>
      <point x="764" y="633"/>
      <point x="766" y="633" type="curve"/>
      <point x="783" y="637"/>
      <point x="793" y="647"/>
      <point x="795" y="664" type="curve" smooth="yes"/>
      <point x="802" y="723" type="line"/>
    </contour>
    <contour>
      <point x="411" y="723" type="move" name="top"/>
    </contour>
    <contour>
      <point x="411" y="0" type="move" name="bottom"/>
    </contour>
  </outline>
</glyph>
<glyph name="W" format="1">
  <advance width="1149"/>
  <unicode hex="0057"/>
  <note>
    W
  </note>
  <outline>
    <contour>
      <point x="1097" y="723" type="line"/>
      <point x="1055" y="723" type="line"/>
      <point x="991" y="723" type="line"/>
      <point x="861" y="723" type="line"/>
      <point x="853" y="664" type="line" smooth="yes"/>
      <point x="851" y="647"/>
      <point x="859" y="637"/>
      <point x="875" y="633" type="curve" smooth="yes"/>
      <point x="892" y="629"/>
      <point x="905" y="626"/>
      <point x="915" y="624" type="curve"/>
      <point x="767" y="260" type="line" smooth="yes"/>
      <point x="763" y="250"/>
      <point x="759" y="238"/>
      <point x="755" y="226" type="curve" smooth="yes"/>
      <point x="751" y="214"/>
      <point x="747" y="202"/>
      <point x="743" y="189" type="curve"/>
      <point x="741" y="215"/>
      <point x="738" y="239"/>
      <point x="733" y="260" type="curve" smooth="yes"/>
      <point x="645" y="692" type="line" smooth="yes"/>
      <point x="643" y="701"/>
      <point x="639" y="709"/>
      <point x="632" y="715" type="curve"/>
      <point x="625" y="720"/>
      <point x="616" y="723"/>
      <point x="604" y="723" type="curve" smooth="yes"/>
      <point x="564" y="723" type="line" smooth="yes"/>
      <point x="553" y="723"/>
      <point x="543" y="719"/>
      <point x="534" y="713" type="curve" smooth="yes"/>
      <point x="525" y="707"/>
      <point x="520" y="700"/>
      <point x="516" y="692" type="curve"/>
      <point x="321" y="260" type="line" smooth="yes"/>
      <point x="316" y="249"/>
      <point x="311" y="238"/>
      <point x="306" y="225" type="curve" smooth="yes"/>
      <point x="301" y="213"/>
      <point x="297" y="199"/>
      <point x="293" y="185" type="curve"/>
      <point x="292" y="199"/>
      <point x="291" y="213"/>
      <point x="290" y="225" type="curve" smooth="yes"/>
      <point x="289" y="237"/>
      <point x="288" y="249"/>
      <point x="286" y="260" type="curve" smooth="yes"/>
      <point x="227" y="625" type="line"/>
      <point x="234" y="627"/>
      <point x="240" y="628"/>
      <point x="245" y="629" type="curve" smooth="yes"/>
      <point x="250" y="630"/>
      <point x="254" y="631"/>
      <point x="256" y="632" type="curve" smooth="yes"/>
      <point x="258" y="633"/>
      <point x="261" y="633"/>
      <point x="262" y="633" type="curve"/>
      <point x="279" y="637"/>
      <point x="288" y="647"/>
      <point x="290" y="664" type="curve" smooth="yes"/>
      <point x="298" y="723" type="line"/>
      <point x="175" y="723" type="line"/>
      <point x="103" y="723" type="line"/>
      <point x="62" y="723" type="line"/>
      <point x="28" y="723" type="line"/>
      <point x="20" y="664" type="line" smooth="yes"/>
      <point x="18" y="647"/>
      <point x="26" y="637"/>
      <point x="42" y="633" type="curve"/>
      <point x="43" y="633"/>
      <point x="45" y="632"/>
      <point x="52" y="631" type="curve" smooth="yes"/>
      <point x="59" y="630"/>
      <point x="68" y="628"/>
      <point x="80" y="626" type="curve"/>
      <point x="198" y="0" type="line"/>
      <point x="319" y="0" type="line"/>
      <point x="539" y="494" type="line"/>
      <point x="542" y="500"/>
      <point x="545" y="506"/>
      <point x="548" y="514" type="curve"/>
      <point x="551" y="521"/>
      <point x="554" y="530"/>
      <point x="557" y="538" type="curve"/>
      <point x="558" y="530"/>
      <point x="560" y="521"/>
      <point x="561" y="514" type="curve" smooth="yes"/>
      <point x="562" y="507"/>
      <point x="563" y="500"/>
      <point x="564" y="494" type="curve" smooth="yes"/>
      <point x="662" y="0" type="line"/>
      <point x="783" y="0" type="line"/>
      <point x="1054" y="626" type="line"/>
      <point x="1067" y="628"/>
      <point x="1076" y="630"/>
      <point x="1083" y="631" type="curve" smooth="yes"/>
      <point x="1090" y="632"/>
      <point x="1094" y="633"/>
      <point x="1095" y="633" type="curve"/>
      <point x="1112" y="637"/>
      <point x="1122" y="647"/>
      <point x="1124" y="664" type="curve" smooth="yes"/>
      <point x="1131" y="723" type="line"/>
    </contour>
    <contour>
      <point x="575" y="723" type="move" name="top"/>
    </contour>
    <contour>
      <point x="575" y="0" type="move" name="bottom"/>
    </contour>
  </outline>
</glyph>
<glyph name="Z" format="1">
  <advance width="685"/>
  <unicode hex="005A"/>
  <note>
    Z
  </note>
  <outline>
    <contour>
      <point x="642" y="631" type="line"/>
      <point x="652" y="644"/>
      <point x="658" y="658"/>
      <point x="660" y="673" type="curve" smooth="yes"/>
      <point x="666" y="723" type="line"/>
      <point x="131" y="723" type="line"/>
      <point x="107" y="526" type="line"/>
      <point x="160" y="526" type="line" smooth="yes"/>
      <point x="173" y="526"/>
      <point x="182" y="533"/>
      <point x="186" y="545" type="curve" smooth="yes"/>
      <point x="187" y="548"/>
      <point x="193" y="571"/>
      <point x="204" y="616" type="curve"/>
      <point x="479" y="616" type="line"/>
      <point x="42" y="90" type="line" smooth="yes"/>
      <point x="38" y="85"/>
      <point x="34" y="78"/>
      <point x="31" y="72" type="curve" smooth="yes"/>
      <point x="28" y="66"/>
      <point x="27" y="60"/>
      <point x="26" y="53" type="curve" smooth="yes"/>
      <point x="19" y="0" type="line"/>
      <point x="568" y="0" type="line"/>
      <point x="582" y="107" type="line"/>
      <point x="592" y="195" type="line"/>
      <point x="539" y="195" type="line" smooth="yes"/>
      <point x="526" y="195"/>
      <point x="518" y="188"/>
      <point x="514" y="176" type="curve" smooth="yes"/>
      <point x="513" y="173"/>
      <point x="508" y="150"/>
      <point x="497" y="107" type="curve"/>
      <point x="207" y="107" type="line"/>
    </contour>
    <contour>
      <point x="343" y="723" type="move" name="top"/>
    </contour>
    <contour>
      <point x="343" y="0" type="move" name="bottom"/>
    </contour>
  </outline>
</glyph>
<glyph name="bracketright" format="1">
  <advance width="356"/>
  <unicode hex="005D"/>
  <note>
    bracketright
  </note>
  <outline>
    <contour>
      <point x="18" y="-154" type="line"/>
      <point x="223" y="-154" type="line"/>
      <point x="337" y="774" type="line"/>
      <point x="132" y="774" type="line"/>
      <point x="126" y="725" type="line" smooth="yes"/>
      <point x="125" y="716"/>
      <point x="127" y="709"/>
      <point x="132" y="703" type="curve" smooth="yes"/>
      <point x="137" y="697"/>
      <point x="145" y="694"/>
      <point x="155" y="694" type="curve" smooth="yes"/>
      <point x="224" y="694" type="line"/>
      <point x="130" y="-74" type="line"/>
      <point x="61" y="-74" type="line" smooth="yes"/>
      <point x="51" y="-74"/>
      <point x="43" y="-77"/>
      <point x="36" y="-83" type="curve" smooth="yes"/>
      <point x="29" y="-89"/>
      <point x="25" y="-97"/>
      <point x="24" y="-106" type="curve" smooth="yes"/>
    </contour>
  </outline>
</glyph>
<glyph name="underscore" format="1">
  <advance width="482"/>
  <unicode hex="005F"/>
  <note>
    underscore
  </note>
  <outline>
    <contour>
      <point x="442" y="-67" type="line"/>
      <point x="48" y="-67" type="line"/>
      <point x="38" y="-147" type="line"/>
      <point x="432" y="-147" type="line"/>
    </contour>
  </outline>
</glyph>
<glyph name="a" format="1">
  <advance width="519"/>
  <unicode hex="0061"/>
  <note>
    a
  </note>
  <outline>
    <contour>
      <point x="475" y="91"/>
      <point x="472" y="92"/>
      <point x="466" y="93" type="curve" smooth="yes"/>
      <point x="460" y="94"/>
      <point x="452" y="96"/>
      <point x="441" y="98" type="curve"/>
      <point x="440" y="97" type="line"/>
      <point x="490" y="498" type="line"/>
      <point x="468" y="507"/>
      <point x="445" y="513"/>
      <point x="422" y="516" type="curve" smooth="yes"/>
      <point x="399" y="519"/>
      <point x="375" y="521"/>
      <point x="352" y="521" type="curve" smooth="yes"/>
      <point x="320" y="521"/>
      <point x="290" y="517"/>
      <point x="261" y="509" type="curve" smooth="yes"/>
      <point x="232" y="501"/>
      <point x="206" y="488"/>
      <point x="181" y="473" type="curve" smooth="yes"/>
      <point x="156" y="458"/>
      <point x="133" y="439"/>
      <point x="113" y="418" type="curve" smooth="yes"/>
      <point x="93" y="397"/>
      <point x="76" y="373"/>
      <point x="62" y="348" type="curve" smooth="yes"/>
      <point x="48" y="323"/>
      <point x="38" y="295"/>
      <point x="30" y="266" type="curve" smooth="yes"/>
      <point x="22" y="237"/>
      <point x="18" y="207"/>
      <point x="18" y="176" type="curve" smooth="yes"/>
      <point x="18" y="145"/>
      <point x="22" y="119"/>
      <point x="29" y="96" type="curve" smooth="yes"/>
      <point x="36" y="73"/>
      <point x="45" y="54"/>
      <point x="58" y="39" type="curve"/>
      <point x="70" y="24"/>
      <point x="85" y="13"/>
      <point x="102" y="5" type="curve" smooth="yes"/>
      <point x="119" y="-3"/>
      <point x="137" y="-7"/>
      <point x="156" y="-7" type="curve" smooth="yes"/>
      <point x="190" y="-7"/>
      <point x="222" y="3"/>
      <point x="250" y="24" type="curve" smooth="yes"/>
      <point x="278" y="44"/>
      <point x="303" y="73"/>
      <point x="326" y="108" type="curve"/>
      <point x="322" y="38" type="line"/>
      <point x="322" y="27"/>
      <point x="325" y="18"/>
      <point x="331" y="11" type="curve" smooth="yes"/>
      <point x="337" y="4"/>
      <point x="348" y="1"/>
      <point x="363" y="1" type="curve" smooth="yes"/>
      <point x="428" y="1" type="line"/>
      <point x="428" y="1" type="line"/>
      <point x="428" y="1" type="line"/>
      <point x="490" y="1" type="line"/>
      <point x="498" y="60" type="line" smooth="yes"/>
      <point x="500" y="77"/>
      <point x="492" y="87"/>
      <point x="476" y="91" type="curve"/>
    </contour>
    <contour>
      <point x="341" y="277" type="line"/>
      <point x="334" y="251"/>
      <point x="325" y="227"/>
      <point x="315" y="205" type="curve" smooth="yes"/>
      <point x="305" y="183"/>
      <point x="294" y="164"/>
      <point x="282" y="147" type="curve" smooth="yes"/>
      <point x="270" y="130"/>
      <point x="258" y="117"/>
      <point x="245" y="108" type="curve" smooth="yes"/>
      <point x="232" y="99"/>
      <point x="219" y="94"/>
      <point x="205" y="94" type="curve" smooth="yes"/>
      <point x="185" y="94"/>
      <point x="169" y="102"/>
      <point x="158" y="119" type="curve" smooth="yes"/>
      <point x="147" y="136"/>
      <point x="142" y="162"/>
      <point x="142" y="198" type="curve" smooth="yes"/>
      <point x="142" y="230"/>
      <point x="146" y="261"/>
      <point x="156" y="289" type="curve" smooth="yes"/>
      <point x="166" y="318"/>
      <point x="180" y="342"/>
      <point x="197" y="364" type="curve" smooth="yes"/>
      <point x="214" y="385"/>
      <point x="234" y="402"/>
      <point x="258" y="415" type="curve" smooth="yes"/>
      <point x="282" y="428"/>
      <point x="307" y="434"/>
      <point x="335" y="434" type="curve" smooth="yes"/>
      <point x="343" y="434"/>
      <point x="351" y="433"/>
      <point x="360" y="432" type="curve"/>
    </contour>
    <contour>
      <point x="467" y="10" type="move" name="ogonek"/>
    </contour>
    <contour>
      <point x="260" y="0" type="move" name="bottom"/>
    </contour>
    <contour>
      <point x="260" y="513" type="move" name="top"/>
    </contour>
  </outline>
</glyph>
<glyph name="b" format="1">
  <advance width="547"/>
  <unicode hex="0062"/>
  <note>
    b
  </note>
  <outline>
    <contour>
      <point x="516" y="404"/>
      <point x="506" y="432"/>
      <point x="492" y="454" type="curve" smooth="yes"/>
      <point x="478" y="476"/>
      <point x="461" y="493"/>
      <point x="439" y="504" type="curve"/>
      <point x="417" y="516"/>
      <point x="392" y="521"/>
      <point x="364" y="521" type="curve" smooth="yes"/>
      <point x="330" y="521"/>
      <point x="299" y="515"/>
      <point x="272" y="502" type="curve" smooth="yes"/>
      <point x="245" y="489"/>
      <point x="219" y="472"/>
      <point x="196" y="450" type="curve"/>
      <point x="232" y="743" type="line"/>
      <point x="109" y="743" type="line"/>
      <point x="29" y="743" type="line"/>
      <point x="22" y="684" type="line" smooth="yes"/>
      <point x="20" y="667"/>
      <point x="27" y="657"/>
      <point x="43" y="653" type="curve"/>
      <point x="44" y="653"/>
      <point x="47" y="652"/>
      <point x="50" y="652" type="curve" smooth="yes"/>
      <point x="53" y="652"/>
      <point x="59" y="650"/>
      <point x="67" y="649" type="curve" smooth="yes"/>
      <point x="75" y="648"/>
      <point x="85" y="646"/>
      <point x="97" y="644" type="curve"/>
      <point x="40" y="181" type="line"/>
      <point x="20" y="21" type="line"/>
      <point x="111" y="2"/>
      <point x="194" y="-7"/>
      <point x="268" y="-7" type="curve" smooth="yes"/>
      <point x="302" y="-7"/>
      <point x="333" y="-1"/>
      <point x="362" y="13" type="curve" smooth="yes"/>
      <point x="391" y="26"/>
      <point x="416" y="45"/>
      <point x="438" y="69" type="curve" smooth="yes"/>
      <point x="460" y="93"/>
      <point x="479" y="121"/>
      <point x="493" y="154" type="curve" smooth="yes"/>
      <point x="507" y="187"/>
      <point x="516" y="223"/>
      <point x="521" y="261" type="curve" smooth="yes"/>
      <point x="526" y="303"/>
      <point x="526" y="340"/>
      <point x="521" y="372" type="curve" smooth="yes"/>
    </contour>
    <contour>
      <point x="368" y="161"/>
      <point x="357" y="143"/>
      <point x="345" y="129" type="curve" smooth="yes"/>
      <point x="333" y="115"/>
      <point x="319" y="104"/>
      <point x="303" y="97" type="curve" smooth="yes"/>
      <point x="287" y="90"/>
      <point x="270" y="87"/>
      <point x="251" y="87" type="curve" smooth="yes"/>
      <point x="218" y="87"/>
      <point x="186" y="90"/>
      <point x="153" y="96" type="curve"/>
      <point x="186" y="363" type="line"/>
      <point x="204" y="383"/>
      <point x="223" y="398"/>
      <point x="242" y="409" type="curve" smooth="yes"/>
      <point x="262" y="420"/>
      <point x="284" y="425"/>
      <point x="310" y="425" type="curve" smooth="yes"/>
      <point x="326" y="425"/>
      <point x="340" y="422"/>
      <point x="352" y="416" type="curve" smooth="yes"/>
      <point x="364" y="410"/>
      <point x="375" y="401"/>
      <point x="382" y="388" type="curve" smooth="yes"/>
      <point x="389" y="375"/>
      <point x="394" y="358"/>
      <point x="396" y="337" type="curve" smooth="yes"/>
      <point x="398" y="316"/>
      <point x="398" y="291"/>
      <point x="394" y="261" type="curve" smooth="yes"/>
      <point x="390" y="231"/>
      <point x="384" y="205"/>
      <point x="376" y="183" type="curve" smooth="yes"/>
    </contour>
    <contour>
      <point x="274" y="513" type="move" name="top"/>
    </contour>
    <contour>
      <point x="274" y="0" type="move" name="bottom"/>
    </contour>
  </outline>
</glyph>
<glyph name="d" format="1">
  <advance width="572"/>
  <unicode hex="0064"/>
  <note>
    d
  </note>
  <outline>
    <contour>
      <point x="540" y="61" type="line" smooth="yes"/>
      <point x="542" y="78"/>
      <point x="535" y="88"/>
      <point x="519" y="92" type="curve"/>
      <point x="517" y="92"/>
      <point x="515" y="93"/>
      <point x="513" y="93" type="curve" smooth="yes"/>
      <point x="511" y="93"/>
      <point x="506" y="95"/>
      <point x="500" y="96" type="curve" smooth="yes"/>
      <point x="494" y="97"/>
      <point x="485" y="98"/>
      <point x="475" y="100" type="curve"/>
      <point x="554" y="743" type="line"/>
      <point x="431" y="743" type="line"/>
      <point x="355" y="743" type="line"/>
      <point x="348" y="684" type="line" smooth="yes"/>
      <point x="346" y="667"/>
      <point x="353" y="657"/>
      <point x="369" y="653" type="curve"/>
      <point x="370" y="653"/>
      <point x="372" y="653"/>
      <point x="375" y="652" type="curve" smooth="yes"/>
      <point x="378" y="651"/>
      <point x="383" y="650"/>
      <point x="390" y="649" type="curve" smooth="yes"/>
      <point x="397" y="648"/>
      <point x="407" y="646"/>
      <point x="419" y="644" type="curve"/>
      <point x="398" y="473" type="line"/>
      <point x="384" y="489"/>
      <point x="367" y="500"/>
      <point x="348" y="509" type="curve" smooth="yes"/>
      <point x="329" y="518"/>
      <point x="305" y="523"/>
      <point x="276" y="523" type="curve" smooth="yes"/>
      <point x="242" y="523"/>
      <point x="211" y="516"/>
      <point x="182" y="502" type="curve" smooth="yes"/>
      <point x="153" y="488"/>
      <point x="128" y="470"/>
      <point x="106" y="446" type="curve" smooth="yes"/>
      <point x="84" y="422"/>
      <point x="65" y="394"/>
      <point x="51" y="361" type="curve" smooth="yes"/>
      <point x="37" y="328"/>
      <point x="27" y="293"/>
      <point x="22" y="255" type="curve" smooth="yes"/>
      <point x="17" y="213"/>
      <point x="17" y="176"/>
      <point x="22" y="143" type="curve" smooth="yes"/>
      <point x="27" y="111"/>
      <point x="37" y="83"/>
      <point x="51" y="61" type="curve" smooth="yes"/>
      <point x="65" y="39"/>
      <point x="83" y="22"/>
      <point x="105" y="10" type="curve" smooth="yes"/>
      <point x="127" y="-2"/>
      <point x="152" y="-7"/>
      <point x="180" y="-7" type="curve" smooth="yes"/>
      <point x="216" y="-7"/>
      <point x="248" y="0"/>
      <point x="277" y="15" type="curve" smooth="yes"/>
      <point x="306" y="30"/>
      <point x="331" y="48"/>
      <point x="355" y="72" type="curve"/>
      <point x="359" y="25" type="line"/>
      <point x="360" y="17"/>
      <point x="363" y="12"/>
      <point x="368" y="8" type="curve" smooth="yes"/>
      <point x="373" y="4"/>
      <point x="380" y="2"/>
      <point x="388" y="2" type="curve" smooth="yes"/>
      <point x="463" y="2" type="line"/>
      <point x="533" y="2" type="line"/>
    </contour>
    <contour>
      <point x="358" y="152" type="line"/>
      <point x="340" y="132"/>
      <point x="321" y="117"/>
      <point x="302" y="106" type="curve" smooth="yes"/>
      <point x="282" y="95"/>
      <point x="260" y="90"/>
      <point x="234" y="90" type="curve" smooth="yes"/>
      <point x="218" y="90"/>
      <point x="204" y="93"/>
      <point x="192" y="99" type="curve" smooth="yes"/>
      <point x="180" y="105"/>
      <point x="169" y="115"/>
      <point x="162" y="128" type="curve" smooth="yes"/>
      <point x="155" y="141"/>
      <point x="150" y="157"/>
      <point x="148" y="178" type="curve" smooth="yes"/>
      <point x="146" y="199"/>
      <point x="146" y="225"/>
      <point x="150" y="255" type="curve" smooth="yes"/>
      <point x="154" y="285"/>
      <point x="160" y="310"/>
      <point x="168" y="332" type="curve" smooth="yes"/>
      <point x="176" y="354"/>
      <point x="187" y="372"/>
      <point x="199" y="386" type="curve" smooth="yes"/>
      <point x="211" y="400"/>
      <point x="225" y="411"/>
      <point x="241" y="418" type="curve" smooth="yes"/>
      <point x="257" y="425"/>
      <point x="274" y="429"/>
      <point x="293" y="429" type="curve" smooth="yes"/>
      <point x="312" y="429"/>
      <point x="329" y="425"/>
      <point x="345" y="418" type="curve" smooth="yes"/>
      <point x="361" y="411"/>
      <point x="375" y="399"/>
      <point x="387" y="382" type="curve"/>
    </contour>
    <contour>
      <point x="286" y="0" type="move" name="bottom"/>
    </contour>
    <contour>
      <point x="286" y="513" type="move" name="top"/>
    </contour>
    <contour>
      <point x="552" y="513" type="move" name="topright"/>
    </contour>
    <contour>
      <point x="286" y="257" type="move" name="center"/>
    </contour>
  </outline>
</glyph>
<glyph name="f" format="1">
  <advance width="453"/>
  <unicode hex="0066"/>
  <note>
    f
  </note>
  <outline>
    <contour>
      <point x="344" y="735"/>
      <point x="317" y="731"/>
      <point x="292" y="722" type="curve" smooth="yes"/>
      <point x="267" y="713"/>
      <point x="246" y="701"/>
      <point x="227" y="685" type="curve" smooth="yes"/>
      <point x="208" y="669"/>
      <point x="194" y="649"/>
      <point x="182" y="626" type="curve" smooth="yes"/>
      <point x="170" y="603"/>
      <point x="163" y="576"/>
      <point x="159" y="547" type="curve" smooth="yes"/>
      <point x="154" y="509" type="line"/>
      <point x="78" y="509" type="line"/>
      <point x="72" y="458" type="line" smooth="yes"/>
      <point x="71" y="449"/>
      <point x="73" y="442"/>
      <point x="78" y="437" type="curve" smooth="yes"/>
      <point x="83" y="432"/>
      <point x="91" y="429"/>
      <point x="100" y="427" type="curve"/>
      <point x="144" y="420" type="line"/>
      <point x="136" y="362" type="line"/>
      <point x="136" y="362" type="line"/>
      <point x="133" y="332" type="line"/>
      <point x="133" y="330" type="line"/>
      <point x="95" y="24" type="line" smooth="yes"/>
      <point x="93" y="5"/>
      <point x="89" y="-10"/>
      <point x="83" y="-23" type="curve" smooth="yes"/>
      <point x="77" y="-36"/>
      <point x="70" y="-47"/>
      <point x="61" y="-55" type="curve" smooth="yes"/>
      <point x="52" y="-63"/>
      <point x="42" y="-68"/>
      <point x="31" y="-72" type="curve" smooth="yes"/>
      <point x="20" y="-76"/>
      <point x="7" y="-78"/>
      <point x="-6" y="-78" type="curve" smooth="yes"/>
      <point x="-32" y="-78"/>
      <point x="-45" y="-91"/>
      <point x="-45" y="-116" type="curve" smooth="yes"/>
      <point x="-45" y="-180" type="line"/>
      <point x="-4" y="-180"/>
      <point x="32" y="-177"/>
      <point x="63" y="-169" type="curve" smooth="yes"/>
      <point x="94" y="-161"/>
      <point x="119" y="-149"/>
      <point x="141" y="-133" type="curve" smooth="yes"/>
      <point x="163" y="-117"/>
      <point x="179" y="-95"/>
      <point x="192" y="-70" type="curve" smooth="yes"/>
      <point x="204" y="-45"/>
      <point x="213" y="-14"/>
      <point x="217" y="21" type="curve" smooth="yes"/>
      <point x="255" y="330" type="line"/>
      <point x="255" y="330" type="line"/>
      <point x="266" y="420" type="line"/>
      <point x="266" y="420" type="line"/>
      <point x="267" y="421" type="line"/>
      <point x="397" y="421" type="line"/>
      <point x="407" y="509" type="line"/>
      <point x="274" y="509" type="line"/>
      <point x="278" y="543" type="line" smooth="yes"/>
      <point x="280" y="562"/>
      <point x="284" y="577"/>
      <point x="290" y="590" type="curve" smooth="yes"/>
      <point x="296" y="603"/>
      <point x="303" y="613"/>
      <point x="312" y="621" type="curve" smooth="yes"/>
      <point x="321" y="629"/>
      <point x="331" y="635"/>
      <point x="343" y="638" type="curve" smooth="yes"/>
      <point x="355" y="641"/>
      <point x="368" y="642"/>
      <point x="383" y="642" type="curve" smooth="yes"/>
      <point x="394" y="642"/>
      <point x="404" y="644"/>
      <point x="413" y="646" type="curve" smooth="yes"/>
      <point x="422" y="648"/>
      <point x="426" y="654"/>
      <point x="428" y="664" type="curve" smooth="yes"/>
      <point x="439" y="726" type="line"/>
      <point x="419" y="732"/>
      <point x="398" y="735"/>
      <point x="374" y="735" type="curve" smooth="yes"/>
    </contour>
    <contour>
      <point x="227" y="513" type="move" name="top"/>
    </contour>
    <contour>
      <point x="227" y="0" type="move" name="bottom"/>
    </contour>
  </outline>
</glyph>
<glyph name="g" format="1">
  <advance width="579"/>
  <unicode hex="0067"/>
  <note>
    g
  </note>
  <outline>
    <contour>
      <point x="482" y="373"/>
      <point x="482" y="382"/>
      <point x="481" y="389" type="curve" smooth="yes"/>
      <point x="480" y="396"/>
      <point x="479" y="403"/>
      <point x="477" y="410" type="curve"/>
      <point x="530" y="424" type="line" smooth="yes"/>
      <point x="537" y="426"/>
      <point x="543" y="429"/>
      <point x="547" y="435" type="curve" smooth="yes"/>
      <point x="551" y="441"/>
      <point x="553" y="448"/>
      <point x="554" y="456" type="curve" smooth="yes"/>
      <point x="560" y="496" type="line"/>
      <point x="416" y="496" type="line"/>
      <point x="402" y="505"/>
      <point x="386" y="511"/>
      <point x="369" y="515" type="curve"/>
      <point x="352" y="520"/>
      <point x="334" y="522"/>
      <point x="315" y="522" type="curve" smooth="yes"/>
      <point x="279" y="522"/>
      <point x="248" y="516"/>
      <point x="221" y="505" type="curve" smooth="yes"/>
      <point x="194" y="494"/>
      <point x="171" y="479"/>
      <point x="153" y="460" type="curve" smooth="yes"/>
      <point x="135" y="441"/>
      <point x="120" y="420"/>
      <point x="111" y="396" type="curve" smooth="yes"/>
      <point x="102" y="372"/>
      <point x="98" y="348"/>
      <point x="98" y="323" type="curve" smooth="yes"/>
      <point x="98" y="297"/>
      <point x="101" y="274"/>
      <point x="109" y="254" type="curve" smooth="yes"/>
      <point x="117" y="235"/>
      <point x="128" y="219"/>
      <point x="141" y="206" type="curve" smooth="yes"/>
      <point x="154" y="193"/>
      <point x="169" y="183"/>
      <point x="187" y="177" type="curve" smooth="yes"/>
      <point x="204" y="171"/>
      <point x="223" y="167"/>
      <point x="242" y="167" type="curve" smooth="yes"/>
      <point x="265" y="167"/>
      <point x="284" y="169"/>
      <point x="300" y="174" type="curve" smooth="yes"/>
      <point x="316" y="179"/>
      <point x="330" y="185"/>
      <point x="343" y="194" type="curve"/>
      <point x="332" y="171"/>
      <point x="327" y="149"/>
      <point x="327" y="130" type="curve" smooth="yes"/>
      <point x="327" y="124"/>
      <point x="328" y="118"/>
      <point x="329" y="113" type="curve" smooth="yes"/>
      <point x="330" y="108"/>
      <point x="331" y="102"/>
      <point x="332" y="97" type="curve"/>
      <point x="320" y="99"/>
      <point x="308" y="101"/>
      <point x="295" y="102" type="curve" smooth="yes"/>
      <point x="282" y="103"/>
      <point x="269" y="104"/>
      <point x="255" y="104" type="curve" smooth="yes"/>
      <point x="227" y="104"/>
      <point x="199" y="101"/>
      <point x="171" y="96" type="curve" smooth="yes"/>
      <point x="143" y="91"/>
      <point x="117" y="82"/>
      <point x="94" y="70" type="curve" smooth="yes"/>
      <point x="71" y="58"/>
      <point x="53" y="43"/>
      <point x="39" y="24" type="curve" smooth="yes"/>
      <point x="25" y="5"/>
      <point x="18" y="-20"/>
      <point x="18" y="-48" type="curve" smooth="yes"/>
      <point x="18" y="-67"/>
      <point x="23" y="-84"/>
      <point x="32" y="-100" type="curve" smooth="yes"/>
      <point x="41" y="-116"/>
      <point x="55" y="-129"/>
      <point x="73" y="-141" type="curve" smooth="yes"/>
      <point x="91" y="-153"/>
      <point x="112" y="-162"/>
      <point x="137" y="-169" type="curve"/>
      <point x="162" y="-175"/>
      <point x="190" y="-178"/>
      <point x="222" y="-178" type="curve" smooth="yes"/>
      <point x="261" y="-178"/>
      <point x="295" y="-173"/>
      <point x="326" y="-163" type="curve" smooth="yes"/>
      <point x="357" y="-153"/>
      <point x="383" y="-140"/>
      <point x="404" y="-123" type="curve" smooth="yes"/>
      <point x="425" y="-106"/>
      <point x="442" y="-86"/>
      <point x="453" y="-63" type="curve" smooth="yes"/>
      <point x="464" y="-40"/>
      <point x="470" y="-15"/>
      <point x="470" y="10" type="curve" smooth="yes"/>
      <point x="470" y="28"/>
      <point x="468" y="43"/>
      <point x="462" y="57" type="curve" smooth="yes"/>
      <point x="456" y="71"/>
      <point x="450" y="84"/>
      <point x="443" y="96" type="curve" smooth="yes"/>
      <point x="436" y="108"/>
      <point x="431" y="119"/>
      <point x="425" y="131" type="curve"/>
      <point x="419" y="142"/>
      <point x="416" y="155"/>
      <point x="416" y="169" type="curve" smooth="yes"/>
      <point x="416" y="182"/>
      <point x="418" y="193"/>
      <point x="421" y="203" type="curve" smooth="yes"/>
      <point x="424" y="213"/>
      <point x="428" y="224"/>
      <point x="433" y="233" type="curve" smooth="yes"/>
      <point x="438" y="242"/>
      <point x="443" y="252"/>
      <point x="449" y="261" type="curve" smooth="yes"/>
      <point x="455" y="270"/>
      <point x="460" y="281"/>
      <point x="465" y="291" type="curve" smooth="yes"/>
      <point x="470" y="301"/>
      <point x="474" y="312"/>
      <point x="477" y="324" type="curve" smooth="yes"/>
      <point x="480" y="336"/>
      <point x="482" y="350"/>
      <point x="482" y="365" type="curve" smooth="yes"/>
    </contour>
    <contour>
      <point x="358" y="-14"/>
      <point x="355" y="-26"/>
      <point x="349" y="-37" type="curve" smooth="yes"/>
      <point x="343" y="-48"/>
      <point x="334" y="-59"/>
      <point x="323" y="-67" type="curve" smooth="yes"/>
      <point x="312" y="-75"/>
      <point x="298" y="-81"/>
      <point x="283" y="-86" type="curve" smooth="yes"/>
      <point x="268" y="-91"/>
      <point x="251" y="-93"/>
      <point x="232" y="-93" type="curve" smooth="yes"/>
      <point x="199" y="-93"/>
      <point x="174" y="-88"/>
      <point x="158" y="-78" type="curve" smooth="yes"/>
      <point x="142" y="-68"/>
      <point x="134" y="-52"/>
      <point x="134" y="-32" type="curve" smooth="yes"/>
      <point x="134" y="-23"/>
      <point x="137" y="-15"/>
      <point x="142" y="-7" type="curve" smooth="yes"/>
      <point x="147" y="1"/>
      <point x="154" y="8"/>
      <point x="165" y="14" type="curve"/>
      <point x="175" y="20"/>
      <point x="189" y="25"/>
      <point x="205" y="29" type="curve" smooth="yes"/>
      <point x="221" y="33"/>
      <point x="240" y="34"/>
      <point x="263" y="34" type="curve" smooth="yes"/>
      <point x="276" y="34"/>
      <point x="291" y="33"/>
      <point x="306" y="32" type="curve" smooth="yes"/>
      <point x="321" y="31"/>
      <point x="337" y="29"/>
      <point x="355" y="26" type="curve"/>
      <point x="356" y="22"/>
      <point x="356" y="18"/>
      <point x="357" y="13" type="curve"/>
      <point x="357" y="8"/>
      <point x="358" y="4"/>
      <point x="358" y="-1" type="curve" smooth="yes"/>
    </contour>
    <contour>
      <point x="256" y="242"/>
      <point x="239" y="248"/>
      <point x="227" y="262" type="curve"/>
      <point x="216" y="276"/>
      <point x="210" y="296"/>
      <point x="210" y="322" type="curve" smooth="yes"/>
      <point x="210" y="337"/>
      <point x="212" y="351"/>
      <point x="216" y="365" type="curve" smooth="yes"/>
      <point x="220" y="379"/>
      <point x="225" y="392"/>
      <point x="233" y="403" type="curve" smooth="yes"/>
      <point x="241" y="414"/>
      <point x="250" y="423"/>
      <point x="261" y="429" type="curve" smooth="yes"/>
      <point x="272" y="435"/>
      <point x="286" y="438"/>
      <point x="301" y="438" type="curve" smooth="yes"/>
      <point x="323" y="438"/>
      <point x="340" y="431"/>
      <point x="352" y="418" type="curve" smooth="yes"/>
      <point x="364" y="405"/>
      <point x="369" y="386"/>
      <point x="369" y="361" type="curve" smooth="yes"/>
      <point x="369" y="346"/>
      <point x="367" y="332"/>
      <point x="363" y="318" type="curve" smooth="yes"/>
      <point x="359" y="304"/>
      <point x="354" y="290"/>
      <point x="346" y="279" type="curve" smooth="yes"/>
      <point x="338" y="268"/>
      <point x="328" y="259"/>
      <point x="317" y="252" type="curve" smooth="yes"/>
      <point x="306" y="245"/>
      <point x="293" y="242"/>
      <point x="278" y="242" type="curve" smooth="yes"/>
    </contour>
    <contour>
      <point x="290" y="513" type="move" name="top"/>
    </contour>
    <contour>
      <point x="290" y="0" type="move" name="bottom"/>
    </contour>
  </outline>
</glyph>
<glyph name="h" format="1">
  <advance width="569"/>
  <unicode hex="0068"/>
  <note>
    h
  </note>
  <outline>
    <contour>
      <point x="526" y="90"/>
      <point x="524" y="90"/>
      <point x="521" y="91" type="curve" smooth="yes"/>
      <point x="518" y="92"/>
      <point x="514" y="93"/>
      <point x="507" y="94" type="curve" smooth="yes"/>
      <point x="500" y="95"/>
      <point x="490" y="97"/>
      <point x="478" y="99" type="curve"/>
      <point x="506" y="326" type="line" smooth="yes"/>
      <point x="510" y="355"/>
      <point x="509" y="381"/>
      <point x="504" y="405" type="curve" smooth="yes"/>
      <point x="499" y="429"/>
      <point x="491" y="450"/>
      <point x="479" y="467" type="curve" smooth="yes"/>
      <point x="467" y="484"/>
      <point x="449" y="498"/>
      <point x="429" y="507" type="curve" smooth="yes"/>
      <point x="408" y="516"/>
      <point x="384" y="521"/>
      <point x="356" y="521" type="curve" smooth="yes"/>
      <point x="324" y="521"/>
      <point x="295" y="515"/>
      <point x="270" y="503" type="curve" smooth="yes"/>
      <point x="245" y="491"/>
      <point x="220" y="476"/>
      <point x="198" y="457" type="curve"/>
      <point x="233" y="743" type="line"/>
      <point x="110" y="743" type="line"/>
      <point x="34" y="743" type="line"/>
      <point x="27" y="684" type="line" smooth="yes"/>
      <point x="25" y="667"/>
      <point x="32" y="657"/>
      <point x="48" y="653" type="curve"/>
      <point x="49" y="653"/>
      <point x="51" y="652"/>
      <point x="54" y="652" type="curve" smooth="yes"/>
      <point x="57" y="652"/>
      <point x="62" y="650"/>
      <point x="69" y="649" type="curve" smooth="yes"/>
      <point x="76" y="648"/>
      <point x="86" y="646"/>
      <point x="98" y="644" type="curve"/>
      <point x="46" y="221" type="line"/>
      <point x="37" y="149" type="line"/>
      <point x="31" y="99" type="line"/>
      <point x="18" y="0" type="line"/>
      <point x="142" y="0" type="line"/>
      <point x="157" y="124" type="line"/>
      <point x="188" y="371" type="line"/>
      <point x="207" y="388"/>
      <point x="225" y="400"/>
      <point x="245" y="410" type="curve" smooth="yes"/>
      <point x="265" y="420"/>
      <point x="286" y="425"/>
      <point x="307" y="425" type="curve" smooth="yes"/>
      <point x="336" y="425"/>
      <point x="357" y="416"/>
      <point x="369" y="399" type="curve" smooth="yes"/>
      <point x="381" y="382"/>
      <point x="386" y="357"/>
      <point x="382" y="326" type="curve" smooth="yes"/>
      <point x="342" y="0" type="line"/>
      <point x="465" y="0" type="line"/>
      <point x="541" y="0" type="line"/>
      <point x="548" y="59" type="line" smooth="yes"/>
      <point x="550" y="76"/>
      <point x="543" y="86"/>
      <point x="527" y="90" type="curve"/>
    </contour>
    <contour>
      <point x="285" y="257" type="move" name="center"/>
    </contour>
    <contour>
      <point x="285" y="0" type="move" name="bottom"/>
    </contour>
    <contour>
      <point x="285" y="513" type="move" name="top"/>
    </contour>
  </outline>
</glyph>
<glyph name="i" format="1">
  <advance width="282"/>
  <unicode hex="0069"/>
  <note>
    i
  </note>
  <outline>
    <contour>
      <point x="224" y="90"/>
      <point x="221" y="90"/>
      <point x="218" y="91" type="curve" smooth="yes"/>
      <point x="215" y="92"/>
      <point x="211" y="93"/>
      <point x="204" y="94" type="curve" smooth="yes"/>
      <point x="197" y="95"/>
      <point x="187" y="97"/>
      <point x="175" y="99" type="curve"/>
      <point x="226" y="513" type="line"/>
      <point x="102" y="513" type="line"/>
      <point x="27" y="513" type="line"/>
      <point x="19" y="454" type="line" smooth="yes"/>
      <point x="17" y="437"/>
      <point x="25" y="427"/>
      <point x="41" y="423" type="curve"/>
      <point x="42" y="423"/>
      <point x="44" y="422"/>
      <point x="47" y="422" type="curve"/>
      <point x="50" y="421"/>
      <point x="54" y="420"/>
      <point x="61" y="419" type="curve" smooth="yes"/>
      <point x="68" y="418"/>
      <point x="78" y="416"/>
      <point x="90" y="414" type="curve"/>
      <point x="52" y="99" type="line"/>
      <point x="39" y="0" type="line"/>
      <point x="163" y="0" type="line"/>
      <point x="239" y="0" type="line"/>
      <point x="246" y="59" type="line" smooth="yes"/>
      <point x="248" y="76"/>
      <point x="241" y="86"/>
      <point x="225" y="90" type="curve"/>
    </contour>
    <contour>
      <point x="264" y="673"/>
      <point x="263" y="684"/>
      <point x="260" y="694" type="curve" smooth="yes"/>
      <point x="257" y="704"/>
      <point x="252" y="711"/>
      <point x="246" y="718" type="curve" smooth="yes"/>
      <point x="240" y="725"/>
      <point x="232" y="731"/>
      <point x="223" y="735" type="curve" smooth="yes"/>
      <point x="214" y="739"/>
      <point x="203" y="742"/>
      <point x="192" y="742" type="curve" smooth="yes"/>
      <point x="181" y="742"/>
      <point x="171" y="739"/>
      <point x="161" y="735" type="curve" smooth="yes"/>
      <point x="151" y="731"/>
      <point x="143" y="725"/>
      <point x="135" y="718" type="curve" smooth="yes"/>
      <point x="127" y="711"/>
      <point x="120" y="704"/>
      <point x="115" y="694" type="curve" smooth="yes"/>
      <point x="110" y="684"/>
      <point x="106" y="673"/>
      <point x="105" y="662" type="curve" smooth="yes"/>
      <point x="104" y="651"/>
      <point x="104" y="641"/>
      <point x="107" y="632" type="curve" smooth="yes"/>
      <point x="110" y="623"/>
      <point x="115" y="615"/>
      <point x="121" y="608" type="curve" smooth="yes"/>
      <point x="127" y="601"/>
      <point x="135" y="595"/>
      <point x="144" y="591" type="curve" smooth="yes"/>
      <point x="153" y="587"/>
      <point x="162" y="585"/>
      <point x="173" y="585" type="curve" smooth="yes"/>
      <point x="184" y="585"/>
      <point x="195" y="587"/>
      <point x="205" y="591" type="curve" smooth="yes"/>
      <point x="215" y="595"/>
      <point x="224" y="601"/>
      <point x="232" y="608" type="curve" smooth="yes"/>
      <point x="240" y="615"/>
      <point x="248" y="623"/>
      <point x="253" y="632" type="curve" smooth="yes"/>
      <point x="258" y="641"/>
      <point x="262" y="651"/>
      <point x="263" y="662" type="curve" smooth="yes"/>
    </contour>
    <contour>
      <point x="141" y="0" type="move" name="bottom"/>
    </contour>
  </outline>
</glyph>
<glyph name="j" format="1">
  <advance width="383"/>
  <unicode hex="006A"/>
  <note>
    j
  </note>
  <outline>
    <contour>
      <point x="359" y="703"/>
      <point x="353" y="711"/>
      <point x="347" y="718" type="curve" smooth="yes"/>
      <point x="341" y="725"/>
      <point x="333" y="731"/>
      <point x="324" y="735" type="curve" smooth="yes"/>
      <point x="315" y="739"/>
      <point x="305" y="741"/>
      <point x="294" y="741" type="curve" smooth="yes"/>
      <point x="283" y="741"/>
      <point x="273" y="739"/>
      <point x="263" y="735" type="curve" smooth="yes"/>
      <point x="253" y="731"/>
      <point x="244" y="725"/>
      <point x="236" y="718" type="curve" smooth="yes"/>
      <point x="228" y="711"/>
      <point x="221" y="703"/>
      <point x="216" y="693" type="curve" smooth="yes"/>
      <point x="211" y="683"/>
      <point x="207" y="673"/>
      <point x="206" y="662" type="curve" smooth="yes"/>
      <point x="205" y="651"/>
      <point x="206" y="641"/>
      <point x="209" y="632" type="curve" smooth="yes"/>
      <point x="212" y="623"/>
      <point x="217" y="615"/>
      <point x="223" y="608" type="curve" smooth="yes"/>
      <point x="229" y="601"/>
      <point x="236" y="595"/>
      <point x="245" y="591" type="curve" smooth="yes"/>
      <point x="254" y="587"/>
      <point x="264" y="585"/>
      <point x="275" y="585" type="curve" smooth="yes"/>
      <point x="286" y="585"/>
      <point x="297" y="587"/>
      <point x="307" y="591" type="curve" smooth="yes"/>
      <point x="317" y="595"/>
      <point x="326" y="601"/>
      <point x="334" y="608" type="curve" smooth="yes"/>
      <point x="342" y="615"/>
      <point x="349" y="623"/>
      <point x="354" y="632" type="curve" smooth="yes"/>
      <point x="359" y="641"/>
      <point x="363" y="651"/>
      <point x="364" y="662" type="curve" smooth="yes"/>
      <point x="365" y="673"/>
      <point x="365" y="683"/>
      <point x="362" y="693" type="curve" smooth="yes"/>
    </contour>
    <contour>
      <point x="204" y="513" type="line"/>
      <point x="128" y="513" type="line"/>
      <point x="121" y="454" type="line" smooth="yes"/>
      <point x="119" y="437"/>
      <point x="126" y="427"/>
      <point x="142" y="423" type="curve"/>
      <point x="143" y="423"/>
      <point x="145" y="422"/>
      <point x="148" y="422" type="curve" smooth="yes"/>
      <point x="151" y="422"/>
      <point x="156" y="420"/>
      <point x="163" y="419" type="curve" smooth="yes"/>
      <point x="170" y="418"/>
      <point x="180" y="416"/>
      <point x="192" y="414" type="curve"/>
      <point x="139" y="-17" type="line" smooth="yes"/>
      <point x="137" y="-30"/>
      <point x="134" y="-42"/>
      <point x="131" y="-51" type="curve" smooth="yes"/>
      <point x="128" y="-60"/>
      <point x="124" y="-68"/>
      <point x="118" y="-73" type="curve"/>
      <point x="112" y="-79"/>
      <point x="105" y="-83"/>
      <point x="96" y="-85" type="curve" smooth="yes"/>
      <point x="87" y="-87"/>
      <point x="76" y="-88"/>
      <point x="64" y="-88" type="curve" smooth="yes"/>
      <point x="52" y="-88"/>
      <point x="44" y="-89"/>
      <point x="39" y="-91" type="curve" smooth="yes"/>
      <point x="34" y="-93"/>
      <point x="31" y="-97"/>
      <point x="29" y="-104" type="curve"/>
      <point x="17" y="-170" type="line"/>
      <point x="27" y="-173"/>
      <point x="37" y="-177"/>
      <point x="47" y="-178" type="curve" smooth="yes"/>
      <point x="57" y="-179"/>
      <point x="67" y="-180"/>
      <point x="79" y="-180" type="curve" smooth="yes"/>
      <point x="109" y="-180"/>
      <point x="135" y="-175"/>
      <point x="157" y="-167" type="curve"/>
      <point x="179" y="-158"/>
      <point x="196" y="-147"/>
      <point x="211" y="-132" type="curve" smooth="yes"/>
      <point x="226" y="-117"/>
      <point x="238" y="-100"/>
      <point x="246" y="-80" type="curve" smooth="yes"/>
      <point x="254" y="-60"/>
      <point x="259" y="-39"/>
      <point x="262" y="-17" type="curve" smooth="yes"/>
      <point x="327" y="513" type="line"/>
    </contour>
  </outline>
</glyph>
<glyph name="k" format="1">
  <advance width="562"/>
  <unicode hex="006B"/>
  <note>
    k
  </note>
  <outline>
    <contour>
      <point x="542" y="513" type="line"/>
      <point x="433" y="513" type="line" smooth="yes"/>
      <point x="430" y="513"/>
      <point x="426" y="513"/>
      <point x="422" y="512" type="curve"/>
      <point x="423" y="513" type="line"/>
      <point x="300" y="513" type="line"/>
      <point x="293" y="454" type="line" smooth="yes"/>
      <point x="291" y="437"/>
      <point x="298" y="427"/>
      <point x="314" y="423" type="curve"/>
      <point x="315" y="423"/>
      <point x="317" y="422"/>
      <point x="322" y="421" type="curve"/>
      <point x="240" y="334" type="line" smooth="yes"/>
      <point x="234" y="328"/>
      <point x="229" y="323"/>
      <point x="224" y="321" type="curve" smooth="yes"/>
      <point x="219" y="319"/>
      <point x="212" y="318"/>
      <point x="204" y="318" type="curve" smooth="yes"/>
      <point x="181" y="318" type="line"/>
      <point x="233" y="743" type="line"/>
      <point x="110" y="743" type="line"/>
      <point x="34" y="743" type="line"/>
      <point x="27" y="684" type="line" smooth="yes"/>
      <point x="25" y="667"/>
      <point x="32" y="657"/>
      <point x="48" y="653" type="curve"/>
      <point x="49" y="653"/>
      <point x="51" y="652"/>
      <point x="54" y="652" type="curve"/>
      <point x="57" y="651"/>
      <point x="62" y="650"/>
      <point x="69" y="649" type="curve" smooth="yes"/>
      <point x="76" y="648"/>
      <point x="86" y="646"/>
      <point x="98" y="644" type="curve"/>
      <point x="46" y="221" type="line"/>
      <point x="18" y="0" type="line"/>
      <point x="142" y="0" type="line"/>
      <point x="166" y="201" type="line"/>
      <point x="167" y="201" type="line"/>
      <point x="171" y="235" type="line"/>
      <point x="199" y="235" type="line" smooth="yes"/>
      <point x="209" y="235"/>
      <point x="216" y="234"/>
      <point x="221" y="232" type="curve" smooth="yes"/>
      <point x="226" y="230"/>
      <point x="230" y="225"/>
      <point x="234" y="217" type="curve"/>
      <point x="341" y="22" type="line"/>
      <point x="345" y="14"/>
      <point x="351" y="8"/>
      <point x="357" y="5" type="curve" smooth="yes"/>
      <point x="363" y="2"/>
      <point x="370" y="0"/>
      <point x="380" y="0" type="curve" smooth="yes"/>
      <point x="436" y="0" type="line"/>
      <point x="492" y="0" type="line"/>
      <point x="512" y="0" type="line"/>
      <point x="519" y="59" type="line" smooth="yes"/>
      <point x="521" y="76"/>
      <point x="514" y="86"/>
      <point x="498" y="90" type="curve"/>
      <point x="496" y="90"/>
      <point x="492" y="91"/>
      <point x="488" y="92" type="curve" smooth="yes"/>
      <point x="484" y="93"/>
      <point x="477" y="93"/>
      <point x="467" y="94" type="curve" smooth="yes"/>
      <point x="457" y="95"/>
      <point x="447" y="97"/>
      <point x="436" y="99" type="curve"/>
      <point x="352" y="249" type="line"/>
      <point x="348" y="257"/>
      <point x="343" y="264"/>
      <point x="338" y="271" type="curve" smooth="yes"/>
      <point x="333" y="278"/>
      <point x="328" y="283"/>
      <point x="322" y="288" type="curve"/>
      <point x="330" y="292"/>
      <point x="336" y="297"/>
      <point x="343" y="303" type="curve" smooth="yes"/>
      <point x="350" y="309"/>
      <point x="356" y="316"/>
      <point x="363" y="323" type="curve" smooth="yes"/>
      <point x="450" y="415" type="line"/>
      <point x="460" y="416"/>
      <point x="470" y="418"/>
      <point x="479" y="419" type="curve" smooth="yes"/>
      <point x="488" y="420"/>
      <point x="494" y="421"/>
      <point x="498" y="422" type="curve" smooth="yes"/>
      <point x="502" y="423"/>
      <point x="505" y="423"/>
      <point x="507" y="423" type="curve"/>
      <point x="524" y="427"/>
      <point x="534" y="437"/>
      <point x="536" y="454" type="curve" smooth="yes"/>
      <point x="543" y="513" type="line"/>
    </contour>
    <contour>
      <point x="281" y="513" type="move" name="top"/>
    </contour>
    <contour>
      <point x="281" y="0" type="move" name="bottom"/>
    </contour>
  </outline>
</glyph>
<glyph name="l" format="1">
  <advance width="251"/>
  <unicode hex="006C"/>
  <note>
    l
  </note>
  <outline>
    <contour>
      <point x="203" y="90"/>
      <point x="201" y="90"/>
      <point x="198" y="91" type="curve" smooth="yes"/>
      <point x="195" y="92"/>
      <point x="190" y="93"/>
      <point x="183" y="94" type="curve" smooth="yes"/>
      <point x="176" y="95"/>
      <point x="166" y="97"/>
      <point x="154" y="99" type="curve"/>
      <point x="233" y="743" type="line"/>
      <point x="110" y="743" type="line"/>
      <point x="34" y="743" type="line"/>
      <point x="27" y="684" type="line" smooth="yes"/>
      <point x="25" y="667"/>
      <point x="32" y="657"/>
      <point x="48" y="653" type="curve"/>
      <point x="49" y="653"/>
      <point x="51" y="652"/>
      <point x="54" y="652" type="curve" smooth="yes"/>
      <point x="57" y="652"/>
      <point x="62" y="650"/>
      <point x="69" y="649" type="curve" smooth="yes"/>
      <point x="76" y="648"/>
      <point x="86" y="646"/>
      <point x="98" y="644" type="curve"/>
      <point x="62" y="351" type="line"/>
      <point x="46" y="221" type="line"/>
      <point x="31" y="99" type="line"/>
      <point x="18" y="0" type="line"/>
      <point x="19" y="0" type="line"/>
      <point x="142" y="0" type="line"/>
      <point x="218" y="0" type="line"/>
      <point x="225" y="59" type="line" smooth="yes"/>
      <point x="227" y="76"/>
      <point x="220" y="86"/>
      <point x="204" y="90" type="curve"/>
    </contour>
    <contour>
      <point x="126" y="0" type="move" name="bottom"/>
    </contour>
    <contour>
      <point x="126" y="513" type="move" name="top"/>
    </contour>
    <contour>
      <point x="231" y="513" type="move" name="topright"/>
    </contour>
    <contour>
      <point x="126" y="257" type="move" name="center"/>
    </contour>
  </outline>
</glyph>
<glyph name="p" format="1">
  <advance width="643"/>
  <unicode hex="0070"/>
  <note>
    p
  </note>
  <outline>
    <contour>
      <point x="613" y="404"/>
      <point x="603" y="432"/>
      <point x="589" y="454" type="curve" smooth="yes"/>
      <point x="575" y="476"/>
      <point x="557" y="493"/>
      <point x="535" y="505" type="curve" smooth="yes"/>
      <point x="513" y="517"/>
      <point x="488" y="522"/>
      <point x="460" y="522" type="curve" smooth="yes"/>
      <point x="424" y="522"/>
      <point x="393" y="515"/>
      <point x="364" y="500" type="curve" smooth="yes"/>
      <point x="335" y="485"/>
      <point x="309" y="467"/>
      <point x="285" y="443" type="curve"/>
      <point x="281" y="490" type="line"/>
      <point x="280" y="498"/>
      <point x="277" y="503"/>
      <point x="272" y="507" type="curve" smooth="yes"/>
      <point x="267" y="511"/>
      <point x="260" y="513"/>
      <point x="252" y="513" type="curve" smooth="yes"/>
      <point x="177" y="513" type="line"/>
      <point x="101" y="513" type="line"/>
      <point x="94" y="454" type="line" smooth="yes"/>
      <point x="92" y="437"/>
      <point x="99" y="427"/>
      <point x="115" y="423" type="curve"/>
      <point x="116" y="423"/>
      <point x="118" y="422"/>
      <point x="121" y="422" type="curve" smooth="yes"/>
      <point x="124" y="422"/>
      <point x="129" y="420"/>
      <point x="136" y="419" type="curve" smooth="yes"/>
      <point x="143" y="418"/>
      <point x="153" y="416"/>
      <point x="165" y="414" type="curve"/>
      <point x="105" y="-68" type="line"/>
      <point x="92" y="-70"/>
      <point x="82" y="-73"/>
      <point x="75" y="-74" type="curve" smooth="yes"/>
      <point x="68" y="-75"/>
      <point x="63" y="-76"/>
      <point x="60" y="-76" type="curve" smooth="yes"/>
      <point x="57" y="-76"/>
      <point x="55" y="-77"/>
      <point x="54" y="-77" type="curve"/>
      <point x="37" y="-81"/>
      <point x="27" y="-92"/>
      <point x="25" y="-109" type="curve" smooth="yes"/>
      <point x="18" y="-167" type="line"/>
      <point x="93" y="-167" type="line"/>
      <point x="217" y="-167" type="line"/>
      <point x="292" y="-167" type="line"/>
      <point x="300" y="-109" type="line" smooth="yes"/>
      <point x="302" y="-92"/>
      <point x="294" y="-81"/>
      <point x="278" y="-77" type="curve"/>
      <point x="277" y="-77"/>
      <point x="275" y="-77"/>
      <point x="272" y="-76" type="curve" smooth="yes"/>
      <point x="269" y="-75"/>
      <point x="265" y="-75"/>
      <point x="258" y="-74" type="curve" smooth="yes"/>
      <point x="251" y="-73"/>
      <point x="241" y="-70"/>
      <point x="229" y="-68" type="curve"/>
      <point x="243" y="43" type="line"/>
      <point x="257" y="27"/>
      <point x="273" y="15"/>
      <point x="292" y="6" type="curve" smooth="yes"/>
      <point x="311" y="-3"/>
      <point x="335" y="-7"/>
      <point x="364" y="-7" type="curve" smooth="yes"/>
      <point x="398" y="-7"/>
      <point x="429" y="-1"/>
      <point x="458" y="13" type="curve" smooth="yes"/>
      <point x="487" y="27"/>
      <point x="513" y="45"/>
      <point x="535" y="69" type="curve" smooth="yes"/>
      <point x="557" y="93"/>
      <point x="575" y="121"/>
      <point x="589" y="154" type="curve" smooth="yes"/>
      <point x="603" y="187"/>
      <point x="613" y="223"/>
      <point x="618" y="261" type="curve" smooth="yes"/>
      <point x="623" y="303"/>
      <point x="623" y="339"/>
      <point x="618" y="372" type="curve" smooth="yes"/>
    </contour>
    <contour>
      <point x="464" y="161"/>
      <point x="453" y="143"/>
      <point x="441" y="129" type="curve" smooth="yes"/>
      <point x="429" y="115"/>
      <point x="415" y="104"/>
      <point x="399" y="97" type="curve" smooth="yes"/>
      <point x="383" y="90"/>
      <point x="366" y="86"/>
      <point x="347" y="86" type="curve" smooth="yes"/>
      <point x="328" y="86"/>
      <point x="311" y="90"/>
      <point x="295" y="97" type="curve" smooth="yes"/>
      <point x="279" y="104"/>
      <point x="266" y="116"/>
      <point x="254" y="133" type="curve"/>
      <point x="282" y="363" type="line"/>
      <point x="300" y="383"/>
      <point x="319" y="398"/>
      <point x="338" y="409" type="curve" smooth="yes"/>
      <point x="358" y="420"/>
      <point x="380" y="425"/>
      <point x="406" y="425" type="curve" smooth="yes"/>
      <point x="422" y="425"/>
      <point x="437" y="422"/>
      <point x="449" y="416" type="curve" smooth="yes"/>
      <point x="461" y="410"/>
      <point x="471" y="400"/>
      <point x="478" y="387" type="curve" smooth="yes"/>
      <point x="485" y="374"/>
      <point x="490" y="358"/>
      <point x="492" y="337" type="curve" smooth="yes"/>
      <point x="494" y="316"/>
      <point x="494" y="290"/>
      <point x="490" y="260" type="curve" smooth="yes"/>
      <point x="486" y="230"/>
      <point x="480" y="205"/>
      <point x="472" y="183" type="curve" smooth="yes"/>
    </contour>
    <contour>
      <point x="322" y="513" type="move" name="top"/>
    </contour>
    <contour>
      <point x="322" y="0" type="move" name="bottom"/>
    </contour>
  </outline>
</glyph>
<glyph name="s" format="1">
  <advance width="439"/>
  <unicode hex="0073"/>
  <note>
    s
  </note>
  <outline>
    <contour>
      <point x="395" y="231"/>
      <point x="387" y="243"/>
      <point x="376" y="253" type="curve"/>
      <point x="365" y="264"/>
      <point x="353" y="272"/>
      <point x="339" y="279" type="curve" smooth="yes"/>
      <point x="325" y="286"/>
      <point x="311" y="293"/>
      <point x="296" y="298" type="curve" smooth="yes"/>
      <point x="281" y="303"/>
      <point x="265" y="308"/>
      <point x="251" y="312" type="curve" smooth="yes"/>
      <point x="237" y="316"/>
      <point x="224" y="322"/>
      <point x="213" y="328" type="curve" smooth="yes"/>
      <point x="202" y="334"/>
      <point x="193" y="339"/>
      <point x="187" y="347" type="curve" smooth="yes"/>
      <point x="181" y="355"/>
      <point x="179" y="364"/>
      <point x="180" y="375" type="curve" smooth="yes"/>
      <point x="182" y="392"/>
      <point x="191" y="406"/>
      <point x="206" y="416" type="curve" smooth="yes"/>
      <point x="221" y="426"/>
      <point x="241" y="431"/>
      <point x="265" y="431" type="curve" smooth="yes"/>
      <point x="288" y="431"/>
      <point x="312" y="428"/>
      <point x="324" y="424" type="curve"/>
      <point x="323" y="385"/>
      <point x="323" y="373"/>
      <point x="323" y="368" type="curve"/>
      <point x="324" y="356"/>
      <point x="331" y="349"/>
      <point x="344" y="349" type="curve" smooth="yes"/>
      <point x="386" y="349" type="line"/>
      <point x="398" y="349" type="line"/>
      <point x="402" y="349" type="line"/>
      <point x="420" y="494" type="line"/>
      <point x="420" y="494" type="line"/>
      <point x="351" y="517"/>
      <point x="324" y="521"/>
      <point x="274" y="521" type="curve" smooth="yes"/>
      <point x="242" y="521"/>
      <point x="214" y="516"/>
      <point x="189" y="508" type="curve" smooth="yes"/>
      <point x="164" y="500"/>
      <point x="142" y="488"/>
      <point x="124" y="474" type="curve" smooth="yes"/>
      <point x="106" y="460"/>
      <point x="92" y="443"/>
      <point x="81" y="424" type="curve" smooth="yes"/>
      <point x="70" y="405"/>
      <point x="64" y="385"/>
      <point x="61" y="364" type="curve" smooth="yes"/>
      <point x="58" y="341"/>
      <point x="60" y="322"/>
      <point x="65" y="306" type="curve" smooth="yes"/>
      <point x="70" y="290"/>
      <point x="79" y="277"/>
      <point x="89" y="266" type="curve" smooth="yes"/>
      <point x="99" y="255"/>
      <point x="112" y="246"/>
      <point x="126" y="239" type="curve" smooth="yes"/>
      <point x="140" y="232"/>
      <point x="155" y="225"/>
      <point x="170" y="220" type="curve" smooth="yes"/>
      <point x="215" y="205" type="line"/>
      <point x="230" y="201"/>
      <point x="242" y="196"/>
      <point x="253" y="190" type="curve" smooth="yes"/>
      <point x="264" y="184"/>
      <point x="273" y="178"/>
      <point x="279" y="170" type="curve" smooth="yes"/>
      <point x="285" y="162"/>
      <point x="287" y="153"/>
      <point x="286" y="141" type="curve"/>
      <point x="285" y="133"/>
      <point x="283" y="125"/>
      <point x="279" y="117" type="curve" smooth="yes"/>
      <point x="275" y="109"/>
      <point x="269" y="104"/>
      <point x="261" y="98" type="curve" smooth="yes"/>
      <point x="253" y="92"/>
      <point x="245" y="88"/>
      <point x="234" y="84" type="curve"/>
      <point x="223" y="81"/>
      <point x="210" y="79"/>
      <point x="195" y="79" type="curve" smooth="yes"/>
      <point x="173" y="79"/>
      <point x="141" y="79"/>
      <point x="115" y="87" type="curve"/>
      <point x="116" y="127"/>
      <point x="116" y="141"/>
      <point x="116" y="146" type="curve"/>
      <point x="115" y="158"/>
      <point x="108" y="165"/>
      <point x="95" y="165" type="curve" smooth="yes"/>
      <point x="54" y="165" type="line"/>
      <point x="42" y="165" type="line"/>
      <point x="37" y="165" type="line"/>
      <point x="26" y="70" type="line"/>
      <point x="20" y="20" type="line"/>
      <point x="20" y="20" type="line"/>
      <point x="55" y="6"/>
      <point x="115" y="-8"/>
      <point x="179" y="-8" type="curve" smooth="yes"/>
      <point x="212" y="-8"/>
      <point x="241" y="-4"/>
      <point x="268" y="5" type="curve" smooth="yes"/>
      <point x="295" y="13"/>
      <point x="318" y="25"/>
      <point x="337" y="40" type="curve" smooth="yes"/>
      <point x="356" y="55"/>
      <point x="371" y="73"/>
      <point x="383" y="94" type="curve" smooth="yes"/>
      <point x="395" y="115"/>
      <point x="402" y="138"/>
      <point x="405" y="163" type="curve" smooth="yes"/>
      <point x="408" y="184"/>
      <point x="405" y="201"/>
      <point x="400" y="216" type="curve" smooth="yes"/>
    </contour>
    <contour>
      <point x="220" y="513" type="move" name="top"/>
    </contour>
    <contour>
      <point x="220" y="0" type="move" name="bottom"/>
    </contour>
  </outline>
</glyph>
<glyph name="t" format="1">
  <advance width="381"/>
  <unicode hex="0074"/>
  <note>
    t
  </note>
  <outline>
    <contour>
      <point x="204" y="-8"/>
      <point x="228" y="-4"/>
      <point x="252" y="4" type="curve" smooth="yes"/>
      <point x="276" y="12"/>
      <point x="299" y="23"/>
      <point x="319" y="38" type="curve"/>
      <point x="289" y="98" type="line" smooth="yes"/>
      <point x="287" y="102"/>
      <point x="284" y="104"/>
      <point x="282" y="106" type="curve" smooth="yes"/>
      <point x="280" y="108"/>
      <point x="278" y="108"/>
      <point x="274" y="108" type="curve" smooth="yes"/>
      <point x="271" y="108"/>
      <point x="267" y="108"/>
      <point x="264" y="106" type="curve" smooth="yes"/>
      <point x="261" y="104"/>
      <point x="258" y="102"/>
      <point x="254" y="100" type="curve" smooth="yes"/>
      <point x="250" y="98"/>
      <point x="244" y="96"/>
      <point x="239" y="94" type="curve" smooth="yes"/>
      <point x="234" y="92"/>
      <point x="228" y="92"/>
      <point x="220" y="92" type="curve" smooth="yes"/>
      <point x="207" y="92"/>
      <point x="196" y="96"/>
      <point x="189" y="105" type="curve" smooth="yes"/>
      <point x="182" y="114"/>
      <point x="180" y="126"/>
      <point x="182" y="142" type="curve" smooth="yes"/>
      <point x="216" y="420" type="line"/>
      <point x="351" y="420" type="line"/>
      <point x="362" y="508" type="line"/>
      <point x="227" y="508" type="line"/>
      <point x="247" y="670" type="line"/>
      <point x="183" y="670" type="line" smooth="yes"/>
      <point x="176" y="670"/>
      <point x="169" y="668"/>
      <point x="164" y="664" type="curve" smooth="yes"/>
      <point x="159" y="660"/>
      <point x="155" y="656"/>
      <point x="153" y="649" type="curve" smooth="yes"/>
      <point x="109" y="509" type="line"/>
      <point x="25" y="496" type="line"/>
      <point x="19" y="446" type="line" smooth="yes"/>
      <point x="18" y="437"/>
      <point x="20" y="431"/>
      <point x="24" y="427" type="curve" smooth="yes"/>
      <point x="28" y="423"/>
      <point x="34" y="420"/>
      <point x="41" y="420" type="curve" smooth="yes"/>
      <point x="93" y="420" type="line"/>
      <point x="57" y="134" type="line" smooth="yes"/>
      <point x="52" y="90"/>
      <point x="60" y="55"/>
      <point x="81" y="30" type="curve" smooth="yes"/>
      <point x="102" y="5"/>
      <point x="135" y="-8"/>
      <point x="179" y="-8" type="curve" smooth="yes"/>
    </contour>
    <contour>
      <point x="191" y="0" type="move" name="bottom"/>
    </contour>
    <contour>
      <point x="191" y="513" type="move" name="top"/>
    </contour>
    <contour>
      <point x="361" y="513" type="move" name="topright"/>
    </contour>
    <contour>
      <point x="191" y="257" type="move" name="center"/>
    </contour>
  </outline>
</glyph>
<glyph name="u" format="1">
  <advance width="591"/>
  <unicode hex="0075"/>
  <note>
    u
  </note>
  <outline>
    <contour>
      <point x="541" y="91"/>
      <point x="541" y="91"/>
      <point x="499" y="99" type="curve"/>
      <point x="550" y="513" type="line"/>
      <point x="426" y="513" type="line"/>
      <point x="426" y="513" type="line"/>
      <point x="351" y="513" type="line"/>
      <point x="343" y="454" type="line" smooth="yes"/>
      <point x="341" y="437"/>
      <point x="349" y="427"/>
      <point x="365" y="423" type="curve"/>
      <point x="373" y="422"/>
      <point x="372" y="421"/>
      <point x="414" y="414" type="curve"/>
      <point x="381" y="142" type="line"/>
      <point x="362" y="125"/>
      <point x="343" y="112"/>
      <point x="323" y="103" type="curve" smooth="yes"/>
      <point x="303" y="94"/>
      <point x="282" y="89"/>
      <point x="261" y="89" type="curve" smooth="yes"/>
      <point x="232" y="89"/>
      <point x="211" y="97"/>
      <point x="199" y="114" type="curve" smooth="yes"/>
      <point x="187" y="131"/>
      <point x="182" y="156"/>
      <point x="186" y="187" type="curve" smooth="yes"/>
      <point x="226" y="513" type="line"/>
      <point x="103" y="513" type="line"/>
      <point x="103" y="513" type="line"/>
      <point x="27" y="513" type="line"/>
      <point x="20" y="454" type="line" smooth="yes"/>
      <point x="18" y="437"/>
      <point x="25" y="427"/>
      <point x="41" y="423" type="curve"/>
      <point x="49" y="422"/>
      <point x="49" y="422"/>
      <point x="91" y="414" type="curve"/>
      <point x="63" y="187" type="line" smooth="yes"/>
      <point x="59" y="158"/>
      <point x="59" y="132"/>
      <point x="64" y="108" type="curve" smooth="yes"/>
      <point x="69" y="84"/>
      <point x="77" y="64"/>
      <point x="90" y="47" type="curve" smooth="yes"/>
      <point x="103" y="30"/>
      <point x="119" y="15"/>
      <point x="139" y="6" type="curve" smooth="yes"/>
      <point x="159" y="-3"/>
      <point x="184" y="-8"/>
      <point x="212" y="-8" type="curve" smooth="yes"/>
      <point x="229" y="-8"/>
      <point x="245" y="-6"/>
      <point x="260" y="-3" type="curve"/>
      <point x="275" y="1"/>
      <point x="290" y="6"/>
      <point x="304" y="12" type="curve" smooth="yes"/>
      <point x="318" y="18"/>
      <point x="331" y="25"/>
      <point x="343" y="34" type="curve" smooth="yes"/>
      <point x="355" y="43"/>
      <point x="367" y="53"/>
      <point x="379" y="64" type="curve"/>
      <point x="383" y="23" type="line"/>
      <point x="386" y="8"/>
      <point x="395" y="0"/>
      <point x="411" y="0" type="curve" smooth="yes"/>
      <point x="487" y="0" type="line"/>
      <point x="563" y="0" type="line"/>
      <point x="570" y="59" type="line" smooth="yes"/>
      <point x="572" y="76"/>
      <point x="565" y="86"/>
      <point x="549" y="90" type="curve"/>
    </contour>
    <contour>
      <point x="532" y="10" type="move" name="ogonek"/>
    </contour>
    <contour>
      <point x="296" y="513" type="move" name="top"/>
    </contour>
    <contour>
      <point x="571" y="513" type="move" name="topright"/>
    </contour>
    <contour>
      <point x="296" y="0" type="move" name="bottom"/>
    </contour>
  </outline>
</glyph>
<glyph name="x" format="1">
  <advance width="615"/>
  <unicode hex="0078"/>
  <note>
    x
  </note>
  <outline>
    <contour>
      <point x="522" y="91"/>
      <point x="519" y="92"/>
      <point x="488" y="97" type="curve"/>
      <point x="396" y="270" type="line"/>
      <point x="516" y="416" type="line"/>
      <point x="550" y="421"/>
      <point x="553" y="422"/>
      <point x="560" y="423" type="curve"/>
      <point x="577" y="427"/>
      <point x="586" y="437"/>
      <point x="588" y="454" type="curve" smooth="yes"/>
      <point x="596" y="513" type="line"/>
      <point x="595" y="513" type="line"/>
      <point x="595" y="513" type="line"/>
      <point x="482" y="513" type="line"/>
      <point x="481" y="513" type="line"/>
      <point x="373" y="513" type="line"/>
      <point x="366" y="454" type="line" smooth="yes"/>
      <point x="364" y="437"/>
      <point x="371" y="427"/>
      <point x="387" y="423" type="curve"/>
      <point x="390" y="422"/>
      <point x="392" y="422"/>
      <point x="395" y="421" type="curve"/>
      <point x="348" y="359" type="line"/>
      <point x="344" y="353"/>
      <point x="339" y="348"/>
      <point x="336" y="342" type="curve" smooth="yes"/>
      <point x="333" y="336"/>
      <point x="330" y="331"/>
      <point x="328" y="325" type="curve"/>
      <point x="279" y="423" type="line"/>
      <point x="279" y="423" type="line"/>
      <point x="296" y="427"/>
      <point x="306" y="437"/>
      <point x="308" y="454" type="curve" smooth="yes"/>
      <point x="315" y="513" type="line"/>
      <point x="212" y="513" type="line"/>
      <point x="212" y="513" type="line"/>
      <point x="93" y="513" type="line"/>
      <point x="93" y="513" type="line"/>
      <point x="93" y="513" type="line"/>
      <point x="85" y="454" type="line" smooth="yes"/>
      <point x="83" y="437"/>
      <point x="91" y="427"/>
      <point x="107" y="423" type="curve"/>
      <point x="114" y="422"/>
      <point x="117" y="421"/>
      <point x="147" y="416" type="curve"/>
      <point x="231" y="264" type="line"/>
      <point x="99" y="97" type="line"/>
      <point x="65" y="92"/>
      <point x="63" y="91"/>
      <point x="56" y="90" type="curve"/>
      <point x="39" y="86"/>
      <point x="29" y="76"/>
      <point x="27" y="59" type="curve" smooth="yes"/>
      <point x="20" y="0" type="line"/>
      <point x="23" y="0" type="line"/>
      <point x="68" y="0" type="line"/>
      <point x="95" y="0" type="line"/>
      <point x="134" y="0" type="line"/>
      <point x="242" y="0" type="line"/>
      <point x="249" y="59" type="line" smooth="yes"/>
      <point x="251" y="76"/>
      <point x="244" y="86"/>
      <point x="228" y="90" type="curve"/>
      <point x="226" y="90"/>
      <point x="224" y="91"/>
      <point x="222" y="91" type="curve"/>
      <point x="284" y="171" type="line" smooth="yes"/>
      <point x="290" y="179"/>
      <point x="296" y="189"/>
      <point x="300" y="201" type="curve"/>
      <point x="355" y="90" type="line"/>
      <point x="339" y="86"/>
      <point x="330" y="76"/>
      <point x="328" y="59" type="curve" smooth="yes"/>
      <point x="320" y="0" type="line"/>
      <point x="420" y="0" type="line"/>
      <point x="467" y="0" type="line"/>
      <point x="495" y="0" type="line"/>
      <point x="539" y="0" type="line"/>
      <point x="543" y="0" type="line"/>
      <point x="550" y="59" type="line" smooth="yes"/>
      <point x="552" y="76"/>
      <point x="545" y="86"/>
      <point x="529" y="90" type="curve"/>
    </contour>
    <contour>
      <point x="308" y="513" type="move" name="top"/>
    </contour>
    <contour>
      <point x="308" y="0" type="move" name="bottom"/>
    </contour>
  </outline>
</glyph>
<glyph name="z" format="1">
  <advance width="505"/>
  <unicode hex="007A"/>
  <note>
    z
  </note>
  <outline>
    <contour>
      <point x="445" y="168" type="line"/>
      <point x="433" y="168" type="line"/>
      <point x="392" y="168" type="line" smooth="yes"/>
      <point x="379" y="168"/>
      <point x="370" y="161"/>
      <point x="366" y="149" type="curve"/>
      <point x="365" y="144"/>
      <point x="362" y="132"/>
      <point x="354" y="95" type="curve"/>
      <point x="174" y="95" type="line"/>
      <point x="458" y="416" type="line" smooth="yes"/>
      <point x="463" y="422"/>
      <point x="467" y="429"/>
      <point x="471" y="437" type="curve" smooth="yes"/>
      <point x="475" y="445"/>
      <point x="478" y="453"/>
      <point x="479" y="462" type="curve" smooth="yes"/>
      <point x="485" y="513" type="line"/>
      <point x="96" y="513" type="line"/>
      <point x="96" y="507" type="line"/>
      <point x="96" y="507" type="line"/>
      <point x="76" y="349" type="line"/>
      <point x="81" y="349" type="line"/>
      <point x="93" y="349" type="line"/>
      <point x="134" y="349" type="line" smooth="yes"/>
      <point x="147" y="349"/>
      <point x="155" y="356"/>
      <point x="159" y="368" type="curve"/>
      <point x="160" y="372"/>
      <point x="164" y="384"/>
      <point x="172" y="418" type="curve"/>
      <point x="333" y="418" type="line"/>
      <point x="47" y="94" type="line"/>
      <point x="40" y="87"/>
      <point x="36" y="80"/>
      <point x="32" y="72" type="curve" smooth="yes"/>
      <point x="28" y="64"/>
      <point x="26" y="58"/>
      <point x="25" y="52" type="curve"/>
      <point x="19" y="0" type="line"/>
      <point x="413" y="0" type="line"/>
      <point x="415" y="0" type="line"/>
      <point x="429" y="0" type="line"/>
      <point x="450" y="168" type="line"/>
    </contour>
    <contour>
      <point x="253" y="513" type="move" name="top"/>
    </contour>
    <contour>
      <point x="253" y="0" type="move" name="bottom"/>
    </contour>
  </outline>
</glyph>
<glyph name="asciitilde" format="1">
  <advance width="560"/>
  <unicode hex="007E"/>
  <note>
    asciitilde
  </note>
  <outline>
    <contour>
      <point x="355" y="324"/>
      <point x="344" y="326"/>
      <point x="332" y="331" type="curve" smooth="yes"/>
      <point x="320" y="336"/>
      <point x="307" y="340"/>
      <point x="293" y="346" type="curve"/>
      <point x="279" y="351"/>
      <point x="265" y="357"/>
      <point x="249" y="362" type="curve" smooth="yes"/>
      <point x="233" y="367"/>
      <point x="217" y="369"/>
      <point x="199" y="369" type="curve" smooth="yes"/>
      <point x="175" y="369"/>
      <point x="153" y="365"/>
      <point x="133" y="357" type="curve" smooth="yes"/>
      <point x="113" y="349"/>
      <point x="97" y="337"/>
      <point x="82" y="322" type="curve" smooth="yes"/>
      <point x="67" y="307"/>
      <point x="55" y="290"/>
      <point x="46" y="269" type="curve" smooth="yes"/>
      <point x="37" y="248"/>
      <point x="30" y="225"/>
      <point x="27" y="199" type="curve"/>
      <point x="126" y="199" type="line"/>
      <point x="129" y="221"/>
      <point x="136" y="238"/>
      <point x="148" y="250" type="curve" smooth="yes"/>
      <point x="160" y="262"/>
      <point x="175" y="268"/>
      <point x="194" y="268" type="curve" smooth="yes"/>
      <point x="205" y="268"/>
      <point x="216" y="266"/>
      <point x="228" y="261" type="curve" smooth="yes"/>
      <point x="240" y="256"/>
      <point x="253" y="251"/>
      <point x="267" y="245" type="curve" smooth="yes"/>
      <point x="281" y="239"/>
      <point x="295" y="235"/>
      <point x="311" y="230" type="curve" smooth="yes"/>
      <point x="327" y="225"/>
      <point x="343" y="223"/>
      <point x="361" y="223" type="curve" smooth="yes"/>
      <point x="385" y="223"/>
      <point x="406" y="227"/>
      <point x="426" y="235" type="curve" smooth="yes"/>
      <point x="446" y="243"/>
      <point x="463" y="254"/>
      <point x="478" y="269" type="curve" smooth="yes"/>
      <point x="493" y="284"/>
      <point x="505" y="302"/>
      <point x="514" y="323" type="curve" smooth="yes"/>
      <point x="523" y="344"/>
      <point x="530" y="367"/>
      <point x="533" y="393" type="curve"/>
      <point x="433" y="393" type="line"/>
      <point x="430" y="371"/>
      <point x="424" y="354"/>
      <point x="412" y="342" type="curve" smooth="yes"/>
      <point x="400" y="330"/>
      <point x="385" y="324"/>
      <point x="366" y="324" type="curve" smooth="yes"/>
    </contour>
  </outline>
</glyph>
<glyph name="cent" format="1">
  <advance width="483"/>
  <unicode hex="00A2"/>
  <note>
    cent
  </note>
  <outline>
    <contour>
      <point x="404" y="120" type="line"/>
      <point x="400" y="128"/>
      <point x="393" y="132"/>
      <point x="383" y="132" type="curve" smooth="yes"/>
      <point x="375" y="132"/>
      <point x="369" y="130"/>
      <point x="362" y="125" type="curve" smooth="yes"/>
      <point x="355" y="120"/>
      <point x="347" y="115"/>
      <point x="338" y="109" type="curve" smooth="yes"/>
      <point x="329" y="103"/>
      <point x="318" y="98"/>
      <point x="305" y="93" type="curve" smooth="yes"/>
      <point x="292" y="88"/>
      <point x="277" y="86"/>
      <point x="257" y="86" type="curve" smooth="yes"/>
      <point x="253" y="86" type="line"/>
      <point x="323" y="422" type="line"/>
      <point x="324" y="425" type="line"/>
      <point x="334" y="424"/>
      <point x="347" y="421"/>
      <point x="365" y="416" type="curve"/>
      <point x="364" y="376"/>
      <point x="364" y="353"/>
      <point x="364" y="344" type="curve"/>
      <point x="365" y="332"/>
      <point x="372" y="325"/>
      <point x="385" y="325" type="curve" smooth="yes"/>
      <point x="427" y="325" type="line"/>
      <point x="439" y="325" type="line"/>
      <point x="443" y="325" type="line"/>
      <point x="462" y="483" type="line"/>
      <point x="410" y="503"/>
      <point x="370" y="515"/>
      <point x="343" y="518" type="curve"/>
      <point x="351" y="555" type="line"/>
      <point x="351" y="556" type="line"/>
      <point x="367" y="628" type="line"/>
      <point x="321" y="628" type="line" smooth="yes"/>
      <point x="311" y="628"/>
      <point x="303" y="626"/>
      <point x="296" y="619" type="curve" smooth="yes"/>
      <point x="289" y="612"/>
      <point x="286" y="605"/>
      <point x="284" y="597" type="curve" smooth="yes"/>
      <point x="277" y="565" type="line"/>
      <point x="267" y="518" type="line"/>
      <point x="241" y="515"/>
      <point x="218" y="509"/>
      <point x="196" y="500" type="curve" smooth="yes"/>
      <point x="163" y="487"/>
      <point x="135" y="469"/>
      <point x="111" y="445" type="curve" smooth="yes"/>
      <point x="87" y="421"/>
      <point x="68" y="393"/>
      <point x="53" y="361" type="curve" smooth="yes"/>
      <point x="38" y="329"/>
      <point x="29" y="295"/>
      <point x="24" y="257" type="curve" smooth="yes"/>
      <point x="19" y="215"/>
      <point x="20" y="177"/>
      <point x="28" y="144" type="curve" smooth="yes"/>
      <point x="36" y="111"/>
      <point x="50" y="84"/>
      <point x="68" y="61" type="curve" smooth="yes"/>
      <point x="86" y="38"/>
      <point x="108" y="21"/>
      <point x="135" y="9" type="curve"/>
      <point x="143" y="6"/>
      <point x="150" y="3"/>
      <point x="159" y="0" type="curve"/>
      <point x="149" y="-46" type="line"/>
      <point x="136" y="-112" type="line"/>
      <point x="181" y="-112" type="line" smooth="yes"/>
      <point x="191" y="-112"/>
      <point x="199" y="-108"/>
      <point x="206" y="-102" type="curve"/>
      <point x="213" y="-95"/>
      <point x="217" y="-88"/>
      <point x="219" y="-80" type="curve" smooth="yes"/>
      <point x="222" y="-66" type="line"/>
      <point x="233" y="-8" type="line"/>
      <point x="248" y="-8"/>
      <point x="262" y="-6"/>
      <point x="277" y="-4" type="curve" smooth="yes"/>
      <point x="296" y="-1"/>
      <point x="314" y="3"/>
      <point x="332" y="9" type="curve"/>
      <point x="350" y="16"/>
      <point x="368" y="24"/>
      <point x="385" y="35" type="curve" smooth="yes"/>
      <point x="402" y="46"/>
      <point x="418" y="60"/>
      <point x="434" y="76" type="curve"/>
    </contour>
    <contour>
      <point x="147" y="205"/>
      <point x="148" y="229"/>
      <point x="151" y="256" type="curve" smooth="yes"/>
      <point x="154" y="282"/>
      <point x="159" y="306"/>
      <point x="167" y="327" type="curve" smooth="yes"/>
      <point x="175" y="348"/>
      <point x="185" y="365"/>
      <point x="198" y="380" type="curve" smooth="yes"/>
      <point x="211" y="395"/>
      <point x="226" y="406"/>
      <point x="243" y="414" type="curve"/>
      <point x="243" y="414"/>
      <point x="243" y="415"/>
      <point x="244" y="415" type="curve" smooth="yes"/>
      <point x="246" y="415" type="line"/>
      <point x="210" y="246" type="line"/>
      <point x="183" y="113" type="line"/>
      <point x="178" y="118"/>
      <point x="173" y="124"/>
      <point x="169" y="130" type="curve"/>
      <point x="160" y="145"/>
      <point x="153" y="163"/>
      <point x="150" y="184" type="curve" smooth="yes"/>
    </contour>
  </outline>
</glyph>
<glyph name="sterling" format="1">
  <advance width="632"/>
  <unicode hex="00A3"/>
  <note>
    sterling
  </note>
  <outline>
    <contour>
      <point x="47" y="300" type="line"/>
      <point x="143" y="300" type="line"/>
      <point x="127" y="170" type="line" smooth="yes"/>
      <point x="125" y="156"/>
      <point x="121" y="144"/>
      <point x="115" y="134" type="curve" smooth="yes"/>
      <point x="109" y="124"/>
      <point x="102" y="115"/>
      <point x="93" y="107" type="curve" smooth="yes"/>
      <point x="84" y="99"/>
      <point x="75" y="94"/>
      <point x="64" y="89" type="curve" smooth="yes"/>
      <point x="53" y="84"/>
      <point x="42" y="81"/>
      <point x="30" y="78" type="curve"/>
      <point x="20" y="0" type="line"/>
      <point x="500" y="0" type="line" smooth="yes"/>
      <point x="508" y="0"/>
      <point x="515" y="2"/>
      <point x="522" y="5" type="curve" smooth="yes"/>
      <point x="529" y="8"/>
      <point x="536" y="12"/>
      <point x="541" y="17" type="curve" smooth="yes"/>
      <point x="546" y="22"/>
      <point x="550" y="28"/>
      <point x="553" y="34" type="curve" smooth="yes"/>
      <point x="556" y="40"/>
      <point x="559" y="47"/>
      <point x="560" y="53" type="curve"/>
      <point x="566" y="105" type="line"/>
      <point x="273" y="105" type="line" smooth="yes"/>
      <point x="249" y="105"/>
      <point x="223" y="102"/>
      <point x="198" y="96" type="curve"/>
      <point x="214" y="111"/>
      <point x="228" y="127"/>
      <point x="238" y="144" type="curve" smooth="yes"/>
      <point x="248" y="161"/>
      <point x="254" y="181"/>
      <point x="257" y="203" type="curve" smooth="yes"/>
      <point x="269" y="300" type="line"/>
      <point x="439" y="300" type="line" smooth="yes"/>
      <point x="449" y="300"/>
      <point x="458" y="303"/>
      <point x="465" y="310" type="curve" smooth="yes"/>
      <point x="472" y="317"/>
      <point x="477" y="324"/>
      <point x="478" y="332" type="curve" smooth="yes"/>
      <point x="484" y="381" type="line"/>
      <point x="279" y="381" type="line"/>
      <point x="294" y="500" type="line" smooth="yes"/>
      <point x="299" y="540"/>
      <point x="311" y="571"/>
      <point x="331" y="593" type="curve" smooth="yes"/>
      <point x="351" y="615"/>
      <point x="378" y="627"/>
      <point x="412" y="627" type="curve" smooth="yes"/>
      <point x="423" y="627"/>
      <point x="433" y="626"/>
      <point x="441" y="624" type="curve" smooth="yes"/>
      <point x="449" y="622"/>
      <point x="456" y="617"/>
      <point x="463" y="613" type="curve" smooth="yes"/>
      <point x="470" y="609"/>
      <point x="476" y="604"/>
      <point x="481" y="598" type="curve" smooth="yes"/>
      <point x="486" y="592"/>
      <point x="492" y="584"/>
      <point x="497" y="577" type="curve" smooth="yes"/>
      <point x="505" y="566"/>
      <point x="516" y="561"/>
      <point x="528" y="561" type="curve" smooth="yes"/>
      <point x="536" y="561"/>
      <point x="547" y="564"/>
      <point x="558" y="569" type="curve"/>
      <point x="611" y="600" type="line"/>
      <point x="605" y="618"/>
      <point x="596" y="636"/>
      <point x="586" y="652" type="curve" smooth="yes"/>
      <point x="576" y="668"/>
      <point x="563" y="681"/>
      <point x="548" y="693" type="curve" smooth="yes"/>
      <point x="533" y="705"/>
      <point x="515" y="714"/>
      <point x="495" y="721" type="curve" smooth="yes"/>
      <point x="475" y="728"/>
      <point x="452" y="731"/>
      <point x="425" y="731" type="curve" smooth="yes"/>
      <point x="386" y="731"/>
      <point x="351" y="724"/>
      <point x="321" y="712" type="curve" smooth="yes"/>
      <point x="291" y="700"/>
      <point x="266" y="683"/>
      <point x="244" y="662" type="curve" smooth="yes"/>
      <point x="222" y="641"/>
      <point x="205" y="616"/>
      <point x="192" y="588" type="curve" smooth="yes"/>
      <point x="179" y="560"/>
      <point x="171" y="530"/>
      <point x="167" y="499" type="curve" smooth="yes"/>
      <point x="153" y="381" type="line"/>
      <point x="99" y="381" type="line" smooth="yes"/>
      <point x="85" y="381"/>
      <point x="74" y="377"/>
      <point x="66" y="369" type="curve" smooth="yes"/>
      <point x="58" y="361"/>
      <point x="53" y="351"/>
      <point x="52" y="340" type="curve" smooth="yes"/>
    </contour>
  </outline>
</glyph>
<glyph name="section" format="1">
  <advance width="509"/>
  <unicode hex="00A7"/>
  <note>
    section
  </note>
  <outline>
    <contour>
      <point x="489" y="667" type="line"/>
      <point x="472" y="686"/>
      <point x="450" y="701"/>
      <point x="422" y="713" type="curve" smooth="yes"/>
      <point x="394" y="725"/>
      <point x="363" y="730"/>
      <point x="328" y="730" type="curve" smooth="yes"/>
      <point x="296" y="730"/>
      <point x="268" y="726"/>
      <point x="243" y="718" type="curve" smooth="yes"/>
      <point x="218" y="710"/>
      <point x="196" y="698"/>
      <point x="178" y="684" type="curve" smooth="yes"/>
      <point x="160" y="670"/>
      <point x="145" y="653"/>
      <point x="135" y="634" type="curve" smooth="yes"/>
      <point x="125" y="615"/>
      <point x="119" y="595"/>
      <point x="116" y="574" type="curve" smooth="yes"/>
      <point x="113" y="549"/>
      <point x="115" y="527"/>
      <point x="122" y="509" type="curve" smooth="yes"/>
      <point x="129" y="491"/>
      <point x="140" y="476"/>
      <point x="154" y="463" type="curve"/>
      <point x="124" y="451"/>
      <point x="101" y="434"/>
      <point x="85" y="413" type="curve" smooth="yes"/>
      <point x="69" y="392"/>
      <point x="58" y="368"/>
      <point x="55" y="342" type="curve" smooth="yes"/>
      <point x="52" y="320"/>
      <point x="54" y="302"/>
      <point x="60" y="286" type="curve" smooth="yes"/>
      <point x="66" y="270"/>
      <point x="75" y="256"/>
      <point x="87" y="244" type="curve" smooth="yes"/>
      <point x="99" y="232"/>
      <point x="113" y="222"/>
      <point x="129" y="214" type="curve" smooth="yes"/>
      <point x="145" y="206"/>
      <point x="160" y="197"/>
      <point x="177" y="190" type="curve" smooth="yes"/>
      <point x="194" y="183"/>
      <point x="210" y="177"/>
      <point x="226" y="171" type="curve" smooth="yes"/>
      <point x="242" y="165"/>
      <point x="257" y="158"/>
      <point x="269" y="150" type="curve" smooth="yes"/>
      <point x="281" y="142"/>
      <point x="291" y="134"/>
      <point x="298" y="124" type="curve" smooth="yes"/>
      <point x="305" y="114"/>
      <point x="308" y="103"/>
      <point x="306" y="90" type="curve"/>
      <point x="304" y="70"/>
      <point x="294" y="54"/>
      <point x="277" y="43" type="curve" smooth="yes"/>
      <point x="260" y="32"/>
      <point x="238" y="26"/>
      <point x="211" y="26" type="curve" smooth="yes"/>
      <point x="191" y="26"/>
      <point x="175" y="28"/>
      <point x="163" y="32" type="curve" smooth="yes"/>
      <point x="151" y="36"/>
      <point x="140" y="41"/>
      <point x="131" y="46" type="curve" smooth="yes"/>
      <point x="122" y="51"/>
      <point x="115" y="56"/>
      <point x="109" y="60" type="curve" smooth="yes"/>
      <point x="103" y="64"/>
      <point x="96" y="67"/>
      <point x="88" y="67" type="curve" smooth="yes"/>
      <point x="80" y="67"/>
      <point x="74" y="65"/>
      <point x="69" y="62" type="curve" smooth="yes"/>
      <point x="64" y="59"/>
      <point x="58" y="55"/>
      <point x="54" y="49" type="curve"/>
      <point x="20" y="2" type="line"/>
      <point x="29" y="-7"/>
      <point x="39" y="-15"/>
      <point x="51" y="-23" type="curve" smooth="yes"/>
      <point x="63" y="-31"/>
      <point x="77" y="-37"/>
      <point x="92" y="-43" type="curve" smooth="yes"/>
      <point x="107" y="-49"/>
      <point x="123" y="-53"/>
      <point x="139" y="-56" type="curve" smooth="yes"/>
      <point x="155" y="-59"/>
      <point x="172" y="-61"/>
      <point x="190" y="-61" type="curve" smooth="yes"/>
      <point x="223" y="-61"/>
      <point x="253" y="-56"/>
      <point x="280" y="-48" type="curve" smooth="yes"/>
      <point x="307" y="-40"/>
      <point x="329" y="-27"/>
      <point x="348" y="-12" type="curve" smooth="yes"/>
      <point x="367" y="3"/>
      <point x="383" y="21"/>
      <point x="394" y="42" type="curve" smooth="yes"/>
      <point x="405" y="63"/>
      <point x="413" y="85"/>
      <point x="416" y="110" type="curve" smooth="yes"/>
      <point x="419" y="133"/>
      <point x="416" y="152"/>
      <point x="409" y="168" type="curve" smooth="yes"/>
      <point x="402" y="184"/>
      <point x="390" y="199"/>
      <point x="377" y="211" type="curve"/>
      <point x="406" y="224"/>
      <point x="429" y="242"/>
      <point x="444" y="264" type="curve" smooth="yes"/>
      <point x="459" y="286"/>
      <point x="469" y="310"/>
      <point x="472" y="337" type="curve" smooth="yes"/>
      <point x="474" y="357"/>
      <point x="472" y="375"/>
      <point x="466" y="390" type="curve" smooth="yes"/>
      <point x="460" y="405"/>
      <point x="452" y="419"/>
      <point x="440" y="431" type="curve" smooth="yes"/>
      <point x="428" y="443"/>
      <point x="415" y="453"/>
      <point x="400" y="462" type="curve" smooth="yes"/>
      <point x="385" y="471"/>
      <point x="368" y="479"/>
      <point x="352" y="487" type="curve"/>
      <point x="304" y="508" type="line" smooth="yes"/>
      <point x="288" y="515"/>
      <point x="274" y="522"/>
      <point x="262" y="529" type="curve" smooth="yes"/>
      <point x="250" y="536"/>
      <point x="241" y="543"/>
      <point x="234" y="551" type="curve" smooth="yes"/>
      <point x="227" y="559"/>
      <point x="224" y="568"/>
      <point x="225" y="579" type="curve" smooth="yes"/>
      <point x="226" y="587"/>
      <point x="229" y="596"/>
      <point x="234" y="603" type="curve" smooth="yes"/>
      <point x="239" y="610"/>
      <point x="245" y="616"/>
      <point x="253" y="622" type="curve" smooth="yes"/>
      <point x="261" y="628"/>
      <point x="270" y="632"/>
      <point x="281" y="635" type="curve" smooth="yes"/>
      <point x="292" y="638"/>
      <point x="305" y="640"/>
      <point x="319" y="640" type="curve" smooth="yes"/>
      <point x="335" y="640"/>
      <point x="348" y="638"/>
      <point x="359" y="635" type="curve" smooth="yes"/>
      <point x="370" y="632"/>
      <point x="380" y="628"/>
      <point x="388" y="624" type="curve" smooth="yes"/>
      <point x="396" y="620"/>
      <point x="405" y="615"/>
      <point x="411" y="612" type="curve" smooth="yes"/>
      <point x="417" y="609"/>
      <point x="424" y="607"/>
      <point x="430" y="607" type="curve" smooth="yes"/>
      <point x="436" y="607"/>
      <point x="440" y="609"/>
      <point x="444" y="611" type="curve" smooth="yes"/>
      <point x="448" y="613"/>
      <point x="452" y="617"/>
      <point x="456" y="622" type="curve"/>
    </contour>
    <contour>
      <point x="169" y="375"/>
      <point x="173" y="386"/>
      <point x="181" y="396" type="curve" smooth="yes"/>
      <point x="189" y="406"/>
      <point x="201" y="414"/>
      <point x="217" y="422" type="curve"/>
      <point x="235" y="413"/>
      <point x="252" y="405"/>
      <point x="270" y="398" type="curve" smooth="yes"/>
      <point x="288" y="391"/>
      <point x="304" y="382"/>
      <point x="318" y="374" type="curve" smooth="yes"/>
      <point x="332" y="366"/>
      <point x="343" y="357"/>
      <point x="351" y="347" type="curve" smooth="yes"/>
      <point x="359" y="337"/>
      <point x="363" y="325"/>
      <point x="361" y="310" type="curve"/>
      <point x="360" y="298"/>
      <point x="355" y="286"/>
      <point x="348" y="276" type="curve" smooth="yes"/>
      <point x="341" y="266"/>
      <point x="330" y="258"/>
      <point x="316" y="251" type="curve"/>
      <point x="298" y="260"/>
      <point x="279" y="267"/>
      <point x="261" y="275" type="curve" smooth="yes"/>
      <point x="243" y="283"/>
      <point x="226" y="291"/>
      <point x="212" y="299" type="curve" smooth="yes"/>
      <point x="198" y="307"/>
      <point x="185" y="316"/>
      <point x="177" y="326" type="curve" smooth="yes"/>
      <point x="169" y="336"/>
      <point x="165" y="348"/>
      <point x="167" y="362" type="curve" smooth="yes"/>
    </contour>
  </outline>
</glyph>
